solid ascii
  facet normal 0.000000e+00 1.000000e+00 0.000000e+00
    outer loop
      vertex   -4.700000e+01 1.050000e+01 5.000000e+00
      vertex   -4.700000e+01 1.050000e+01 0.000000e+00
      vertex   -8.350000e+01 1.050000e+01 5.000000e+00
    endloop
  endfacet
  facet normal 0.000000e+00 1.000000e+00 0.000000e+00
    outer loop
      vertex   -8.350000e+01 1.050000e+01 5.000000e+00
      vertex   -4.700000e+01 1.050000e+01 0.000000e+00
      vertex   -8.350000e+01 1.050000e+01 0.000000e+00
    endloop
  endfacet
  facet normal 1.480347e-16 -1.352110e-06 -1.000000e+00
    outer loop
      vertex   -4.700000e+01 1.094083e+01 4.999999e+00
      vertex   -4.700000e+01 1.050000e+01 5.000000e+00
      vertex   -8.299878e+01 1.094083e+01 4.999999e+00
    endloop
  endfacet
  facet normal -0.000000e+00 -1.352110e-06 -1.000000e+00
    outer loop
      vertex   -8.299878e+01 1.094083e+01 4.999999e+00
      vertex   -4.700000e+01 1.050000e+01 5.000000e+00
      vertex   -8.350000e+01 1.050000e+01 5.000000e+00
    endloop
  endfacet
  facet normal -0.000000e+00 0.000000e+00 -1.000000e+00
    outer loop
      vertex   -8.300000e+01 1.100000e+01 5.000000e+00
      vertex   -8.350000e+01 1.050000e+01 5.000000e+00
      vertex   -8.350000e+01 4.700000e+01 5.000000e+00
    endloop
  endfacet
  facet normal -0.000000e+00 -0.000000e+00 -1.000000e+00
    outer loop
      vertex   -8.300000e+01 4.700000e+01 5.000000e+00
      vertex   -8.300000e+01 1.100000e+01 5.000000e+00
      vertex   -8.350000e+01 4.700000e+01 5.000000e+00
    endloop
  endfacet
  facet normal -9.870182e-06 9.870182e-06 -1.000000e+00
    outer loop
      vertex   -8.299878e+01 1.094083e+01 4.999999e+00
      vertex   -8.350000e+01 1.050000e+01 5.000000e+00
      vertex   -8.300000e+01 1.100000e+01 5.000000e+00
    endloop
  endfacet
  facet normal -4.904145e-04 -0.000000e+00 -9.999999e-01
    outer loop
      vertex   -8.299878e+01 1.100000e+01 4.999999e+00
      vertex   -8.299878e+01 1.094083e+01 4.999999e+00
      vertex   -8.300000e+01 1.100000e+01 5.000000e+00
    endloop
  endfacet
  facet normal 1.000000e+00 0.000000e+00 -0.000000e+00
    outer loop
      vertex   -8.350000e+01 4.700000e+01 0.000000e+00
      vertex   -8.350000e+01 4.700000e+01 5.000000e+00
      vertex   -8.350000e+01 1.050000e+01 0.000000e+00
    endloop
  endfacet
  facet normal 1.000000e+00 0.000000e+00 -0.000000e+00
    outer loop
      vertex   -8.350000e+01 1.050000e+01 0.000000e+00
      vertex   -8.350000e+01 4.700000e+01 5.000000e+00
      vertex   -8.350000e+01 1.050000e+01 5.000000e+00
    endloop
  endfacet
  facet normal 1.000000e+00 -4.811590e-14 0.000000e+00
    outer loop
      vertex   -4.700000e+01 1.050000e+01 0.000000e+00
      vertex   -4.700000e+01 1.050000e+01 5.000000e+00
      vertex   -4.700000e+01 1.005698e+01 0.000000e+00
    endloop
  endfacet
  facet normal 1.000000e+00 -4.811590e-14 0.000000e+00
    outer loop
      vertex   -4.700000e+01 1.005698e+01 0.000000e+00
      vertex   -4.700000e+01 1.050000e+01 5.000000e+00
      vertex   -4.700000e+01 1.005698e+01 2.000000e+01
    endloop
  endfacet
  facet normal 1.000000e+00 -1.207379e-14 1.064490e-15
    outer loop
      vertex   -4.700000e+01 1.005698e+01 2.000000e+01
      vertex   -4.700000e+01 1.050000e+01 5.000000e+00
      vertex   -4.700000e+01 1.094083e+01 9.999999e+00
    endloop
  endfacet
  facet normal 1.000000e+00 -0.000000e+00 0.000000e+00
    outer loop
      vertex   -4.700000e+01 1.100000e+01 2.000000e+01
      vertex   -4.700000e+01 1.094083e+01 9.999999e+00
      vertex   -4.700000e+01 1.100000e+01 9.999999e+00
    endloop
  endfacet
  facet normal 1.000000e+00 -2.260429e-14 1.337568e-16
    outer loop
      vertex   -4.700000e+01 1.100000e+01 2.000000e+01
      vertex   -4.700000e+01 1.005698e+01 2.000000e+01
      vertex   -4.700000e+01 1.094083e+01 9.999999e+00
    endloop
  endfacet
  facet normal 1.000000e+00 -0.000000e+00 0.000000e+00
    outer loop
      vertex   -4.700000e+01 1.050000e+01 5.000000e+00
      vertex   -4.700000e+01 1.094083e+01 4.999999e+00
      vertex   -4.700000e+01 1.094083e+01 9.999999e+00
    endloop
  endfacet
  facet normal -7.071068e-01 7.071068e-01 -1.758503e-15
    outer loop
      vertex   -9.203553e+01 4.700000e+01 0.000000e+00
      vertex   -9.203553e+01 4.700000e+01 2.000000e+01
      vertex   -8.850000e+01 5.053553e+01 2.384186e-06
    endloop
  endfacet
  facet normal -7.071068e-01 7.071068e-01 0.000000e+00
    outer loop
      vertex   -8.850000e+01 5.053553e+01 2.384186e-06
      vertex   -9.203553e+01 4.700000e+01 2.000000e+01
      vertex   -8.850000e+01 5.053553e+01 2.000000e+01
    endloop
  endfacet
  facet normal 7.071068e-01 -7.071068e-01 0.000000e+00
    outer loop
      vertex   -4.700000e+01 1.005698e+01 0.000000e+00
      vertex   -4.700000e+01 1.005698e+01 2.000000e+01
      vertex   -5.053553e+01 6.521447e+00 0.000000e+00
    endloop
  endfacet
  facet normal 7.071068e-01 -7.071068e-01 0.000000e+00
    outer loop
      vertex   -5.053553e+01 6.521447e+00 0.000000e+00
      vertex   -4.700000e+01 1.005698e+01 2.000000e+01
      vertex   -5.053553e+01 6.521447e+00 2.000000e+01
    endloop
  endfacet
  facet normal 7.071068e-01 7.071068e-01 -0.000000e+00
    outer loop
      vertex   -5.053553e+01 6.521447e+00 0.000000e+00
      vertex   -5.053553e+01 6.521447e+00 2.000000e+01
      vertex   -4.700000e+01 2.985913e+00 0.000000e+00
    endloop
  endfacet
  facet normal 7.071068e-01 7.071068e-01 0.000000e+00
    outer loop
      vertex   -4.700000e+01 2.985913e+00 0.000000e+00
      vertex   -5.053553e+01 6.521447e+00 2.000000e+01
      vertex   -4.700000e+01 2.985913e+00 2.000000e+01
    endloop
  endfacet
  facet normal -0.000000e+00 0.000000e+00 -1.000000e+00
    outer loop
      vertex   -4.700000e+01 1.050000e+01 0.000000e+00
      vertex   -5.053553e+01 6.521447e+00 0.000000e+00
      vertex   -8.350000e+01 1.050000e+01 0.000000e+00
    endloop
  endfacet
  facet normal 0.000000e+00 0.000000e+00 -1.000000e+00
    outer loop
      vertex   -4.700000e+01 1.050000e+01 0.000000e+00
      vertex   -4.700000e+01 1.005698e+01 0.000000e+00
      vertex   -5.053553e+01 6.521447e+00 0.000000e+00
    endloop
  endfacet
  facet normal -0.000000e+00 -0.000000e+00 -1.000000e+00
    outer loop
      vertex   -4.700000e+01 2.985913e+00 0.000000e+00
      vertex   -4.700000e+01 0.000000e+00 0.000000e+00
      vertex   -5.053553e+01 6.521447e+00 0.000000e+00
    endloop
  endfacet
  facet normal -0.000000e+00 -0.000000e+00 -1.000000e+00
    outer loop
      vertex   -5.053553e+01 6.521447e+00 0.000000e+00
      vertex   -4.700000e+01 0.000000e+00 0.000000e+00
      vertex   -8.350000e+01 1.050000e+01 0.000000e+00
    endloop
  endfacet
  facet normal -0.000000e+00 -0.000000e+00 -1.000000e+00
    outer loop
      vertex   -8.350000e+01 1.050000e+01 0.000000e+00
      vertex   -4.700000e+01 0.000000e+00 0.000000e+00
      vertex   -9.400000e+01 0.000000e+00 0.000000e+00
    endloop
  endfacet
  facet normal 0.000000e+00 -0.000000e+00 -1.000000e+00
    outer loop
      vertex   -9.400000e+01 4.700000e+01 0.000000e+00
      vertex   -8.350000e+01 1.050000e+01 0.000000e+00
      vertex   -9.400000e+01 0.000000e+00 0.000000e+00
    endloop
  endfacet
  facet normal 0.000000e+00 0.000000e+00 -1.000000e+00
    outer loop
      vertex   -9.400000e+01 4.700000e+01 0.000000e+00
      vertex   -9.203553e+01 4.700000e+01 0.000000e+00
      vertex   -8.350000e+01 1.050000e+01 0.000000e+00
    endloop
  endfacet
  facet normal 0.000000e+00 0.000000e+00 -1.000000e+00
    outer loop
      vertex   -8.350000e+01 1.050000e+01 0.000000e+00
      vertex   -9.203553e+01 4.700000e+01 0.000000e+00
      vertex   -8.496447e+01 4.700000e+01 0.000000e+00
    endloop
  endfacet
  facet normal -0.000000e+00 -0.000000e+00 -1.000000e+00
    outer loop
      vertex   -8.350000e+01 4.700000e+01 0.000000e+00
      vertex   -8.350000e+01 1.050000e+01 0.000000e+00
      vertex   -8.496447e+01 4.700000e+01 0.000000e+00
    endloop
  endfacet
  facet normal 0.000000e+00 6.743496e-07 -1.000000e+00
    outer loop
      vertex   -9.203553e+01 4.700000e+01 0.000000e+00
      vertex   -8.850000e+01 5.053553e+01 2.384186e-06
      vertex   -8.496447e+01 4.700000e+01 0.000000e+00
    endloop
  endfacet
  facet normal 1.000000e+00 7.399965e-13 0.000000e+00
    outer loop
      vertex   -4.700000e+01 2.985913e+00 2.000000e+01
      vertex   -4.700000e+01 2.957107e+00 1.650000e+01
      vertex   -4.700000e+01 2.985913e+00 0.000000e+00
    endloop
  endfacet
  facet normal 1.000000e+00 6.040650e-15 6.040650e-15
    outer loop
      vertex   -4.700000e+01 2.985913e+00 2.000000e+01
      vertex   -4.700000e+01 2.042893e+00 1.741421e+01
      vertex   -4.700000e+01 2.957107e+00 1.650000e+01
    endloop
  endfacet
  facet normal 1.000000e+00 2.260429e-14 0.000000e+00
    outer loop
      vertex   -4.700000e+01 2.985913e+00 2.000000e+01
      vertex   -4.700000e+01 2.042893e+00 2.000000e+01
      vertex   -4.700000e+01 2.042893e+00 1.741421e+01
    endloop
  endfacet
  facet normal 1.000000e+00 -0.000000e+00 0.000000e+00
    outer loop
      vertex   -4.700000e+01 2.042893e+00 1.558579e+01
      vertex   -4.700000e+01 2.042893e+00 1.500000e+01
      vertex   -4.700000e+01 2.957107e+00 1.650000e+01
    endloop
  endfacet
  facet normal 1.000000e+00 2.113630e-15 -1.288206e-15
    outer loop
      vertex   -4.700000e+01 2.957107e+00 1.650000e+01
      vertex   -4.700000e+01 2.042893e+00 1.500000e+01
      vertex   -4.700000e+01 2.985913e+00 0.000000e+00
    endloop
  endfacet
  facet normal 1.000000e+00 7.138950e-15 -9.722742e-16
    outer loop
      vertex   -4.700000e+01 2.985913e+00 0.000000e+00
      vertex   -4.700000e+01 2.042893e+00 1.500000e+01
      vertex   -4.700000e+01 0.000000e+00 0.000000e+00
    endloop
  endfacet
  facet normal 1.000000e+00 0.000000e+00 -0.000000e+00
    outer loop
      vertex   -4.700000e+01 0.000000e+00 0.000000e+00
      vertex   -4.700000e+01 2.042893e+00 1.500000e+01
      vertex   -4.700000e+01 0.000000e+00 1.500000e+01
    endloop
  endfacet
  facet normal 7.071068e-01 7.071068e-01 -1.758593e-15
    outer loop
      vertex   -8.496447e+01 4.700000e+01 0.000000e+00
      vertex   -8.850000e+01 5.053553e+01 2.384186e-06
      vertex   -8.496447e+01 4.700000e+01 2.000000e+01
    endloop
  endfacet
  facet normal 7.071068e-01 7.071068e-01 -0.000000e+00
    outer loop
      vertex   -8.496447e+01 4.700000e+01 2.000000e+01
      vertex   -8.850000e+01 5.053553e+01 2.384186e-06
      vertex   -8.850000e+01 5.053553e+01 2.000000e+01
    endloop
  endfacet
  facet normal 0.000000e+00 1.000000e+00 -0.000000e+00
    outer loop
      vertex   -8.350000e+01 4.700000e+01 0.000000e+00
      vertex   -8.496447e+01 4.700000e+01 0.000000e+00
      vertex   -8.350000e+01 4.700000e+01 5.000000e+00
    endloop
  endfacet
  facet normal 3.638917e-15 1.000000e+00 -1.065814e-15
    outer loop
      vertex   -8.350000e+01 4.700000e+01 5.000000e+00
      vertex   -8.496447e+01 4.700000e+01 0.000000e+00
      vertex   -8.496447e+01 4.700000e+01 2.000000e+01
    endloop
  endfacet
  facet normal 1.085093e-14 1.000000e+00 -3.616976e-16
    outer loop
      vertex   -8.300000e+01 4.700000e+01 2.000000e+01
      vertex   -8.350000e+01 4.700000e+01 5.000000e+00
      vertex   -8.496447e+01 4.700000e+01 2.000000e+01
    endloop
  endfacet
  facet normal 0.000000e+00 1.000000e+00 0.000000e+00
    outer loop
      vertex   -8.300000e+01 4.700000e+01 2.000000e+01
      vertex   -8.300000e+01 4.700000e+01 5.000000e+00
      vertex   -8.350000e+01 4.700000e+01 5.000000e+00
    endloop
  endfacet
  facet normal -1.085093e-14 1.000000e+00 -1.065814e-15
    outer loop
      vertex   -9.203553e+01 4.700000e+01 2.000000e+01
      vertex   -9.203553e+01 4.700000e+01 0.000000e+00
      vertex   -9.400000e+01 4.700000e+01 2.000000e+01
    endloop
  endfacet
  facet normal 0.000000e+00 1.000000e+00 0.000000e+00
    outer loop
      vertex   -9.400000e+01 4.700000e+01 2.000000e+01
      vertex   -9.203553e+01 4.700000e+01 0.000000e+00
      vertex   -9.400000e+01 4.700000e+01 0.000000e+00
    endloop
  endfacet
  facet normal 3.767381e-15 -3.767381e-15 1.000000e+00
    outer loop
      vertex   -4.700000e+01 1.005698e+01 2.000000e+01
      vertex   -4.700000e+01 1.100000e+01 2.000000e+01
      vertex   -5.053553e+01 6.521447e+00 2.000000e+01
    endloop
  endfacet
  facet normal 0.000000e+00 -7.932726e-16 1.000000e+00
    outer loop
      vertex   -5.053553e+01 6.521447e+00 2.000000e+01
      vertex   -4.700000e+01 1.100000e+01 2.000000e+01
      vertex   -8.300000e+01 1.100000e+01 2.000000e+01
    endloop
  endfacet
  facet normal 1.212930e-15 3.478120e-15 1.000000e+00
    outer loop
      vertex   -5.145711e+01 2.042893e+00 2.000000e+01
      vertex   -8.300000e+01 1.100000e+01 2.000000e+01
      vertex   -5.145711e+01 0.000000e+00 2.000000e+01
    endloop
  endfacet
  facet normal -2.110366e-31 -7.932726e-16 1.000000e+00
    outer loop
      vertex   -5.145711e+01 2.042893e+00 2.000000e+01
      vertex   -5.053553e+01 6.521447e+00 2.000000e+01
      vertex   -8.300000e+01 1.100000e+01 2.000000e+01
    endloop
  endfacet
  facet normal -6.578946e-16 -6.578946e-16 1.000000e+00
    outer loop
      vertex   -5.145711e+01 2.042893e+00 2.000000e+01
      vertex   -4.700000e+01 2.985913e+00 2.000000e+01
      vertex   -5.053553e+01 6.521447e+00 2.000000e+01
    endloop
  endfacet
  facet normal -1.594179e-15 3.767381e-15 1.000000e+00
    outer loop
      vertex   -5.145711e+01 2.042893e+00 2.000000e+01
      vertex   -4.700000e+01 2.042893e+00 2.000000e+01
      vertex   -4.700000e+01 2.985913e+00 2.000000e+01
    endloop
  endfacet
  facet normal 1.213656e-06 0.000000e+00 1.000000e+00
    outer loop
      vertex   -8.300000e+01 4.700000e+01 2.000000e+01
      vertex   -8.496447e+01 4.700000e+01 2.000000e+01
      vertex   -8.300000e+01 1.100000e+01 2.000000e+01
    endloop
  endfacet
  facet normal 0.000000e+00 -6.622738e-08 1.000000e+00
    outer loop
      vertex   -8.300000e+01 1.100000e+01 2.000000e+01
      vertex   -8.496447e+01 4.700000e+01 2.000000e+01
      vertex   -9.203553e+01 4.700000e+01 2.000000e+01
    endloop
  endfacet
  facet normal -1.213656e-06 -3.708393e-07 1.000000e+00
    outer loop
      vertex   -9.400000e+01 4.700000e+01 2.000000e+01
      vertex   -8.300000e+01 1.100000e+01 2.000000e+01
      vertex   -9.203553e+01 4.700000e+01 2.000000e+01
    endloop
  endfacet
  facet normal -0.000000e+00 0.000000e+00 1.000000e+00
    outer loop
      vertex   -9.400000e+01 4.700000e+01 2.000000e+01
      vertex   -9.400000e+01 0.000000e+00 2.000000e+01
      vertex   -8.300000e+01 1.100000e+01 2.000000e+01
    endloop
  endfacet
  facet normal -0.000000e+00 0.000000e+00 1.000000e+00
    outer loop
      vertex   -8.300000e+01 1.100000e+01 2.000000e+01
      vertex   -9.400000e+01 0.000000e+00 2.000000e+01
      vertex   -5.145711e+01 0.000000e+00 2.000000e+01
    endloop
  endfacet
  facet normal 0.000000e+00 0.000000e+00 1.000000e+00
    outer loop
      vertex   -8.496447e+01 4.700000e+01 2.000000e+01
      vertex   -8.850000e+01 5.053553e+01 2.000000e+01
      vertex   -9.203553e+01 4.700000e+01 2.000000e+01
    endloop
  endfacet
  facet normal -1.000000e+00 -0.000000e+00 -0.000000e+00
    outer loop
      vertex   -9.400000e+01 4.700000e+01 2.000000e+01
      vertex   -9.400000e+01 4.700000e+01 0.000000e+00
      vertex   -9.400000e+01 0.000000e+00 2.000000e+01
    endloop
  endfacet
  facet normal -1.000000e+00 -0.000000e+00 -0.000000e+00
    outer loop
      vertex   -9.400000e+01 0.000000e+00 2.000000e+01
      vertex   -9.400000e+01 4.700000e+01 0.000000e+00
      vertex   -9.400000e+01 0.000000e+00 0.000000e+00
    endloop
  endfacet
  facet normal 0.000000e+00 1.000000e+00 0.000000e+00
    outer loop
      vertex   -4.700000e+01 1.094083e+01 9.999999e+00
      vertex   -4.700000e+01 1.094083e+01 4.999999e+00
      vertex   -8.299878e+01 1.094083e+01 9.999999e+00
    endloop
  endfacet
  facet normal 0.000000e+00 1.000000e+00 0.000000e+00
    outer loop
      vertex   -8.299878e+01 1.094083e+01 9.999999e+00
      vertex   -4.700000e+01 1.094083e+01 4.999999e+00
      vertex   -8.299878e+01 1.094083e+01 4.999999e+00
    endloop
  endfacet
  facet normal -0.000000e+00 -1.000000e+00 -0.000000e+00
    outer loop
      vertex   -4.700000e+01 0.000000e+00 1.500000e+01
      vertex   -5.145711e+01 0.000000e+00 1.500000e+01
      vertex   -4.700000e+01 0.000000e+00 0.000000e+00
    endloop
  endfacet
  facet normal -0.000000e+00 -1.000000e+00 0.000000e+00
    outer loop
      vertex   -4.700000e+01 0.000000e+00 0.000000e+00
      vertex   -5.145711e+01 0.000000e+00 1.500000e+01
      vertex   -9.400000e+01 0.000000e+00 0.000000e+00
    endloop
  endfacet
  facet normal 0.000000e+00 -1.000000e+00 0.000000e+00
    outer loop
      vertex   -9.400000e+01 0.000000e+00 0.000000e+00
      vertex   -5.145711e+01 0.000000e+00 1.500000e+01
      vertex   -9.400000e+01 0.000000e+00 2.000000e+01
    endloop
  endfacet
  facet normal 0.000000e+00 -1.000000e+00 0.000000e+00
    outer loop
      vertex   -9.400000e+01 0.000000e+00 2.000000e+01
      vertex   -5.145711e+01 0.000000e+00 1.500000e+01
      vertex   -5.145711e+01 0.000000e+00 2.000000e+01
    endloop
  endfacet
  facet normal 4.934491e-17 3.001962e-14 -1.000000e+00
    outer loop
      vertex   -4.700000e+01 1.094083e+01 9.999999e+00
      vertex   -8.299878e+01 1.094083e+01 9.999999e+00
      vertex   -4.700000e+01 1.100000e+01 9.999999e+00
    endloop
  endfacet
  facet normal 9.868982e-17 0.000000e+00 -1.000000e+00
    outer loop
      vertex   -4.700000e+01 1.100000e+01 9.999999e+00
      vertex   -8.299878e+01 1.094083e+01 9.999999e+00
      vertex   -8.299878e+01 1.100000e+01 9.999999e+00
    endloop
  endfacet
  facet normal 1.000000e+00 0.000000e+00 -0.000000e+00
    outer loop
      vertex   -8.299878e+01 1.100000e+01 4.999999e+00
      vertex   -8.299878e+01 1.100000e+01 9.999999e+00
      vertex   -8.299878e+01 1.094083e+01 4.999999e+00
    endloop
  endfacet
  facet normal 1.000000e+00 0.000000e+00 -0.000000e+00
    outer loop
      vertex   -8.299878e+01 1.094083e+01 4.999999e+00
      vertex   -8.299878e+01 1.100000e+01 9.999999e+00
      vertex   -8.299878e+01 1.094083e+01 9.999999e+00
    endloop
  endfacet
  facet normal 0.000000e+00 -7.071068e-01 -7.071068e-01
    outer loop
      vertex   -4.700000e+01 2.957107e+00 1.650000e+01
      vertex   -4.700000e+01 2.042893e+00 1.741421e+01
      vertex   -5.145711e+01 2.957107e+00 1.650000e+01
    endloop
  endfacet
  facet normal 5.636275e-16 -7.071068e-01 -7.071068e-01
    outer loop
      vertex   -5.145711e+01 2.957107e+00 1.650000e+01
      vertex   -4.700000e+01 2.042893e+00 1.741421e+01
      vertex   -5.145711e+01 2.042893e+00 1.741421e+01
    endloop
  endfacet
  facet normal 5.587178e-16 -7.071068e-01 7.071068e-01
    outer loop
      vertex   -4.700000e+01 2.042893e+00 1.558579e+01
      vertex   -4.700000e+01 2.957107e+00 1.650000e+01
      vertex   -5.145711e+01 2.042893e+00 1.558579e+01
    endloop
  endfacet
  facet normal 0.000000e+00 -7.071068e-01 7.071068e-01
    outer loop
      vertex   -5.145711e+01 2.042893e+00 1.558579e+01
      vertex   -4.700000e+01 2.957107e+00 1.650000e+01
      vertex   -5.145711e+01 2.957107e+00 1.650000e+01
    endloop
  endfacet
  facet normal -0.000000e+00 -1.000000e+00 0.000000e+00
    outer loop
      vertex   -4.700000e+01 2.042893e+00 1.741421e+01
      vertex   -4.700000e+01 2.042893e+00 2.000000e+01
      vertex   -5.145711e+01 2.042893e+00 1.741421e+01
    endloop
  endfacet
  facet normal -0.000000e+00 -1.000000e+00 0.000000e+00
    outer loop
      vertex   -5.145711e+01 2.042893e+00 1.741421e+01
      vertex   -4.700000e+01 2.042893e+00 2.000000e+01
      vertex   -5.145711e+01 2.042893e+00 2.000000e+01
    endloop
  endfacet
  facet normal -0.000000e+00 -1.000000e+00 0.000000e+00
    outer loop
      vertex   -4.700000e+01 2.042893e+00 1.500000e+01
      vertex   -4.700000e+01 2.042893e+00 1.558579e+01
      vertex   -5.145711e+01 2.042893e+00 1.500000e+01
    endloop
  endfacet
  facet normal 0.000000e+00 -1.000000e+00 0.000000e+00
    outer loop
      vertex   -5.145711e+01 2.042893e+00 1.500000e+01
      vertex   -4.700000e+01 2.042893e+00 1.558579e+01
      vertex   -5.145711e+01 2.042893e+00 1.558579e+01
    endloop
  endfacet
  facet normal 0.000000e+00 -0.000000e+00 1.000000e+00
    outer loop
      vertex   -4.700000e+01 0.000000e+00 1.500000e+01
      vertex   -4.700000e+01 2.042893e+00 1.500000e+01
      vertex   -5.145711e+01 0.000000e+00 1.500000e+01
    endloop
  endfacet
  facet normal 0.000000e+00 -0.000000e+00 1.000000e+00
    outer loop
      vertex   -5.145711e+01 0.000000e+00 1.500000e+01
      vertex   -4.700000e+01 2.042893e+00 1.500000e+01
      vertex   -5.145711e+01 2.042893e+00 1.500000e+01
    endloop
  endfacet
  facet normal 1.000000e+00 0.000000e+00 -0.000000e+00
    outer loop
      vertex   -5.145711e+01 2.042893e+00 1.500000e+01
      vertex   -5.145711e+01 2.042893e+00 1.558579e+01
      vertex   -5.145711e+01 0.000000e+00 1.500000e+01
    endloop
  endfacet
  facet normal 1.000000e+00 0.000000e+00 0.000000e+00
    outer loop
      vertex   -5.145711e+01 0.000000e+00 1.500000e+01
      vertex   -5.145711e+01 2.042893e+00 1.558579e+01
      vertex   -5.145711e+01 2.042893e+00 1.741421e+01
    endloop
  endfacet
  facet normal 1.000000e+00 -0.000000e+00 0.000000e+00
    outer loop
      vertex   -5.145711e+01 0.000000e+00 2.000000e+01
      vertex   -5.145711e+01 2.042893e+00 1.741421e+01
      vertex   -5.145711e+01 2.042893e+00 2.000000e+01
    endloop
  endfacet
  facet normal 1.000000e+00 -0.000000e+00 0.000000e+00
    outer loop
      vertex   -5.145711e+01 0.000000e+00 2.000000e+01
      vertex   -5.145711e+01 0.000000e+00 1.500000e+01
      vertex   -5.145711e+01 2.042893e+00 1.741421e+01
    endloop
  endfacet
  facet normal 1.000000e+00 0.000000e+00 -0.000000e+00
    outer loop
      vertex   -5.145711e+01 2.042893e+00 1.558579e+01
      vertex   -5.145711e+01 2.957107e+00 1.650000e+01
      vertex   -5.145711e+01 2.042893e+00 1.741421e+01
    endloop
  endfacet
  facet normal 0.000000e+00 1.000000e+00 -0.000000e+00
    outer loop
      vertex   -4.700000e+01 1.100000e+01 9.999999e+00
      vertex   -8.299878e+01 1.100000e+01 9.999999e+00
      vertex   -4.700000e+01 1.100000e+01 2.000000e+01
    endloop
  endfacet
  facet normal 0.000000e+00 1.000000e+00 0.000000e+00
    outer loop
      vertex   -4.700000e+01 1.100000e+01 2.000000e+01
      vertex   -8.299878e+01 1.100000e+01 9.999999e+00
      vertex   -8.300000e+01 1.100000e+01 2.000000e+01
    endloop
  endfacet
  facet normal 0.000000e+00 1.000000e+00 0.000000e+00
    outer loop
      vertex   -8.300000e+01 1.100000e+01 2.000000e+01
      vertex   -8.299878e+01 1.100000e+01 9.999999e+00
      vertex   -8.300000e+01 1.100000e+01 5.000000e+00
    endloop
  endfacet
  facet normal -0.000000e+00 1.000000e+00 0.000000e+00
    outer loop
      vertex   -8.300000e+01 1.100000e+01 5.000000e+00
      vertex   -8.299878e+01 1.100000e+01 9.999999e+00
      vertex   -8.299878e+01 1.100000e+01 4.999999e+00
    endloop
  endfacet
  facet normal 1.000000e+00 0.000000e+00 -0.000000e+00
    outer loop
      vertex   -8.300000e+01 4.700000e+01 5.000000e+00
      vertex   -8.300000e+01 4.700000e+01 2.000000e+01
      vertex   -8.300000e+01 1.100000e+01 5.000000e+00
    endloop
  endfacet
  facet normal 1.000000e+00 0.000000e+00 -0.000000e+00
    outer loop
      vertex   -8.300000e+01 1.100000e+01 5.000000e+00
      vertex   -8.300000e+01 4.700000e+01 2.000000e+01
      vertex   -8.300000e+01 1.100000e+01 2.000000e+01
    endloop
  endfacet
endsolid
