solid ascii
  facet normal -7.071068e-01 7.071068e-01 0.000000e+00
    outer loop
      vertex   -3.937065e+01 4.953553e+01 5.000001e+00
      vertex   -3.937065e+01 4.953553e+01 5.960464e-07
      vertex   -4.290619e+01 4.600000e+01 5.000001e+00
    endloop
  endfacet
  facet normal -7.071068e-01 7.071068e-01 0.000000e+00
    outer loop
      vertex   -4.290619e+01 4.600000e+01 5.000001e+00
      vertex   -3.937065e+01 4.953553e+01 5.960464e-07
      vertex   -4.290619e+01 4.600000e+01 5.960464e-07
    endloop
  endfacet
  facet normal 7.071068e-01 7.071068e-01 0.000000e+00
    outer loop
      vertex   -3.583512e+01 4.600000e+01 5.000001e+00
      vertex   -3.583512e+01 4.600000e+01 5.960464e-07
      vertex   -3.937065e+01 4.953553e+01 5.000001e+00
    endloop
  endfacet
  facet normal 7.071068e-01 7.071068e-01 0.000000e+00
    outer loop
      vertex   -3.937065e+01 4.953553e+01 5.000001e+00
      vertex   -3.583512e+01 4.600000e+01 5.960464e-07
      vertex   -3.937065e+01 4.953553e+01 5.960464e-07
    endloop
  endfacet
  facet normal -0.000000e+00 0.000000e+00 1.000000e+00
    outer loop
      vertex   -4.810265e+01 4.600000e+01 5.000001e+00
      vertex   -5.163819e+01 4.246447e+01 5.000001e+00
      vertex   -4.290619e+01 4.600000e+01 5.000001e+00
    endloop
  endfacet
  facet normal 1.498673e-08 -3.701396e-08 1.000000e+00
    outer loop
      vertex   -4.290619e+01 4.600000e+01 5.000001e+00
      vertex   -5.163819e+01 4.246447e+01 5.000001e+00
      vertex   -5.500000e+01 2.500000e+01 5.000000e+00
    endloop
  endfacet
  facet normal -6.947101e-08 3.501701e-08 1.000000e+00
    outer loop
      vertex   -3.583512e+01 4.600000e+01 5.000001e+00
      vertex   -5.500000e+01 2.500000e+01 5.000000e+00
      vertex   -1.707791e+01 3.214796e+01 5.000002e+00
    endloop
  endfacet
  facet normal -9.533077e-08 0.000000e+00 1.000000e+00
    outer loop
      vertex   -1.707791e+01 4.600000e+01 5.000002e+00
      vertex   -3.583512e+01 4.600000e+01 5.000001e+00
      vertex   -1.707791e+01 3.214796e+01 5.000002e+00
    endloop
  endfacet
  facet normal -2.395476e-08 -2.395476e-08 1.000000e+00
    outer loop
      vertex   -5.517372e+01 4.600000e+01 5.000001e+00
      vertex   -5.958964e+01 2.553374e+01 5.000000e+00
      vertex   -5.163819e+01 4.246447e+01 5.000001e+00
    endloop
  endfacet
  facet normal -6.994727e-09 -2.761415e-08 1.000000e+00
    outer loop
      vertex   -5.517372e+01 4.600000e+01 5.000001e+00
      vertex   -6.023091e+01 2.569618e+01 5.000000e+00
      vertex   -5.958964e+01 2.553374e+01 5.000000e+00
    endloop
  endfacet
  facet normal -7.909519e-09 -2.738630e-08 1.000000e+00
    outer loop
      vertex   -5.517372e+01 4.600000e+01 5.000001e+00
      vertex   -6.086646e+01 2.587973e+01 5.000000e+00
      vertex   -6.023091e+01 2.569618e+01 5.000000e+00
    endloop
  endfacet
  facet normal -8.817316e-09 -2.712945e-08 1.000000e+00
    outer loop
      vertex   -5.517372e+01 4.600000e+01 5.000001e+00
      vertex   -6.149560e+01 2.608421e+01 5.000000e+00
      vertex   -6.086646e+01 2.587973e+01 5.000000e+00
    endloop
  endfacet
  facet normal -9.717237e-09 -2.684379e-08 1.000000e+00
    outer loop
      vertex   -5.517372e+01 4.600000e+01 5.000001e+00
      vertex   -6.211763e+01 2.630938e+01 5.000000e+00
      vertex   -6.149560e+01 2.608421e+01 5.000000e+00
    endloop
  endfacet
  facet normal -1.060841e-08 -2.652952e-08 1.000000e+00
    outer loop
      vertex   -5.517372e+01 4.600000e+01 5.000001e+00
      vertex   -6.273187e+01 2.655499e+01 5.000000e+00
      vertex   -6.211763e+01 2.630938e+01 5.000000e+00
    endloop
  endfacet
  facet normal -1.148994e-08 -2.618687e-08 1.000000e+00
    outer loop
      vertex   -5.517372e+01 4.600000e+01 5.000001e+00
      vertex   -6.333765e+01 2.682079e+01 5.000000e+00
      vertex   -6.273187e+01 2.655499e+01 5.000000e+00
    endloop
  endfacet
  facet normal -1.236098e-08 -2.581610e-08 1.000000e+00
    outer loop
      vertex   -5.517372e+01 4.600000e+01 5.000001e+00
      vertex   -6.393431e+01 2.710648e+01 5.000000e+00
      vertex   -6.333765e+01 2.682079e+01 5.000000e+00
    endloop
  endfacet
  facet normal -1.322065e-08 -2.541748e-08 1.000000e+00
    outer loop
      vertex   -5.517372e+01 4.600000e+01 5.000001e+00
      vertex   -6.452119e+01 2.741174e+01 5.000000e+00
      vertex   -6.393431e+01 2.710648e+01 5.000000e+00
    endloop
  endfacet
  facet normal -1.406809e-08 -2.499133e-08 1.000000e+00
    outer loop
      vertex   -5.517372e+01 4.600000e+01 5.000001e+00
      vertex   -6.509766e+01 2.773624e+01 5.000000e+00
      vertex   -6.452119e+01 2.741174e+01 5.000000e+00
    endloop
  endfacet
  facet normal -1.490243e-08 -2.453798e-08 1.000000e+00
    outer loop
      vertex   -5.517372e+01 4.600000e+01 5.000001e+00
      vertex   -6.566308e+01 2.807964e+01 5.000000e+00
      vertex   -6.509766e+01 2.773624e+01 5.000000e+00
    endloop
  endfacet
  facet normal -1.572284e-08 -2.405777e-08 1.000000e+00
    outer loop
      vertex   -5.517372e+01 4.600000e+01 5.000001e+00
      vertex   -6.621684e+01 2.844154e+01 5.000000e+00
      vertex   -6.566308e+01 2.807964e+01 5.000000e+00
    endloop
  endfacet
  facet normal -1.652845e-08 -2.355109e-08 1.000000e+00
    outer loop
      vertex   -5.517372e+01 4.600000e+01 5.000001e+00
      vertex   -6.675832e+01 2.882156e+01 5.000000e+00
      vertex   -6.621684e+01 2.844154e+01 5.000000e+00
    endloop
  endfacet
  facet normal -1.731843e-08 -2.301836e-08 1.000000e+00
    outer loop
      vertex   -5.517372e+01 4.600000e+01 5.000001e+00
      vertex   -6.728694e+01 2.921928e+01 5.000000e+00
      vertex   -6.675832e+01 2.882156e+01 5.000000e+00
    endloop
  endfacet
  facet normal -1.809194e-08 -2.245999e-08 1.000000e+00
    outer loop
      vertex   -5.517372e+01 4.600000e+01 5.000001e+00
      vertex   -6.780212e+01 2.963426e+01 5.000000e+00
      vertex   -6.728694e+01 2.921928e+01 5.000000e+00
    endloop
  endfacet
  facet normal -1.884818e-08 -2.187645e-08 1.000000e+00
    outer loop
      vertex   -5.517372e+01 4.600000e+01 5.000001e+00
      vertex   -6.830329e+01 3.006606e+01 5.000000e+00
      vertex   -6.780212e+01 2.963426e+01 5.000000e+00
    endloop
  endfacet
  facet normal -1.958631e-08 -2.126823e-08 1.000000e+00
    outer loop
      vertex   -5.517372e+01 4.600000e+01 5.000001e+00
      vertex   -6.878990e+01 3.051419e+01 5.000000e+00
      vertex   -6.830329e+01 3.006606e+01 5.000000e+00
    endloop
  endfacet
  facet normal -2.030554e-08 -2.063584e-08 1.000000e+00
    outer loop
      vertex   -5.517372e+01 4.600000e+01 5.000001e+00
      vertex   -6.926143e+01 3.097818e+01 5.000000e+00
      vertex   -6.878990e+01 3.051419e+01 5.000000e+00
    endloop
  endfacet
  facet normal -2.100507e-08 -1.997981e-08 1.000000e+00
    outer loop
      vertex   -5.517372e+01 4.600000e+01 5.000001e+00
      vertex   -6.971736e+01 3.145750e+01 5.000000e+00
      vertex   -6.926143e+01 3.097818e+01 5.000000e+00
    endloop
  endfacet
  facet normal -2.168412e-08 -1.930070e-08 1.000000e+00
    outer loop
      vertex   -5.517372e+01 4.600000e+01 5.000001e+00
      vertex   -7.015718e+01 3.195164e+01 5.000000e+00
      vertex   -6.971736e+01 3.145750e+01 5.000000e+00
    endloop
  endfacet
  facet normal -2.234193e-08 -1.859911e-08 1.000000e+00
    outer loop
      vertex   -5.517372e+01 4.600000e+01 5.000001e+00
      vertex   -7.058043e+01 3.246005e+01 5.000000e+00
      vertex   -7.015718e+01 3.195164e+01 5.000000e+00
    endloop
  endfacet
  facet normal -2.297773e-08 -1.787565e-08 1.000000e+00
    outer loop
      vertex   -5.517372e+01 4.600000e+01 5.000001e+00
      vertex   -7.098662e+01 3.298218e+01 5.000000e+00
      vertex   -7.058043e+01 3.246005e+01 5.000000e+00
    endloop
  endfacet
  facet normal -2.359078e-08 -1.713097e-08 1.000000e+00
    outer loop
      vertex   -5.517372e+01 4.600000e+01 5.000001e+00
      vertex   -7.137533e+01 3.351747e+01 5.000000e+00
      vertex   -7.098662e+01 3.298218e+01 5.000000e+00
    endloop
  endfacet
  facet normal -2.418036e-08 -1.636573e-08 1.000000e+00
    outer loop
      vertex   -5.517372e+01 4.600000e+01 5.000001e+00
      vertex   -7.174612e+01 3.406531e+01 5.000000e+00
      vertex   -7.137533e+01 3.351747e+01 5.000000e+00
    endloop
  endfacet
  facet normal -2.474576e-08 -1.558062e-08 1.000000e+00
    outer loop
      vertex   -5.517372e+01 4.600000e+01 5.000001e+00
      vertex   -7.209859e+01 3.462512e+01 5.000000e+00
      vertex   -7.174612e+01 3.406531e+01 5.000000e+00
    endloop
  endfacet
  facet normal -2.528628e-08 -1.477637e-08 1.000000e+00
    outer loop
      vertex   -5.517372e+01 4.600000e+01 5.000001e+00
      vertex   -7.243235e+01 3.519627e+01 5.000000e+00
      vertex   -7.209859e+01 3.462512e+01 5.000000e+00
    endloop
  endfacet
  facet normal -2.580125e-08 -1.395372e-08 1.000000e+00
    outer loop
      vertex   -5.517372e+01 4.600000e+01 5.000001e+00
      vertex   -7.274705e+01 3.577816e+01 5.000000e+00
      vertex   -7.243235e+01 3.519627e+01 5.000000e+00
    endloop
  endfacet
  facet normal -2.629001e-08 -1.311344e-08 1.000000e+00
    outer loop
      vertex   -5.517372e+01 4.600000e+01 5.000001e+00
      vertex   -7.304232e+01 3.637013e+01 5.000000e+00
      vertex   -7.274705e+01 3.577816e+01 5.000000e+00
    endloop
  endfacet
  facet normal -2.675193e-08 -1.225633e-08 1.000000e+00
    outer loop
      vertex   -5.517372e+01 4.600000e+01 5.000001e+00
      vertex   -7.331786e+01 3.697154e+01 5.000000e+00
      vertex   -7.304232e+01 3.637013e+01 5.000000e+00
    endloop
  endfacet
  facet normal -2.718639e-08 -1.138321e-08 1.000000e+00
    outer loop
      vertex   -5.517372e+01 4.600000e+01 5.000001e+00
      vertex   -7.357335e+01 3.758174e+01 5.000000e+00
      vertex   -7.331786e+01 3.697154e+01 5.000000e+00
    endloop
  endfacet
  facet normal -2.759281e-08 -1.049493e-08 1.000000e+00
    outer loop
      vertex   -5.517372e+01 4.600000e+01 5.000001e+00
      vertex   -7.380853e+01 3.820006e+01 5.000000e+00
      vertex   -7.357335e+01 3.758174e+01 5.000000e+00
    endloop
  endfacet
  facet normal -2.797060e-08 -9.592347e-09 1.000000e+00
    outer loop
      vertex   -5.517372e+01 4.600000e+01 5.000001e+00
      vertex   -7.402313e+01 3.882581e+01 5.000000e+00
      vertex   -7.380853e+01 3.820006e+01 5.000000e+00
    endloop
  endfacet
  facet normal -2.831923e-08 -8.676365e-09 1.000000e+00
    outer loop
      vertex   -5.517372e+01 4.600000e+01 5.000001e+00
      vertex   -7.421691e+01 3.945832e+01 5.000000e+00
      vertex   -7.402313e+01 3.882581e+01 5.000000e+00
    endloop
  endfacet
  facet normal -2.863817e-08 -7.747898e-09 1.000000e+00
    outer loop
      vertex   -5.517372e+01 4.600000e+01 5.000001e+00
      vertex   -7.438967e+01 4.009689e+01 5.000000e+00
      vertex   -7.421691e+01 3.945832e+01 5.000000e+00
    endloop
  endfacet
  facet normal -2.892694e-08 -6.807885e-09 1.000000e+00
    outer loop
      vertex   -5.517372e+01 4.600000e+01 5.000001e+00
      vertex   -7.454122e+01 4.074082e+01 5.000000e+00
      vertex   -7.438967e+01 4.009689e+01 5.000000e+00
    endloop
  endfacet
  facet normal -2.918507e-08 -5.857288e-09 1.000000e+00
    outer loop
      vertex   -5.517372e+01 4.600000e+01 5.000001e+00
      vertex   -7.467139e+01 4.138942e+01 5.000000e+00
      vertex   -7.454122e+01 4.074082e+01 5.000000e+00
    endloop
  endfacet
  facet normal -2.941213e-08 -4.897089e-09 1.000000e+00
    outer loop
      vertex   -5.517372e+01 4.600000e+01 5.000001e+00
      vertex   -7.478004e+01 4.204196e+01 5.000000e+00
      vertex   -7.467139e+01 4.138942e+01 5.000000e+00
    endloop
  endfacet
  facet normal -2.960771e-08 -3.928292e-09 1.000000e+00
    outer loop
      vertex   -5.517372e+01 4.600000e+01 5.000001e+00
      vertex   -7.486705e+01 4.269774e+01 5.000000e+00
      vertex   -7.478004e+01 4.204196e+01 5.000000e+00
    endloop
  endfacet
  facet normal -2.977143e-08 -2.951918e-09 1.000000e+00
    outer loop
      vertex   -5.517372e+01 4.600000e+01 5.000001e+00
      vertex   -7.493232e+01 4.335604e+01 5.000000e+00
      vertex   -7.486705e+01 4.269774e+01 5.000000e+00
    endloop
  endfacet
  facet normal -2.990295e-08 -1.969011e-09 1.000000e+00
    outer loop
      vertex   -5.517372e+01 4.600000e+01 5.000001e+00
      vertex   -7.497579e+01 4.401614e+01 5.000000e+00
      vertex   -7.493232e+01 4.335604e+01 5.000000e+00
    endloop
  endfacet
  facet normal -3.000197e-08 -9.806304e-10 1.000000e+00
    outer loop
      vertex   -5.517372e+01 4.600000e+01 5.000001e+00
      vertex   -7.499740e+01 4.467732e+01 5.000000e+00
      vertex   -7.497579e+01 4.401614e+01 5.000000e+00
    endloop
  endfacet
  facet normal -3.006822e-08 1.214769e-11 1.000000e+00
    outer loop
      vertex   -5.517372e+01 4.600000e+01 5.000001e+00
      vertex   -7.499713e+01 4.533884e+01 5.000000e+00
      vertex   -7.499740e+01 4.467732e+01 5.000000e+00
    endloop
  endfacet
  facet normal -3.010144e-08 1.008230e-09 1.000000e+00
    outer loop
      vertex   -5.517372e+01 4.600000e+01 5.000001e+00
      vertex   -7.497498e+01 4.600000e+01 5.000000e+00
      vertex   -7.499713e+01 4.533884e+01 5.000000e+00
    endloop
  endfacet
  facet normal -6.972974e-09 -3.193019e-08 1.000000e+00
    outer loop
      vertex   -5.958964e+01 2.553374e+01 5.000000e+00
      vertex   -5.894334e+01 2.539260e+01 5.000000e+00
      vertex   -5.163819e+01 4.246447e+01 5.000001e+00
    endloop
  endfacet
  facet normal -5.954158e-09 -3.236614e-08 1.000000e+00
    outer loop
      vertex   -5.163819e+01 4.246447e+01 5.000001e+00
      vertex   -5.894334e+01 2.539260e+01 5.000000e+00
      vertex   -5.829273e+01 2.527291e+01 5.000000e+00
    endloop
  endfacet
  facet normal -4.913996e-09 -3.276877e-08 1.000000e+00
    outer loop
      vertex   -5.763852e+01 2.517481e+01 5.000000e+00
      vertex   -5.163819e+01 4.246447e+01 5.000001e+00
      vertex   -5.829273e+01 2.527291e+01 5.000000e+00
    endloop
  endfacet
  facet normal -3.853567e-09 -3.313679e-08 1.000000e+00
    outer loop
      vertex   -5.763852e+01 2.517481e+01 5.000000e+00
      vertex   -5.698142e+01 2.509839e+01 5.000000e+00
      vertex   -5.163819e+01 4.246447e+01 5.000001e+00
    endloop
  endfacet
  facet normal -2.774032e-09 -3.346894e-08 1.000000e+00
    outer loop
      vertex   -5.163819e+01 4.246447e+01 5.000001e+00
      vertex   -5.698142e+01 2.509839e+01 5.000000e+00
      vertex   -5.632215e+01 2.504375e+01 5.000000e+00
    endloop
  endfacet
  facet normal -1.676640e-09 -3.376400e-08 1.000000e+00
    outer loop
      vertex   -5.566144e+01 2.501094e+01 5.000000e+00
      vertex   -5.163819e+01 4.246447e+01 5.000001e+00
      vertex   -5.632215e+01 2.504375e+01 5.000000e+00
    endloop
  endfacet
  facet normal -5.627193e-10 -3.402078e-08 1.000000e+00
    outer loop
      vertex   -5.566144e+01 2.501094e+01 5.000000e+00
      vertex   -5.500000e+01 2.500000e+01 5.000000e+00
      vertex   -5.163819e+01 4.246447e+01 5.000001e+00
    endloop
  endfacet
  facet normal -8.240963e-08 1.036603e-07 1.000000e+00
    outer loop
      vertex   -5.500000e+01 2.500000e+01 5.000000e+00
      vertex   -5.500000e+01 2.000000e+00 5.000002e+00
      vertex   -1.707791e+01 3.214796e+01 5.000002e+00
    endloop
  endfacet
  facet normal -0.000000e+00 0.000000e+00 1.000000e+00
    outer loop
      vertex   -1.707791e+01 3.214796e+01 5.000002e+00
      vertex   -5.500000e+01 2.000000e+00 5.000002e+00
      vertex   -2.000000e+00 2.000000e+00 5.000002e+00
    endloop
  endfacet
  facet normal -0.000000e+00 0.000000e+00 1.000000e+00
    outer loop
      vertex   -2.077909e+00 3.214796e+01 5.000002e+00
      vertex   -2.000000e+00 2.000000e+00 5.000002e+00
      vertex   -2.000000e+00 4.600000e+01 5.000002e+00
    endloop
  endfacet
  facet normal -0.000000e+00 0.000000e+00 1.000000e+00
    outer loop
      vertex   -2.077909e+00 4.600000e+01 5.000002e+00
      vertex   -2.077909e+00 3.214796e+01 5.000002e+00
      vertex   -2.000000e+00 4.600000e+01 5.000002e+00
    endloop
  endfacet
  facet normal -0.000000e+00 -0.000000e+00 1.000000e+00
    outer loop
      vertex   -1.707791e+01 3.214796e+01 5.000002e+00
      vertex   -2.000000e+00 2.000000e+00 5.000002e+00
      vertex   -2.077909e+00 3.214796e+01 5.000002e+00
    endloop
  endfacet
  facet normal -0.000000e+00 0.000000e+00 1.000000e+00
    outer loop
      vertex   -3.937065e+01 4.953553e+01 5.000001e+00
      vertex   -4.290619e+01 4.600000e+01 5.000001e+00
      vertex   -3.583512e+01 4.600000e+01 5.000001e+00
    endloop
  endfacet
  facet normal 0.000000e+00 -2.838316e-08 1.000000e+00
    outer loop
      vertex   -3.583512e+01 4.600000e+01 5.000001e+00
      vertex   -4.290619e+01 4.600000e+01 5.000001e+00
      vertex   -5.500000e+01 2.500000e+01 5.000000e+00
    endloop
  endfacet
  facet normal 2.734715e-15 1.000000e+00 0.000000e+00
    outer loop
      vertex   -4.290619e+01 4.600000e+01 5.000001e+00
      vertex   -4.290619e+01 4.600000e+01 5.960464e-07
      vertex   -4.810265e+01 4.600000e+01 5.000001e+00
    endloop
  endfacet
  facet normal 2.734715e-15 1.000000e+00 0.000000e+00
    outer loop
      vertex   -4.810265e+01 4.600000e+01 5.000001e+00
      vertex   -4.290619e+01 4.600000e+01 5.960464e-07
      vertex   -4.810265e+01 4.600000e+01 5.960464e-07
    endloop
  endfacet
  facet normal 7.071068e-01 7.071068e-01 -0.000000e+00
    outer loop
      vertex   -5.517372e+01 4.600000e+01 5.960464e-07
      vertex   -5.517372e+01 4.600000e+01 5.000001e+00
      vertex   -5.163819e+01 4.246447e+01 5.960464e-07
    endloop
  endfacet
  facet normal 7.071068e-01 7.071068e-01 0.000000e+00
    outer loop
      vertex   -5.163819e+01 4.246447e+01 5.960464e-07
      vertex   -5.517372e+01 4.600000e+01 5.000001e+00
      vertex   -5.163819e+01 4.246447e+01 5.000001e+00
    endloop
  endfacet
  facet normal -7.071068e-01 7.071068e-01 0.000000e+00
    outer loop
      vertex   -5.163819e+01 4.246447e+01 5.960464e-07
      vertex   -5.163819e+01 4.246447e+01 5.000001e+00
      vertex   -4.810265e+01 4.600000e+01 5.960464e-07
    endloop
  endfacet
  facet normal -7.071068e-01 7.071068e-01 0.000000e+00
    outer loop
      vertex   -4.810265e+01 4.600000e+01 5.960464e-07
      vertex   -5.163819e+01 4.246447e+01 5.000001e+00
      vertex   -4.810265e+01 4.600000e+01 5.000001e+00
    endloop
  endfacet
  facet normal -7.576209e-16 1.000000e+00 0.000000e+00
    outer loop
      vertex   -3.583512e+01 4.600000e+01 5.000001e+00
      vertex   -1.707791e+01 4.600000e+01 5.000002e+00
      vertex   -3.583512e+01 4.600000e+01 5.960464e-07
    endloop
  endfacet
  facet normal -3.965622e-16 1.000000e+00 -1.354490e-15
    outer loop
      vertex   -3.583512e+01 4.600000e+01 5.960464e-07
      vertex   -1.707791e+01 4.600000e+01 5.000002e+00
      vertex   0.000000e+00 4.600000e+01 0.000000e+00
    endloop
  endfacet
  facet normal 0.000000e+00 1.000000e+00 -0.000000e+00
    outer loop
      vertex   0.000000e+00 4.600000e+01 0.000000e+00
      vertex   -1.707791e+01 4.600000e+01 5.000002e+00
      vertex   -2.077909e+00 4.600000e+01 5.000002e+00
    endloop
  endfacet
  facet normal 0.000000e+00 1.000000e+00 0.000000e+00
    outer loop
      vertex   -2.000000e+00 4.600000e+01 5.000002e+00
      vertex   0.000000e+00 4.600000e+01 0.000000e+00
      vertex   -2.077909e+00 4.600000e+01 5.000002e+00
    endloop
  endfacet
  facet normal -0.000000e+00 1.000000e+00 0.000000e+00
    outer loop
      vertex   -2.000000e+00 4.600000e+01 5.000002e+00
      vertex   0.000000e+00 4.600000e+01 3.000000e+01
      vertex   0.000000e+00 4.600000e+01 0.000000e+00
    endloop
  endfacet
  facet normal 0.000000e+00 1.000000e+00 0.000000e+00
    outer loop
      vertex   -2.000000e+00 4.600000e+01 5.000002e+00
      vertex   -2.000000e+00 4.600000e+01 3.000000e+01
      vertex   0.000000e+00 4.600000e+01 3.000000e+01
    endloop
  endfacet
  facet normal -0.000000e+00 1.000000e+00 0.000000e+00
    outer loop
      vertex   -1.707791e+01 4.600000e+01 5.000002e+00
      vertex   -1.707791e+01 4.600000e+01 1.010000e+01
      vertex   -2.077909e+00 4.600000e+01 5.000002e+00
    endloop
  endfacet
  facet normal 0.000000e+00 1.000000e+00 -0.000000e+00
    outer loop
      vertex   -2.077909e+00 4.600000e+01 5.000002e+00
      vertex   -1.707791e+01 4.600000e+01 1.010000e+01
      vertex   -2.077909e+00 4.600000e+01 1.500000e+01
    endloop
  endfacet
  facet normal 0.000000e+00 1.000000e+00 -0.000000e+00
    outer loop
      vertex   -2.077909e+00 4.600000e+01 1.500000e+01
      vertex   -1.707791e+01 4.600000e+01 1.010000e+01
      vertex   -1.707791e+01 4.600000e+01 1.500000e+01
    endloop
  endfacet
  facet normal 0.000000e+00 1.000000e+00 0.000000e+00
    outer loop
      vertex   -1.707791e+01 4.600000e+01 1.500000e+01
      vertex   -1.707791e+01 4.600000e+01 1.010000e+01
      vertex   -2.057791e+01 4.600000e+01 1.010000e+01
    endloop
  endfacet
  facet normal 0.000000e+00 1.000000e+00 0.000000e+00
    outer loop
      vertex   -2.057791e+01 4.600000e+01 1.510000e+01
      vertex   -1.707791e+01 4.600000e+01 1.500000e+01
      vertex   -2.057791e+01 4.600000e+01 1.010000e+01
    endloop
  endfacet
  facet normal -0.000000e+00 1.000000e+00 0.000000e+00
    outer loop
      vertex   -2.057791e+01 4.600000e+01 1.510000e+01
      vertex   -1.707791e+01 4.600000e+01 1.510000e+01
      vertex   -1.707791e+01 4.600000e+01 1.500000e+01
    endloop
  endfacet
  facet normal 0.000000e+00 1.000000e+00 0.000000e+00
    outer loop
      vertex   -5.517372e+01 4.600000e+01 5.000001e+00
      vertex   -5.517372e+01 4.600000e+01 5.960464e-07
      vertex   -7.497498e+01 4.600000e+01 5.000000e+00
    endloop
  endfacet
  facet normal 0.000000e+00 1.000000e+00 0.000000e+00
    outer loop
      vertex   -7.497498e+01 4.600000e+01 5.000000e+00
      vertex   -5.517372e+01 4.600000e+01 5.960464e-07
      vertex   -7.497498e+01 4.600000e+01 0.000000e+00
    endloop
  endfacet
  facet normal -1.663303e-08 -0.000000e+00 -1.000000e+00
    outer loop
      vertex   0.000000e+00 4.600000e+01 0.000000e+00
      vertex   0.000000e+00 0.000000e+00 0.000000e+00
      vertex   -3.583512e+01 4.600000e+01 5.960464e-07
    endloop
  endfacet
  facet normal 9.118757e-09 2.006127e-08 -1.000000e+00
    outer loop
      vertex   -3.583512e+01 4.600000e+01 5.960464e-07
      vertex   0.000000e+00 0.000000e+00 0.000000e+00
      vertex   -5.500000e+01 2.500000e+01 0.000000e+00
    endloop
  endfacet
  facet normal -1.498673e-08 3.701396e-08 -1.000000e+00
    outer loop
      vertex   -4.290619e+01 4.600000e+01 5.960464e-07
      vertex   -5.500000e+01 2.500000e+01 0.000000e+00
      vertex   -5.163819e+01 4.246447e+01 5.960464e-07
    endloop
  endfacet
  facet normal 0.000000e+00 -0.000000e+00 -1.000000e+00
    outer loop
      vertex   -4.810265e+01 4.600000e+01 5.960464e-07
      vertex   -4.290619e+01 4.600000e+01 5.960464e-07
      vertex   -5.163819e+01 4.246447e+01 5.960464e-07
    endloop
  endfacet
  facet normal 0.000000e+00 0.000000e+00 -1.000000e+00
    outer loop
      vertex   0.000000e+00 0.000000e+00 0.000000e+00
      vertex   -5.500000e+01 0.000000e+00 0.000000e+00
      vertex   -5.500000e+01 2.500000e+01 0.000000e+00
    endloop
  endfacet
  facet normal 5.627193e-10 3.402078e-08 -1.000000e+00
    outer loop
      vertex   -5.500000e+01 2.500000e+01 0.000000e+00
      vertex   -5.566144e+01 2.501094e+01 0.000000e+00
      vertex   -5.163819e+01 4.246447e+01 5.960464e-07
    endloop
  endfacet
  facet normal 1.676640e-09 3.376400e-08 -1.000000e+00
    outer loop
      vertex   -5.163819e+01 4.246447e+01 5.960464e-07
      vertex   -5.566144e+01 2.501094e+01 0.000000e+00
      vertex   -5.632215e+01 2.504375e+01 0.000000e+00
    endloop
  endfacet
  facet normal 2.774032e-09 3.346894e-08 -1.000000e+00
    outer loop
      vertex   -5.698142e+01 2.509839e+01 0.000000e+00
      vertex   -5.163819e+01 4.246447e+01 5.960464e-07
      vertex   -5.632215e+01 2.504375e+01 0.000000e+00
    endloop
  endfacet
  facet normal 3.853567e-09 3.313679e-08 -1.000000e+00
    outer loop
      vertex   -5.698142e+01 2.509839e+01 0.000000e+00
      vertex   -5.763852e+01 2.517481e+01 0.000000e+00
      vertex   -5.163819e+01 4.246447e+01 5.960464e-07
    endloop
  endfacet
  facet normal 4.913996e-09 3.276877e-08 -1.000000e+00
    outer loop
      vertex   -5.163819e+01 4.246447e+01 5.960464e-07
      vertex   -5.763852e+01 2.517481e+01 0.000000e+00
      vertex   -5.829273e+01 2.527291e+01 0.000000e+00
    endloop
  endfacet
  facet normal 5.954158e-09 3.236614e-08 -1.000000e+00
    outer loop
      vertex   -5.894334e+01 2.539260e+01 0.000000e+00
      vertex   -5.163819e+01 4.246447e+01 5.960464e-07
      vertex   -5.829273e+01 2.527291e+01 0.000000e+00
    endloop
  endfacet
  facet normal 6.972974e-09 3.193019e-08 -1.000000e+00
    outer loop
      vertex   -5.894334e+01 2.539260e+01 0.000000e+00
      vertex   -5.958964e+01 2.553374e+01 0.000000e+00
      vertex   -5.163819e+01 4.246447e+01 5.960464e-07
    endloop
  endfacet
  facet normal 2.395476e-08 2.395476e-08 -1.000000e+00
    outer loop
      vertex   -5.163819e+01 4.246447e+01 5.960464e-07
      vertex   -5.958964e+01 2.553374e+01 0.000000e+00
      vertex   -5.517372e+01 4.600000e+01 5.960464e-07
    endloop
  endfacet
  facet normal 6.994727e-09 2.761415e-08 -1.000000e+00
    outer loop
      vertex   -5.517372e+01 4.600000e+01 5.960464e-07
      vertex   -5.958964e+01 2.553374e+01 0.000000e+00
      vertex   -6.023091e+01 2.569618e+01 0.000000e+00
    endloop
  endfacet
  facet normal 7.909519e-09 2.738630e-08 -1.000000e+00
    outer loop
      vertex   -6.086646e+01 2.587973e+01 0.000000e+00
      vertex   -5.517372e+01 4.600000e+01 5.960464e-07
      vertex   -6.023091e+01 2.569618e+01 0.000000e+00
    endloop
  endfacet
  facet normal 8.817316e-09 2.712945e-08 -1.000000e+00
    outer loop
      vertex   -6.086646e+01 2.587973e+01 0.000000e+00
      vertex   -6.149560e+01 2.608421e+01 0.000000e+00
      vertex   -5.517372e+01 4.600000e+01 5.960464e-07
    endloop
  endfacet
  facet normal 9.717237e-09 2.684379e-08 -1.000000e+00
    outer loop
      vertex   -5.517372e+01 4.600000e+01 5.960464e-07
      vertex   -6.149560e+01 2.608421e+01 0.000000e+00
      vertex   -6.211763e+01 2.630938e+01 0.000000e+00
    endloop
  endfacet
  facet normal 1.060841e-08 2.652952e-08 -1.000000e+00
    outer loop
      vertex   -6.273187e+01 2.655499e+01 0.000000e+00
      vertex   -5.517372e+01 4.600000e+01 5.960464e-07
      vertex   -6.211763e+01 2.630938e+01 0.000000e+00
    endloop
  endfacet
  facet normal 1.148994e-08 2.618687e-08 -1.000000e+00
    outer loop
      vertex   -6.273187e+01 2.655499e+01 0.000000e+00
      vertex   -6.333765e+01 2.682079e+01 0.000000e+00
      vertex   -5.517372e+01 4.600000e+01 5.960464e-07
    endloop
  endfacet
  facet normal 1.236098e-08 2.581610e-08 -1.000000e+00
    outer loop
      vertex   -5.517372e+01 4.600000e+01 5.960464e-07
      vertex   -6.333765e+01 2.682079e+01 0.000000e+00
      vertex   -6.393431e+01 2.710648e+01 0.000000e+00
    endloop
  endfacet
  facet normal 1.322065e-08 2.541748e-08 -1.000000e+00
    outer loop
      vertex   -6.452119e+01 2.741174e+01 0.000000e+00
      vertex   -5.517372e+01 4.600000e+01 5.960464e-07
      vertex   -6.393431e+01 2.710648e+01 0.000000e+00
    endloop
  endfacet
  facet normal 1.406809e-08 2.499133e-08 -1.000000e+00
    outer loop
      vertex   -6.452119e+01 2.741174e+01 0.000000e+00
      vertex   -6.509766e+01 2.773624e+01 0.000000e+00
      vertex   -5.517372e+01 4.600000e+01 5.960464e-07
    endloop
  endfacet
  facet normal 1.490243e-08 2.453798e-08 -1.000000e+00
    outer loop
      vertex   -5.517372e+01 4.600000e+01 5.960464e-07
      vertex   -6.509766e+01 2.773624e+01 0.000000e+00
      vertex   -6.566308e+01 2.807964e+01 0.000000e+00
    endloop
  endfacet
  facet normal 1.572284e-08 2.405777e-08 -1.000000e+00
    outer loop
      vertex   -6.621684e+01 2.844154e+01 0.000000e+00
      vertex   -5.517372e+01 4.600000e+01 5.960464e-07
      vertex   -6.566308e+01 2.807964e+01 0.000000e+00
    endloop
  endfacet
  facet normal 1.652845e-08 2.355109e-08 -1.000000e+00
    outer loop
      vertex   -6.621684e+01 2.844154e+01 0.000000e+00
      vertex   -6.675832e+01 2.882156e+01 0.000000e+00
      vertex   -5.517372e+01 4.600000e+01 5.960464e-07
    endloop
  endfacet
  facet normal 1.731843e-08 2.301836e-08 -1.000000e+00
    outer loop
      vertex   -5.517372e+01 4.600000e+01 5.960464e-07
      vertex   -6.675832e+01 2.882156e+01 0.000000e+00
      vertex   -6.728694e+01 2.921928e+01 0.000000e+00
    endloop
  endfacet
  facet normal 1.809194e-08 2.245999e-08 -1.000000e+00
    outer loop
      vertex   -6.780212e+01 2.963426e+01 0.000000e+00
      vertex   -5.517372e+01 4.600000e+01 5.960464e-07
      vertex   -6.728694e+01 2.921928e+01 0.000000e+00
    endloop
  endfacet
  facet normal 1.884818e-08 2.187645e-08 -1.000000e+00
    outer loop
      vertex   -6.780212e+01 2.963426e+01 0.000000e+00
      vertex   -6.830329e+01 3.006606e+01 0.000000e+00
      vertex   -5.517372e+01 4.600000e+01 5.960464e-07
    endloop
  endfacet
  facet normal 1.958631e-08 2.126823e-08 -1.000000e+00
    outer loop
      vertex   -5.517372e+01 4.600000e+01 5.960464e-07
      vertex   -6.830329e+01 3.006606e+01 0.000000e+00
      vertex   -6.878990e+01 3.051419e+01 0.000000e+00
    endloop
  endfacet
  facet normal 2.030554e-08 2.063584e-08 -1.000000e+00
    outer loop
      vertex   -6.926143e+01 3.097818e+01 0.000000e+00
      vertex   -5.517372e+01 4.600000e+01 5.960464e-07
      vertex   -6.878990e+01 3.051419e+01 0.000000e+00
    endloop
  endfacet
  facet normal 2.100507e-08 1.997981e-08 -1.000000e+00
    outer loop
      vertex   -6.926143e+01 3.097818e+01 0.000000e+00
      vertex   -6.971736e+01 3.145750e+01 0.000000e+00
      vertex   -5.517372e+01 4.600000e+01 5.960464e-07
    endloop
  endfacet
  facet normal 2.168412e-08 1.930070e-08 -1.000000e+00
    outer loop
      vertex   -5.517372e+01 4.600000e+01 5.960464e-07
      vertex   -6.971736e+01 3.145750e+01 0.000000e+00
      vertex   -7.015718e+01 3.195164e+01 0.000000e+00
    endloop
  endfacet
  facet normal 2.234193e-08 1.859911e-08 -1.000000e+00
    outer loop
      vertex   -7.058043e+01 3.246005e+01 0.000000e+00
      vertex   -5.517372e+01 4.600000e+01 5.960464e-07
      vertex   -7.015718e+01 3.195164e+01 0.000000e+00
    endloop
  endfacet
  facet normal 2.297773e-08 1.787565e-08 -1.000000e+00
    outer loop
      vertex   -7.058043e+01 3.246005e+01 0.000000e+00
      vertex   -7.098662e+01 3.298218e+01 0.000000e+00
      vertex   -5.517372e+01 4.600000e+01 5.960464e-07
    endloop
  endfacet
  facet normal 2.359078e-08 1.713097e-08 -1.000000e+00
    outer loop
      vertex   -5.517372e+01 4.600000e+01 5.960464e-07
      vertex   -7.098662e+01 3.298218e+01 0.000000e+00
      vertex   -7.137533e+01 3.351747e+01 0.000000e+00
    endloop
  endfacet
  facet normal 2.418036e-08 1.636573e-08 -1.000000e+00
    outer loop
      vertex   -7.174612e+01 3.406531e+01 0.000000e+00
      vertex   -5.517372e+01 4.600000e+01 5.960464e-07
      vertex   -7.137533e+01 3.351747e+01 0.000000e+00
    endloop
  endfacet
  facet normal 2.474576e-08 1.558062e-08 -1.000000e+00
    outer loop
      vertex   -7.174612e+01 3.406531e+01 0.000000e+00
      vertex   -7.209859e+01 3.462512e+01 0.000000e+00
      vertex   -5.517372e+01 4.600000e+01 5.960464e-07
    endloop
  endfacet
  facet normal 2.528628e-08 1.477637e-08 -1.000000e+00
    outer loop
      vertex   -5.517372e+01 4.600000e+01 5.960464e-07
      vertex   -7.209859e+01 3.462512e+01 0.000000e+00
      vertex   -7.243235e+01 3.519627e+01 0.000000e+00
    endloop
  endfacet
  facet normal 2.580125e-08 1.395372e-08 -1.000000e+00
    outer loop
      vertex   -7.274705e+01 3.577816e+01 0.000000e+00
      vertex   -5.517372e+01 4.600000e+01 5.960464e-07
      vertex   -7.243235e+01 3.519627e+01 0.000000e+00
    endloop
  endfacet
  facet normal 2.629001e-08 1.311344e-08 -1.000000e+00
    outer loop
      vertex   -7.274705e+01 3.577816e+01 0.000000e+00
      vertex   -7.304232e+01 3.637013e+01 0.000000e+00
      vertex   -5.517372e+01 4.600000e+01 5.960464e-07
    endloop
  endfacet
  facet normal 2.675193e-08 1.225633e-08 -1.000000e+00
    outer loop
      vertex   -5.517372e+01 4.600000e+01 5.960464e-07
      vertex   -7.304232e+01 3.637013e+01 0.000000e+00
      vertex   -7.331786e+01 3.697154e+01 0.000000e+00
    endloop
  endfacet
  facet normal 2.718639e-08 1.138321e-08 -1.000000e+00
    outer loop
      vertex   -7.357335e+01 3.758174e+01 0.000000e+00
      vertex   -5.517372e+01 4.600000e+01 5.960464e-07
      vertex   -7.331786e+01 3.697154e+01 0.000000e+00
    endloop
  endfacet
  facet normal 2.759281e-08 1.049493e-08 -1.000000e+00
    outer loop
      vertex   -7.357335e+01 3.758174e+01 0.000000e+00
      vertex   -7.380853e+01 3.820006e+01 0.000000e+00
      vertex   -5.517372e+01 4.600000e+01 5.960464e-07
    endloop
  endfacet
  facet normal 2.797060e-08 9.592347e-09 -1.000000e+00
    outer loop
      vertex   -5.517372e+01 4.600000e+01 5.960464e-07
      vertex   -7.380853e+01 3.820006e+01 0.000000e+00
      vertex   -7.402313e+01 3.882581e+01 0.000000e+00
    endloop
  endfacet
  facet normal 2.831923e-08 8.676365e-09 -1.000000e+00
    outer loop
      vertex   -7.421691e+01 3.945832e+01 0.000000e+00
      vertex   -5.517372e+01 4.600000e+01 5.960464e-07
      vertex   -7.402313e+01 3.882581e+01 0.000000e+00
    endloop
  endfacet
  facet normal 2.863817e-08 7.747898e-09 -1.000000e+00
    outer loop
      vertex   -7.421691e+01 3.945832e+01 0.000000e+00
      vertex   -7.438967e+01 4.009689e+01 0.000000e+00
      vertex   -5.517372e+01 4.600000e+01 5.960464e-07
    endloop
  endfacet
  facet normal 2.892694e-08 6.807885e-09 -1.000000e+00
    outer loop
      vertex   -5.517372e+01 4.600000e+01 5.960464e-07
      vertex   -7.438967e+01 4.009689e+01 0.000000e+00
      vertex   -7.454122e+01 4.074082e+01 0.000000e+00
    endloop
  endfacet
  facet normal 2.918507e-08 5.857288e-09 -1.000000e+00
    outer loop
      vertex   -7.467139e+01 4.138942e+01 0.000000e+00
      vertex   -5.517372e+01 4.600000e+01 5.960464e-07
      vertex   -7.454122e+01 4.074082e+01 0.000000e+00
    endloop
  endfacet
  facet normal 2.941213e-08 4.897089e-09 -1.000000e+00
    outer loop
      vertex   -7.467139e+01 4.138942e+01 0.000000e+00
      vertex   -7.478004e+01 4.204196e+01 0.000000e+00
      vertex   -5.517372e+01 4.600000e+01 5.960464e-07
    endloop
  endfacet
  facet normal 2.960771e-08 3.928292e-09 -1.000000e+00
    outer loop
      vertex   -5.517372e+01 4.600000e+01 5.960464e-07
      vertex   -7.478004e+01 4.204196e+01 0.000000e+00
      vertex   -7.486705e+01 4.269774e+01 0.000000e+00
    endloop
  endfacet
  facet normal 2.977143e-08 2.951918e-09 -1.000000e+00
    outer loop
      vertex   -7.493232e+01 4.335604e+01 0.000000e+00
      vertex   -5.517372e+01 4.600000e+01 5.960464e-07
      vertex   -7.486705e+01 4.269774e+01 0.000000e+00
    endloop
  endfacet
  facet normal 2.990295e-08 1.969011e-09 -1.000000e+00
    outer loop
      vertex   -7.493232e+01 4.335604e+01 0.000000e+00
      vertex   -7.497579e+01 4.401614e+01 0.000000e+00
      vertex   -5.517372e+01 4.600000e+01 5.960464e-07
    endloop
  endfacet
  facet normal 3.000197e-08 9.806304e-10 -1.000000e+00
    outer loop
      vertex   -5.517372e+01 4.600000e+01 5.960464e-07
      vertex   -7.497579e+01 4.401614e+01 0.000000e+00
      vertex   -7.499740e+01 4.467732e+01 0.000000e+00
    endloop
  endfacet
  facet normal 3.006822e-08 -1.214769e-11 -1.000000e+00
    outer loop
      vertex   -7.499713e+01 4.533884e+01 0.000000e+00
      vertex   -5.517372e+01 4.600000e+01 5.960464e-07
      vertex   -7.499740e+01 4.467732e+01 0.000000e+00
    endloop
  endfacet
  facet normal 3.010144e-08 -1.008230e-09 -1.000000e+00
    outer loop
      vertex   -7.499713e+01 4.533884e+01 0.000000e+00
      vertex   -7.497498e+01 4.600000e+01 0.000000e+00
      vertex   -5.517372e+01 4.600000e+01 5.960464e-07
    endloop
  endfacet
  facet normal -0.000000e+00 -0.000000e+00 -1.000000e+00
    outer loop
      vertex   -3.937065e+01 4.953553e+01 5.960464e-07
      vertex   -3.583512e+01 4.600000e+01 5.960464e-07
      vertex   -4.290619e+01 4.600000e+01 5.960464e-07
    endloop
  endfacet
  facet normal 0.000000e+00 2.838316e-08 -1.000000e+00
    outer loop
      vertex   -4.290619e+01 4.600000e+01 5.960464e-07
      vertex   -3.583512e+01 4.600000e+01 5.960464e-07
      vertex   -5.500000e+01 2.500000e+01 0.000000e+00
    endloop
  endfacet
  facet normal 0.000000e+00 0.000000e+00 1.000000e+00
    outer loop
      vertex   -1.707791e+01 4.600000e+01 1.510000e+01
      vertex   -2.057791e+01 4.600000e+01 1.510000e+01
      vertex   -1.707791e+01 3.214796e+01 1.510000e+01
    endloop
  endfacet
  facet normal 0.000000e+00 0.000000e+00 1.000000e+00
    outer loop
      vertex   -1.707791e+01 3.214796e+01 1.510000e+01
      vertex   -2.057791e+01 4.600000e+01 1.510000e+01
      vertex   -2.057791e+01 3.214796e+01 1.510000e+01
    endloop
  endfacet
  facet normal -1.000000e+00 2.564759e-16 0.000000e+00
    outer loop
      vertex   -2.057791e+01 4.600000e+01 1.510000e+01
      vertex   -2.057791e+01 4.600000e+01 1.010000e+01
      vertex   -2.057791e+01 3.214796e+01 1.510000e+01
    endloop
  endfacet
  facet normal -1.000000e+00 2.564759e-16 0.000000e+00
    outer loop
      vertex   -2.057791e+01 3.214796e+01 1.510000e+01
      vertex   -2.057791e+01 4.600000e+01 1.010000e+01
      vertex   -2.057791e+01 3.214796e+01 1.010000e+01
    endloop
  endfacet
  facet normal -0.000000e+00 0.000000e+00 -1.000000e+00
    outer loop
      vertex   -1.707791e+01 4.600000e+01 1.010000e+01
      vertex   -1.707791e+01 3.214796e+01 1.010000e+01
      vertex   -2.057791e+01 4.600000e+01 1.010000e+01
    endloop
  endfacet
  facet normal -0.000000e+00 -0.000000e+00 -1.000000e+00
    outer loop
      vertex   -2.057791e+01 4.600000e+01 1.010000e+01
      vertex   -1.707791e+01 3.214796e+01 1.010000e+01
      vertex   -2.057791e+01 3.214796e+01 1.010000e+01
    endloop
  endfacet
  facet normal -1.000000e+00 1.721181e-08 0.000000e+00
    outer loop
      vertex   -1.707791e+01 4.600000e+01 1.010000e+01
      vertex   -1.707791e+01 4.600000e+01 5.000002e+00
      vertex   -1.707791e+01 3.214796e+01 1.010000e+01
    endloop
  endfacet
  facet normal -1.000000e+00 -0.000000e+00 -4.674874e-08
    outer loop
      vertex   -1.707791e+01 3.214796e+01 1.010000e+01
      vertex   -1.707791e+01 4.600000e+01 5.000002e+00
      vertex   -1.707791e+01 3.214796e+01 5.000002e+00
    endloop
  endfacet
  facet normal -9.994395e-01 3.347565e-02 0.000000e+00
    outer loop
      vertex   -7.497498e+01 4.600000e+01 0.000000e+00
      vertex   -7.499713e+01 4.533884e+01 0.000000e+00
      vertex   -7.497498e+01 4.600000e+01 5.000000e+00
    endloop
  endfacet
  facet normal -9.994395e-01 3.347565e-02 -4.757176e-17
    outer loop
      vertex   -7.497498e+01 4.600000e+01 5.000000e+00
      vertex   -7.499713e+01 4.533884e+01 0.000000e+00
      vertex   -7.499713e+01 4.533884e+01 5.000000e+00
    endloop
  endfacet
  facet normal -9.999999e-01 4.040042e-04 -5.741245e-19
    outer loop
      vertex   -7.499713e+01 4.533884e+01 5.000000e+00
      vertex   -7.499713e+01 4.533884e+01 0.000000e+00
      vertex   -7.499740e+01 4.467732e+01 0.000000e+00
    endloop
  endfacet
  facet normal -9.994663e-01 -3.266808e-02 4.642414e-17
    outer loop
      vertex   -7.499740e+01 4.467732e+01 5.000000e+00
      vertex   -7.499740e+01 4.467732e+01 0.000000e+00
      vertex   -7.497579e+01 4.401614e+01 0.000000e+00
    endloop
  endfacet
  facet normal -9.978391e-01 -6.570443e-02 1.867432e-16
    outer loop
      vertex   -7.497579e+01 4.401614e+01 5.000000e+00
      vertex   -7.497579e+01 4.401614e+01 0.000000e+00
      vertex   -7.493232e+01 4.335604e+01 0.000000e+00
    endloop
  endfacet
  facet normal -9.951203e-01 -9.866890e-02 1.402169e-16
    outer loop
      vertex   -7.493232e+01 4.335604e+01 5.000000e+00
      vertex   -7.493232e+01 4.335604e+01 0.000000e+00
      vertex   -7.486705e+01 4.269774e+01 0.000000e+00
    endloop
  endfacet
  facet normal -9.913128e-01 -1.315254e-01 1.869089e-16
    outer loop
      vertex   -7.486705e+01 4.269774e+01 5.000000e+00
      vertex   -7.486705e+01 4.269774e+01 0.000000e+00
      vertex   -7.478004e+01 4.204196e+01 0.000000e+00
    endloop
  endfacet
  facet normal -9.864207e-01 -1.642380e-01 2.333963e-16
    outer loop
      vertex   -7.478004e+01 4.204196e+01 5.000000e+00
      vertex   -7.478004e+01 4.204196e+01 0.000000e+00
      vertex   -7.467139e+01 4.138942e+01 0.000000e+00
    endloop
  endfacet
  facet normal -9.804495e-01 -1.967710e-01 -0.000000e+00
    outer loop
      vertex   -7.467139e+01 4.138942e+01 5.000000e+00
      vertex   -7.467139e+01 4.138942e+01 0.000000e+00
      vertex   -7.454122e+01 4.074082e+01 0.000000e+00
    endloop
  endfacet
  facet normal -9.734056e-01 -2.290886e-01 3.255545e-16
    outer loop
      vertex   -7.454122e+01 4.074082e+01 5.000000e+00
      vertex   -7.454122e+01 4.074082e+01 0.000000e+00
      vertex   -7.438967e+01 4.009689e+01 0.000000e+00
    endloop
  endfacet
  facet normal -9.652967e-01 -2.611557e-01 3.711245e-16
    outer loop
      vertex   -7.438967e+01 4.009689e+01 5.000000e+00
      vertex   -7.438967e+01 4.009689e+01 0.000000e+00
      vertex   -7.421691e+01 3.945832e+01 0.000000e+00
    endloop
  endfacet
  facet normal -9.561318e-01 -2.929370e-01 -0.000000e+00
    outer loop
      vertex   -7.421691e+01 3.945832e+01 5.000000e+00
      vertex   -7.421691e+01 3.945832e+01 0.000000e+00
      vertex   -7.402313e+01 3.882581e+01 0.000000e+00
    endloop
  endfacet
  facet normal -9.459208e-01 -3.243978e-01 -0.000000e+00
    outer loop
      vertex   -7.402313e+01 3.882581e+01 5.000000e+00
      vertex   -7.402313e+01 3.882581e+01 0.000000e+00
      vertex   -7.380853e+01 3.820006e+01 0.000000e+00
    endloop
  endfacet
  facet normal -9.346749e-01 -3.555037e-01 -0.000000e+00
    outer loop
      vertex   -7.380853e+01 3.820006e+01 5.000000e+00
      vertex   -7.380853e+01 3.820006e+01 0.000000e+00
      vertex   -7.357335e+01 3.758174e+01 0.000000e+00
    endloop
  endfacet
  facet normal -9.224064e-01 -3.862207e-01 5.488526e-16
    outer loop
      vertex   -7.357335e+01 3.758174e+01 5.000000e+00
      vertex   -7.357335e+01 3.758174e+01 0.000000e+00
      vertex   -7.331786e+01 3.697154e+01 0.000000e+00
    endloop
  endfacet
  facet normal -9.091288e-01 -4.165151e-01 5.919036e-16
    outer loop
      vertex   -7.331786e+01 3.697154e+01 5.000000e+00
      vertex   -7.331786e+01 3.697154e+01 0.000000e+00
      vertex   -7.304232e+01 3.637013e+01 0.000000e+00
    endloop
  endfacet
  facet normal -8.948565e-01 -4.463539e-01 -1.909028e-15
    outer loop
      vertex   -7.304232e+01 3.637013e+01 5.000000e+00
      vertex   -7.304232e+01 3.637013e+01 0.000000e+00
      vertex   -7.274705e+01 3.577816e+01 0.000000e+00
    endloop
  endfacet
  facet normal -8.796053e-01 -4.757043e-01 1.352033e-15
    outer loop
      vertex   -7.274705e+01 3.577816e+01 5.000000e+00
      vertex   -7.274705e+01 3.577816e+01 0.000000e+00
      vertex   -7.243235e+01 3.519627e+01 0.000000e+00
    endloop
  endfacet
  facet normal -8.633917e-01 -5.045342e-01 7.169863e-16
    outer loop
      vertex   -7.243235e+01 3.519627e+01 5.000000e+00
      vertex   -7.243235e+01 3.519627e+01 0.000000e+00
      vertex   -7.209859e+01 3.462512e+01 0.000000e+00
    endloop
  endfacet
  facet normal -8.462335e-01 -5.328122e-01 -1.647969e-15
    outer loop
      vertex   -7.209859e+01 3.462512e+01 5.000000e+00
      vertex   -7.209859e+01 3.462512e+01 0.000000e+00
      vertex   -7.174612e+01 3.406531e+01 0.000000e+00
    endloop
  endfacet
  facet normal -8.281495e-01 -5.605073e-01 7.965288e-16
    outer loop
      vertex   -7.174612e+01 3.406531e+01 5.000000e+00
      vertex   -7.174612e+01 3.406531e+01 0.000000e+00
      vertex   -7.137533e+01 3.351747e+01 0.000000e+00
    endloop
  endfacet
  facet normal -8.091595e-01 -5.875891e-01 8.350144e-16
    outer loop
      vertex   -7.137533e+01 3.351747e+01 5.000000e+00
      vertex   -7.137533e+01 3.351747e+01 0.000000e+00
      vertex   -7.098662e+01 3.298218e+01 0.000000e+00
    endloop
  endfacet
  facet normal -7.892842e-01 -6.140281e-01 8.725864e-16
    outer loop
      vertex   -7.098662e+01 3.298218e+01 5.000000e+00
      vertex   -7.098662e+01 3.298218e+01 0.000000e+00
      vertex   -7.058043e+01 3.246005e+01 0.000000e+00
    endloop
  endfacet
  facet normal -7.685453e-01 -6.397953e-01 9.092039e-16
    outer loop
      vertex   -7.058043e+01 3.246005e+01 5.000000e+00
      vertex   -7.058043e+01 3.246005e+01 0.000000e+00
      vertex   -7.015718e+01 3.195164e+01 0.000000e+00
    endloop
  endfacet
  facet normal -7.469657e-01 -6.648626e-01 -1.650591e-15
    outer loop
      vertex   -7.015718e+01 3.195164e+01 5.000000e+00
      vertex   -7.015718e+01 3.195164e+01 0.000000e+00
      vertex   -6.971736e+01 3.145750e+01 0.000000e+00
    endloop
  endfacet
  facet normal -7.245688e-01 -6.892024e-01 4.897078e-16
    outer loop
      vertex   -6.971736e+01 3.145750e+01 5.000000e+00
      vertex   -6.971736e+01 3.145750e+01 0.000000e+00
      vertex   -6.926143e+01 3.097818e+01 0.000000e+00
    endloop
  endfacet
  facet normal -7.013793e-01 -7.127883e-01 -1.486973e-15
    outer loop
      vertex   -6.926143e+01 3.097818e+01 5.000000e+00
      vertex   -6.926143e+01 3.097818e+01 0.000000e+00
      vertex   -6.878990e+01 3.051419e+01 0.000000e+00
    endloop
  endfacet
  facet normal -6.774224e-01 -7.355943e-01 5.226712e-16
    outer loop
      vertex   -6.878990e+01 3.051419e+01 5.000000e+00
      vertex   -6.878990e+01 3.051419e+01 0.000000e+00
      vertex   -6.830329e+01 3.006606e+01 0.000000e+00
    endloop
  endfacet
  facet normal -6.527243e-01 -7.575955e-01 5.383040e-16
    outer loop
      vertex   -6.830329e+01 3.006606e+01 5.000000e+00
      vertex   -6.830329e+01 3.006606e+01 0.000000e+00
      vertex   -6.780212e+01 2.963426e+01 0.000000e+00
    endloop
  endfacet
  facet normal -6.273122e-01 -7.787679e-01 -1.228847e-16
    outer loop
      vertex   -6.780212e+01 2.963426e+01 5.000000e+00
      vertex   -6.780212e+01 2.963426e+01 0.000000e+00
      vertex   -6.728694e+01 2.921928e+01 0.000000e+00
    endloop
  endfacet
  facet normal -6.012137e-01 -7.990883e-01 -5.731793e-16
    outer loop
      vertex   -6.728694e+01 2.921928e+01 5.000000e+00
      vertex   -6.728694e+01 2.921928e+01 0.000000e+00
      vertex   -6.675832e+01 2.882156e+01 0.000000e+00
    endloop
  endfacet
  facet normal -5.744575e-01 -8.185344e-01 -0.000000e+00
    outer loop
      vertex   -6.675832e+01 2.882156e+01 5.000000e+00
      vertex   -6.675832e+01 2.882156e+01 0.000000e+00
      vertex   -6.621684e+01 2.844154e+01 0.000000e+00
    endloop
  endfacet
  facet normal -5.470728e-01 -8.370851e-01 -9.600896e-16
    outer loop
      vertex   -6.621684e+01 2.844154e+01 5.000000e+00
      vertex   -6.621684e+01 2.844154e+01 0.000000e+00
      vertex   -6.566308e+01 2.807964e+01 0.000000e+00
    endloop
  endfacet
  facet normal -5.190895e-01 -8.547199e-01 1.214630e-15
    outer loop
      vertex   -6.566308e+01 2.807964e+01 5.000000e+00
      vertex   -6.566308e+01 2.807964e+01 0.000000e+00
      vertex   -6.509766e+01 2.773624e+01 5.000000e+00
    endloop
  endfacet
  facet normal -5.470728e-01 -8.370851e-01 1.191572e-15
    outer loop
      vertex   -6.566308e+01 2.807964e+01 5.000000e+00
      vertex   -6.621684e+01 2.844154e+01 5.000000e+00
      vertex   -6.566308e+01 2.807964e+01 0.000000e+00
    endloop
  endfacet
  facet normal -9.999999e-01 4.040042e-04 -5.741245e-19
    outer loop
      vertex   -7.499713e+01 4.533884e+01 5.000000e+00
      vertex   -7.499740e+01 4.467732e+01 0.000000e+00
      vertex   -7.499740e+01 4.467732e+01 5.000000e+00
    endloop
  endfacet
  facet normal -9.994663e-01 -3.266808e-02 9.284828e-17
    outer loop
      vertex   -7.499740e+01 4.467732e+01 5.000000e+00
      vertex   -7.497579e+01 4.401614e+01 0.000000e+00
      vertex   -7.497579e+01 4.401614e+01 5.000000e+00
    endloop
  endfacet
  facet normal -9.978391e-01 -6.570443e-02 9.337161e-17
    outer loop
      vertex   -7.497579e+01 4.401614e+01 5.000000e+00
      vertex   -7.493232e+01 4.335604e+01 0.000000e+00
      vertex   -7.493232e+01 4.335604e+01 5.000000e+00
    endloop
  endfacet
  facet normal -9.951203e-01 -9.866890e-02 1.402169e-16
    outer loop
      vertex   -7.493232e+01 4.335604e+01 5.000000e+00
      vertex   -7.486705e+01 4.269774e+01 0.000000e+00
      vertex   -7.486705e+01 4.269774e+01 5.000000e+00
    endloop
  endfacet
  facet normal -9.913128e-01 -1.315254e-01 1.869089e-16
    outer loop
      vertex   -7.486705e+01 4.269774e+01 5.000000e+00
      vertex   -7.478004e+01 4.204196e+01 0.000000e+00
      vertex   -7.478004e+01 4.204196e+01 5.000000e+00
    endloop
  endfacet
  facet normal -9.864207e-01 -1.642380e-01 0.000000e+00
    outer loop
      vertex   -7.478004e+01 4.204196e+01 5.000000e+00
      vertex   -7.467139e+01 4.138942e+01 0.000000e+00
      vertex   -7.467139e+01 4.138942e+01 5.000000e+00
    endloop
  endfacet
  facet normal -9.804495e-01 -1.967710e-01 2.796284e-16
    outer loop
      vertex   -7.467139e+01 4.138942e+01 5.000000e+00
      vertex   -7.454122e+01 4.074082e+01 0.000000e+00
      vertex   -7.454122e+01 4.074082e+01 5.000000e+00
    endloop
  endfacet
  facet normal -9.734056e-01 -2.290886e-01 3.255545e-16
    outer loop
      vertex   -7.454122e+01 4.074082e+01 5.000000e+00
      vertex   -7.438967e+01 4.009689e+01 0.000000e+00
      vertex   -7.438967e+01 4.009689e+01 5.000000e+00
    endloop
  endfacet
  facet normal -9.652967e-01 -2.611557e-01 0.000000e+00
    outer loop
      vertex   -7.438967e+01 4.009689e+01 5.000000e+00
      vertex   -7.421691e+01 3.945832e+01 0.000000e+00
      vertex   -7.421691e+01 3.945832e+01 5.000000e+00
    endloop
  endfacet
  facet normal -9.561318e-01 -2.929370e-01 0.000000e+00
    outer loop
      vertex   -7.421691e+01 3.945832e+01 5.000000e+00
      vertex   -7.402313e+01 3.882581e+01 0.000000e+00
      vertex   -7.402313e+01 3.882581e+01 5.000000e+00
    endloop
  endfacet
  facet normal -9.459208e-01 -3.243978e-01 0.000000e+00
    outer loop
      vertex   -7.402313e+01 3.882581e+01 5.000000e+00
      vertex   -7.380853e+01 3.820006e+01 0.000000e+00
      vertex   -7.380853e+01 3.820006e+01 5.000000e+00
    endloop
  endfacet
  facet normal -9.346749e-01 -3.555037e-01 5.052011e-16
    outer loop
      vertex   -7.380853e+01 3.820006e+01 5.000000e+00
      vertex   -7.357335e+01 3.758174e+01 0.000000e+00
      vertex   -7.357335e+01 3.758174e+01 5.000000e+00
    endloop
  endfacet
  facet normal -9.224064e-01 -3.862207e-01 5.488526e-16
    outer loop
      vertex   -7.357335e+01 3.758174e+01 5.000000e+00
      vertex   -7.331786e+01 3.697154e+01 0.000000e+00
      vertex   -7.331786e+01 3.697154e+01 5.000000e+00
    endloop
  endfacet
  facet normal -9.091288e-01 -4.165151e-01 -1.991996e-15
    outer loop
      vertex   -7.331786e+01 3.697154e+01 5.000000e+00
      vertex   -7.304232e+01 3.637013e+01 0.000000e+00
      vertex   -7.304232e+01 3.637013e+01 5.000000e+00
    endloop
  endfacet
  facet normal -8.948565e-01 -4.463539e-01 1.268614e-15
    outer loop
      vertex   -7.304232e+01 3.637013e+01 5.000000e+00
      vertex   -7.274705e+01 3.577816e+01 0.000000e+00
      vertex   -7.274705e+01 3.577816e+01 5.000000e+00
    endloop
  endfacet
  facet normal -8.796053e-01 -4.757043e-01 6.760164e-16
    outer loop
      vertex   -7.274705e+01 3.577816e+01 5.000000e+00
      vertex   -7.243235e+01 3.519627e+01 0.000000e+00
      vertex   -7.243235e+01 3.519627e+01 5.000000e+00
    endloop
  endfacet
  facet normal -8.633917e-01 -5.045342e-01 -1.736920e-15
    outer loop
      vertex   -7.243235e+01 3.519627e+01 5.000000e+00
      vertex   -7.209859e+01 3.462512e+01 0.000000e+00
      vertex   -7.209859e+01 3.462512e+01 5.000000e+00
    endloop
  endfacet
  facet normal -8.462335e-01 -5.328122e-01 7.571717e-16
    outer loop
      vertex   -7.209859e+01 3.462512e+01 5.000000e+00
      vertex   -7.174612e+01 3.406531e+01 0.000000e+00
      vertex   -7.174612e+01 3.406531e+01 5.000000e+00
    endloop
  endfacet
  facet normal -8.281495e-01 -5.605073e-01 7.965288e-16
    outer loop
      vertex   -7.174612e+01 3.406531e+01 5.000000e+00
      vertex   -7.137533e+01 3.351747e+01 0.000000e+00
      vertex   -7.137533e+01 3.351747e+01 5.000000e+00
    endloop
  endfacet
  facet normal -8.091595e-01 -5.875891e-01 8.350144e-16
    outer loop
      vertex   -7.137533e+01 3.351747e+01 5.000000e+00
      vertex   -7.098662e+01 3.298218e+01 0.000000e+00
      vertex   -7.098662e+01 3.298218e+01 5.000000e+00
    endloop
  endfacet
  facet normal -7.892842e-01 -6.140281e-01 8.725864e-16
    outer loop
      vertex   -7.098662e+01 3.298218e+01 5.000000e+00
      vertex   -7.058043e+01 3.246005e+01 0.000000e+00
      vertex   -7.058043e+01 3.246005e+01 5.000000e+00
    endloop
  endfacet
  facet normal -7.685453e-01 -6.397953e-01 -1.729735e-15
    outer loop
      vertex   -7.058043e+01 3.246005e+01 5.000000e+00
      vertex   -7.015718e+01 3.195164e+01 0.000000e+00
      vertex   -7.015718e+01 3.195164e+01 5.000000e+00
    endloop
  endfacet
  facet normal -7.469657e-01 -6.648626e-01 4.724133e-16
    outer loop
      vertex   -7.015718e+01 3.195164e+01 5.000000e+00
      vertex   -6.971736e+01 3.145750e+01 0.000000e+00
      vertex   -6.971736e+01 3.145750e+01 5.000000e+00
    endloop
  endfacet
  facet normal -7.245688e-01 -6.892024e-01 -1.569641e-15
    outer loop
      vertex   -6.971736e+01 3.145750e+01 5.000000e+00
      vertex   -6.926143e+01 3.097818e+01 0.000000e+00
      vertex   -6.926143e+01 3.097818e+01 5.000000e+00
    endloop
  endfacet
  facet normal -7.013793e-01 -7.127883e-01 5.064665e-16
    outer loop
      vertex   -6.926143e+01 3.097818e+01 5.000000e+00
      vertex   -6.878990e+01 3.051419e+01 0.000000e+00
      vertex   -6.878990e+01 3.051419e+01 5.000000e+00
    endloop
  endfacet
  facet normal -6.774224e-01 -7.355943e-01 5.226712e-16
    outer loop
      vertex   -6.878990e+01 3.051419e+01 5.000000e+00
      vertex   -6.830329e+01 3.006606e+01 0.000000e+00
      vertex   -6.830329e+01 3.006606e+01 5.000000e+00
    endloop
  endfacet
  facet normal -6.527243e-01 -7.575955e-01 -2.402421e-16
    outer loop
      vertex   -6.830329e+01 3.006606e+01 5.000000e+00
      vertex   -6.780212e+01 2.963426e+01 0.000000e+00
      vertex   -6.780212e+01 2.963426e+01 5.000000e+00
    endloop
  endfacet
  facet normal -6.273122e-01 -7.787679e-01 -6.762326e-16
    outer loop
      vertex   -6.780212e+01 2.963426e+01 5.000000e+00
      vertex   -6.728694e+01 2.921928e+01 0.000000e+00
      vertex   -6.728694e+01 2.921928e+01 5.000000e+00
    endloop
  endfacet
  facet normal -6.012137e-01 -7.990883e-01 0.000000e+00
    outer loop
      vertex   -6.728694e+01 2.921928e+01 5.000000e+00
      vertex   -6.675832e+01 2.882156e+01 0.000000e+00
      vertex   -6.675832e+01 2.882156e+01 5.000000e+00
    endloop
  endfacet
  facet normal -5.744575e-01 -8.185344e-01 -1.051103e-15
    outer loop
      vertex   -6.675832e+01 2.882156e+01 5.000000e+00
      vertex   -6.621684e+01 2.844154e+01 0.000000e+00
      vertex   -6.621684e+01 2.844154e+01 5.000000e+00
    endloop
  endfacet
  facet normal -5.190895e-01 -8.547199e-01 0.000000e+00
    outer loop
      vertex   -6.566308e+01 2.807964e+01 0.000000e+00
      vertex   -6.509766e+01 2.773624e+01 0.000000e+00
      vertex   -6.509766e+01 2.773624e+01 5.000000e+00
    endloop
  endfacet
  facet normal -4.905384e-01 -8.714196e-01 -0.000000e+00
    outer loop
      vertex   -6.509766e+01 2.773624e+01 5.000000e+00
      vertex   -6.509766e+01 2.773624e+01 0.000000e+00
      vertex   -6.452119e+01 2.741174e+01 5.000000e+00
    endloop
  endfacet
  facet normal -4.905384e-01 -8.714196e-01 6.209603e-16
    outer loop
      vertex   -6.452119e+01 2.741174e+01 5.000000e+00
      vertex   -6.509766e+01 2.773624e+01 0.000000e+00
      vertex   -6.452119e+01 2.741174e+01 0.000000e+00
    endloop
  endfacet
  facet normal -4.614506e-01 -8.871659e-01 6.303693e-16
    outer loop
      vertex   -6.393431e+01 2.710648e+01 0.000000e+00
      vertex   -6.452119e+01 2.741174e+01 5.000000e+00
      vertex   -6.452119e+01 2.741174e+01 0.000000e+00
    endloop
  endfacet
  facet normal -4.614506e-01 -8.871659e-01 -2.539142e-17
    outer loop
      vertex   -6.393431e+01 2.710648e+01 0.000000e+00
      vertex   -6.393431e+01 2.710648e+01 5.000000e+00
      vertex   -6.452119e+01 2.741174e+01 5.000000e+00
    endloop
  endfacet
  facet normal -4.318579e-01 -9.019416e-01 2.517406e-17
    outer loop
      vertex   -6.393431e+01 2.710648e+01 0.000000e+00
      vertex   -6.333765e+01 2.682079e+01 0.000000e+00
      vertex   -6.393431e+01 2.710648e+01 5.000000e+00
    endloop
  endfacet
  facet normal -4.318579e-01 -9.019416e-01 2.716107e-17
    outer loop
      vertex   -6.393431e+01 2.710648e+01 5.000000e+00
      vertex   -6.333765e+01 2.682079e+01 0.000000e+00
      vertex   -6.333765e+01 2.682079e+01 5.000000e+00
    endloop
  endfacet
  facet normal -4.017928e-01 -9.157306e-01 7.968385e-17
    outer loop
      vertex   -6.333765e+01 2.682079e+01 5.000000e+00
      vertex   -6.333765e+01 2.682079e+01 0.000000e+00
      vertex   -6.273187e+01 2.655499e+01 0.000000e+00
    endloop
  endfacet
  facet normal -3.712881e-01 -9.285177e-01 1.321194e-16
    outer loop
      vertex   -6.273187e+01 2.655499e+01 5.000000e+00
      vertex   -6.273187e+01 2.655499e+01 0.000000e+00
      vertex   -6.211763e+01 2.630938e+01 0.000000e+00
    endloop
  endfacet
  facet normal -3.403771e-01 -9.402890e-01 -2.992945e-16
    outer loop
      vertex   -6.211763e+01 2.630938e+01 5.000000e+00
      vertex   -6.211763e+01 2.630938e+01 0.000000e+00
      vertex   -6.149560e+01 2.608421e+01 0.000000e+00
    endloop
  endfacet
  facet normal -3.090938e-01 -9.510315e-01 2.364998e-16
    outer loop
      vertex   -6.149560e+01 2.608421e+01 5.000000e+00
      vertex   -6.149560e+01 2.608421e+01 0.000000e+00
      vertex   -6.086646e+01 2.587973e+01 0.000000e+00
    endloop
  endfacet
  facet normal -2.774724e-01 -9.607336e-01 -1.059816e-16
    outer loop
      vertex   -6.086646e+01 2.587973e+01 5.000000e+00
      vertex   -6.086646e+01 2.587973e+01 0.000000e+00
      vertex   -6.023091e+01 2.569618e+01 0.000000e+00
    endloop
  endfacet
  facet normal -2.455473e-01 -9.693846e-01 3.489437e-16
    outer loop
      vertex   -6.023091e+01 2.569618e+01 5.000000e+00
      vertex   -6.023091e+01 2.569618e+01 0.000000e+00
      vertex   -5.958964e+01 2.553374e+01 0.000000e+00
    endloop
  endfacet
  facet normal -2.133536e-01 -9.769750e-01 -0.000000e+00
    outer loop
      vertex   -5.958964e+01 2.553374e+01 5.000000e+00
      vertex   -5.958964e+01 2.553374e+01 0.000000e+00
      vertex   -5.894334e+01 2.539260e+01 0.000000e+00
    endloop
  endfacet
  facet normal -1.809265e-01 -9.834966e-01 -0.000000e+00
    outer loop
      vertex   -5.894334e+01 2.539260e+01 5.000000e+00
      vertex   -5.894334e+01 2.539260e+01 0.000000e+00
      vertex   -5.829273e+01 2.527291e+01 0.000000e+00
    endloop
  endfacet
  facet normal -1.483015e-01 -9.889422e-01 -2.107491e-16
    outer loop
      vertex   -5.829273e+01 2.527291e+01 5.000000e+00
      vertex   -5.829273e+01 2.527291e+01 0.000000e+00
      vertex   -5.763852e+01 2.517481e+01 0.000000e+00
    endloop
  endfacet
  facet normal -1.155142e-01 -9.933058e-01 -0.000000e+00
    outer loop
      vertex   -5.763852e+01 2.517481e+01 5.000000e+00
      vertex   -5.763852e+01 2.517481e+01 0.000000e+00
      vertex   -5.698142e+01 2.509839e+01 0.000000e+00
    endloop
  endfacet
  facet normal -8.260054e-02 -9.965827e-01 -0.000000e+00
    outer loop
      vertex   -5.698142e+01 2.509839e+01 5.000000e+00
      vertex   -5.698142e+01 2.509839e+01 0.000000e+00
      vertex   -5.632215e+01 2.504375e+01 0.000000e+00
    endloop
  endfacet
  facet normal -4.959650e-02 -9.987693e-01 -0.000000e+00
    outer loop
      vertex   -5.632215e+01 2.504375e+01 5.000000e+00
      vertex   -5.632215e+01 2.504375e+01 0.000000e+00
      vertex   -5.566144e+01 2.501094e+01 0.000000e+00
    endloop
  endfacet
  facet normal -1.653820e-02 -9.998632e-01 -0.000000e+00
    outer loop
      vertex   -5.566144e+01 2.501094e+01 5.000000e+00
      vertex   -5.566144e+01 2.501094e+01 0.000000e+00
      vertex   -5.500000e+01 2.500000e+01 0.000000e+00
    endloop
  endfacet
  facet normal -1.653820e-02 -9.998632e-01 0.000000e+00
    outer loop
      vertex   -5.500000e+01 2.500000e+01 5.000000e+00
      vertex   -5.566144e+01 2.501094e+01 5.000000e+00
      vertex   -5.500000e+01 2.500000e+01 0.000000e+00
    endloop
  endfacet
  facet normal -4.017928e-01 -9.157306e-01 7.968385e-17
    outer loop
      vertex   -6.333765e+01 2.682079e+01 5.000000e+00
      vertex   -6.273187e+01 2.655499e+01 0.000000e+00
      vertex   -6.273187e+01 2.655499e+01 5.000000e+00
    endloop
  endfacet
  facet normal -3.712881e-01 -9.285177e-01 -3.955126e-16
    outer loop
      vertex   -6.273187e+01 2.655499e+01 5.000000e+00
      vertex   -6.211763e+01 2.630938e+01 0.000000e+00
      vertex   -6.211763e+01 2.630938e+01 5.000000e+00
    endloop
  endfacet
  facet normal -3.403771e-01 -9.402890e-01 1.844105e-16
    outer loop
      vertex   -6.211763e+01 2.630938e+01 5.000000e+00
      vertex   -6.149560e+01 2.608421e+01 0.000000e+00
      vertex   -6.149560e+01 2.608421e+01 5.000000e+00
    endloop
  endfacet
  facet normal -3.090938e-01 -9.510315e-01 -2.027490e-16
    outer loop
      vertex   -6.149560e+01 2.608421e+01 5.000000e+00
      vertex   -6.086646e+01 2.587973e+01 0.000000e+00
      vertex   -6.086646e+01 2.587973e+01 5.000000e+00
    endloop
  endfacet
  facet normal -2.774724e-01 -9.607336e-01 3.943119e-16
    outer loop
      vertex   -6.086646e+01 2.587973e+01 5.000000e+00
      vertex   -6.023091e+01 2.569618e+01 0.000000e+00
      vertex   -6.023091e+01 2.569618e+01 5.000000e+00
    endloop
  endfacet
  facet normal -2.455473e-01 -9.693846e-01 0.000000e+00
    outer loop
      vertex   -6.023091e+01 2.569618e+01 5.000000e+00
      vertex   -5.958964e+01 2.553374e+01 0.000000e+00
      vertex   -5.958964e+01 2.553374e+01 5.000000e+00
    endloop
  endfacet
  facet normal -2.133536e-01 -9.769750e-01 0.000000e+00
    outer loop
      vertex   -5.958964e+01 2.553374e+01 5.000000e+00
      vertex   -5.894334e+01 2.539260e+01 0.000000e+00
      vertex   -5.894334e+01 2.539260e+01 5.000000e+00
    endloop
  endfacet
  facet normal -1.809265e-01 -9.834966e-01 -2.571121e-16
    outer loop
      vertex   -5.894334e+01 2.539260e+01 5.000000e+00
      vertex   -5.829273e+01 2.527291e+01 0.000000e+00
      vertex   -5.829273e+01 2.527291e+01 5.000000e+00
    endloop
  endfacet
  facet normal -1.483015e-01 -9.889422e-01 0.000000e+00
    outer loop
      vertex   -5.829273e+01 2.527291e+01 5.000000e+00
      vertex   -5.763852e+01 2.517481e+01 0.000000e+00
      vertex   -5.763852e+01 2.517481e+01 5.000000e+00
    endloop
  endfacet
  facet normal -1.155142e-01 -9.933058e-01 0.000000e+00
    outer loop
      vertex   -5.763852e+01 2.517481e+01 5.000000e+00
      vertex   -5.698142e+01 2.509839e+01 0.000000e+00
      vertex   -5.698142e+01 2.509839e+01 5.000000e+00
    endloop
  endfacet
  facet normal -8.260054e-02 -9.965827e-01 0.000000e+00
    outer loop
      vertex   -5.698142e+01 2.509839e+01 5.000000e+00
      vertex   -5.632215e+01 2.504375e+01 0.000000e+00
      vertex   -5.632215e+01 2.504375e+01 5.000000e+00
    endloop
  endfacet
  facet normal -4.959650e-02 -9.987693e-01 0.000000e+00
    outer loop
      vertex   -5.632215e+01 2.504375e+01 5.000000e+00
      vertex   -5.566144e+01 2.501094e+01 0.000000e+00
      vertex   -5.566144e+01 2.501094e+01 5.000000e+00
    endloop
  endfacet
  facet normal -1.000000e+00 -0.000000e+00 -0.000000e+00
    outer loop
      vertex   -5.500000e+01 2.500000e+01 5.000000e+00
      vertex   -5.500000e+01 2.500000e+01 0.000000e+00
      vertex   -5.500000e+01 2.000000e+00 5.000002e+00
    endloop
  endfacet
  facet normal -1.000000e+00 -0.000000e+00 -0.000000e+00
    outer loop
      vertex   -5.500000e+01 2.000000e+00 5.000002e+00
      vertex   -5.500000e+01 2.500000e+01 0.000000e+00
      vertex   -5.500000e+01 0.000000e+00 0.000000e+00
    endloop
  endfacet
  facet normal -1.000000e+00 0.000000e+00 -0.000000e+00
    outer loop
      vertex   -5.500000e+01 0.000000e+00 6.000002e+00
      vertex   -5.500000e+01 2.000000e+00 5.000002e+00
      vertex   -5.500000e+01 0.000000e+00 0.000000e+00
    endloop
  endfacet
  facet normal -1.000000e+00 0.000000e+00 0.000000e+00
    outer loop
      vertex   -5.500000e+01 0.000000e+00 6.000002e+00
      vertex   -5.500000e+01 2.000000e+00 6.000002e+00
      vertex   -5.500000e+01 2.000000e+00 5.000002e+00
    endloop
  endfacet
  facet normal -1.000000e+00 0.000000e+00 0.000000e+00
    outer loop
      vertex   -5.500000e+01 0.000000e+00 1.800000e+01
      vertex   -5.500000e+01 0.000000e+00 3.000000e+01
      vertex   -5.500000e+01 2.000000e+00 1.800000e+01
    endloop
  endfacet
  facet normal -1.000000e+00 0.000000e+00 0.000000e+00
    outer loop
      vertex   -5.500000e+01 2.000000e+00 1.800000e+01
      vertex   -5.500000e+01 0.000000e+00 3.000000e+01
      vertex   -5.500000e+01 2.000000e+00 3.000000e+01
    endloop
  endfacet
  facet normal 0.000000e+00 5.418604e-08 1.000000e+00
    outer loop
      vertex   -2.000000e+00 4.600000e+01 3.000000e+01
      vertex   -2.000000e+00 2.000000e+00 3.000000e+01
      vertex   0.000000e+00 4.600000e+01 3.000000e+01
    endloop
  endfacet
  facet normal 1.192093e-06 0.000000e+00 1.000000e+00
    outer loop
      vertex   0.000000e+00 4.600000e+01 3.000000e+01
      vertex   -2.000000e+00 2.000000e+00 3.000000e+01
      vertex   0.000000e+00 0.000000e+00 3.000000e+01
    endloop
  endfacet
  facet normal -1.203122e-09 -1.193296e-06 1.000000e+00
    outer loop
      vertex   0.000000e+00 0.000000e+00 3.000000e+01
      vertex   -2.000000e+00 2.000000e+00 3.000000e+01
      vertex   -4.254289e+01 4.289322e-02 3.000000e+01
    endloop
  endfacet
  facet normal -1.471302e-28 -8.282693e-14 1.000000e+00
    outer loop
      vertex   -5.500000e+01 0.000000e+00 3.000000e+01
      vertex   -4.254289e+01 4.289322e-02 3.000000e+01
      vertex   -5.254289e+01 4.289322e-02 3.000000e+01
    endloop
  endfacet
  facet normal -1.445893e-15 0.000000e+00 1.000000e+00
    outer loop
      vertex   -5.500000e+01 2.000000e+00 3.000000e+01
      vertex   -5.254289e+01 4.289322e-02 3.000000e+01
      vertex   -5.254289e+01 2.000000e+00 3.000000e+01
    endloop
  endfacet
  facet normal -1.445893e-15 0.000000e+00 1.000000e+00
    outer loop
      vertex   -5.500000e+01 2.000000e+00 3.000000e+01
      vertex   -5.500000e+01 0.000000e+00 3.000000e+01
      vertex   -5.254289e+01 4.289322e-02 3.000000e+01
    endloop
  endfacet
  facet normal -5.880650e-08 0.000000e+00 1.000000e+00
    outer loop
      vertex   -2.000000e+00 2.000000e+00 3.000000e+01
      vertex   -4.254289e+01 2.000000e+00 3.000000e+01
      vertex   -4.254289e+01 4.289322e-02 3.000000e+01
    endloop
  endfacet
  facet normal 0.000000e+00 -8.282693e-14 1.000000e+00
    outer loop
      vertex   0.000000e+00 0.000000e+00 3.000000e+01
      vertex   -4.254289e+01 4.289322e-02 3.000000e+01
      vertex   -5.500000e+01 0.000000e+00 3.000000e+01
    endloop
  endfacet
  facet normal -0.000000e+00 1.000000e+00 0.000000e+00
    outer loop
      vertex   -5.500000e+01 2.000000e+00 3.000000e+01
      vertex   -5.254289e+01 2.000000e+00 3.000000e+01
      vertex   -5.500000e+01 2.000000e+00 1.800000e+01
    endloop
  endfacet
  facet normal 0.000000e+00 1.000000e+00 0.000000e+00
    outer loop
      vertex   -5.500000e+01 2.000000e+00 1.800000e+01
      vertex   -5.254289e+01 2.000000e+00 3.000000e+01
      vertex   -4.254289e+01 2.000000e+00 3.000000e+01
    endloop
  endfacet
  facet normal 0.000000e+00 1.000000e+00 -0.000000e+00
    outer loop
      vertex   -3.700000e+01 2.000000e+00 1.800000e+01
      vertex   -4.254289e+01 2.000000e+00 3.000000e+01
      vertex   -2.000000e+00 2.000000e+00 3.000000e+01
    endloop
  endfacet
  facet normal 0.000000e+00 1.000000e+00 -0.000000e+00
    outer loop
      vertex   -2.000000e+00 2.000000e+00 5.000002e+00
      vertex   -3.700000e+01 2.000000e+00 1.800000e+01
      vertex   -2.000000e+00 2.000000e+00 3.000000e+01
    endloop
  endfacet
  facet normal 0.000000e+00 1.000000e+00 -0.000000e+00
    outer loop
      vertex   -2.000000e+00 2.000000e+00 5.000002e+00
      vertex   -3.700000e+01 2.000000e+00 6.000002e+00
      vertex   -3.700000e+01 2.000000e+00 1.800000e+01
    endloop
  endfacet
  facet normal 0.000000e+00 1.000000e+00 -0.000000e+00
    outer loop
      vertex   -2.000000e+00 2.000000e+00 5.000002e+00
      vertex   -5.500000e+01 2.000000e+00 5.000002e+00
      vertex   -3.700000e+01 2.000000e+00 6.000002e+00
    endloop
  endfacet
  facet normal 0.000000e+00 1.000000e+00 -0.000000e+00
    outer loop
      vertex   -3.700000e+01 2.000000e+00 6.000002e+00
      vertex   -5.500000e+01 2.000000e+00 5.000002e+00
      vertex   -5.500000e+01 2.000000e+00 6.000002e+00
    endloop
  endfacet
  facet normal -0.000000e+00 1.000000e+00 0.000000e+00
    outer loop
      vertex   -5.500000e+01 2.000000e+00 1.800000e+01
      vertex   -4.254289e+01 2.000000e+00 3.000000e+01
      vertex   -3.700000e+01 2.000000e+00 1.800000e+01
    endloop
  endfacet
  facet normal 0.000000e+00 -0.000000e+00 1.000000e+00
    outer loop
      vertex   -5.500000e+01 0.000000e+00 6.000002e+00
      vertex   -3.700000e+01 0.000000e+00 6.000002e+00
      vertex   -5.500000e+01 2.000000e+00 6.000002e+00
    endloop
  endfacet
  facet normal -0.000000e+00 0.000000e+00 1.000000e+00
    outer loop
      vertex   -5.500000e+01 2.000000e+00 6.000002e+00
      vertex   -3.700000e+01 0.000000e+00 6.000002e+00
      vertex   -3.700000e+01 2.000000e+00 6.000002e+00
    endloop
  endfacet
  facet normal 0.000000e+00 0.000000e+00 -1.000000e+00
    outer loop
      vertex   -4.254289e+01 2.000000e+00 3.000000e+01
      vertex   -5.254289e+01 2.000000e+00 3.000000e+01
      vertex   -4.254289e+01 2.042893e+00 3.000000e+01
    endloop
  endfacet
  facet normal -0.000000e+00 0.000000e+00 -1.000000e+00
    outer loop
      vertex   -4.254289e+01 2.042893e+00 3.000000e+01
      vertex   -5.254289e+01 2.000000e+00 3.000000e+01
      vertex   -5.254289e+01 2.042893e+00 3.000000e+01
    endloop
  endfacet
  facet normal 1.262307e-15 7.071068e-01 -7.071068e-01
    outer loop
      vertex   -5.254289e+01 2.042893e+00 3.258579e+01
      vertex   -5.254289e+01 2.957107e+00 3.350000e+01
      vertex   -4.254289e+01 2.042893e+00 3.258579e+01
    endloop
  endfacet
  facet normal 0.000000e+00 7.071068e-01 -7.071068e-01
    outer loop
      vertex   -4.254289e+01 2.042893e+00 3.258579e+01
      vertex   -5.254289e+01 2.957107e+00 3.350000e+01
      vertex   -4.254289e+01 2.957107e+00 3.350000e+01
    endloop
  endfacet
  facet normal 1.262307e-15 7.071068e-01 7.071068e-01
    outer loop
      vertex   -4.254289e+01 2.042893e+00 3.441421e+01
      vertex   -4.254289e+01 2.957107e+00 3.350000e+01
      vertex   -5.254289e+01 2.042893e+00 3.441421e+01
    endloop
  endfacet
  facet normal 0.000000e+00 7.071068e-01 7.071068e-01
    outer loop
      vertex   -5.254289e+01 2.042893e+00 3.441421e+01
      vertex   -4.254289e+01 2.957107e+00 3.350000e+01
      vertex   -5.254289e+01 2.957107e+00 3.350000e+01
    endloop
  endfacet
  facet normal 1.776357e-15 1.000000e+00 0.000000e+00
    outer loop
      vertex   -4.254289e+01 2.042893e+00 3.258579e+01
      vertex   -4.254289e+01 2.042893e+00 3.000000e+01
      vertex   -5.254289e+01 2.042893e+00 3.258579e+01
    endloop
  endfacet
  facet normal 1.776357e-15 1.000000e+00 0.000000e+00
    outer loop
      vertex   -5.254289e+01 2.042893e+00 3.258579e+01
      vertex   -4.254289e+01 2.042893e+00 3.000000e+01
      vertex   -5.254289e+01 2.042893e+00 3.000000e+01
    endloop
  endfacet
  facet normal 1.776357e-15 1.000000e+00 -0.000000e+00
    outer loop
      vertex   -5.254289e+01 2.042893e+00 3.441421e+01
      vertex   -5.254289e+01 2.042893e+00 3.500000e+01
      vertex   -4.254289e+01 2.042893e+00 3.441421e+01
    endloop
  endfacet
  facet normal 1.776357e-15 1.000000e+00 0.000000e+00
    outer loop
      vertex   -4.254289e+01 2.042893e+00 3.441421e+01
      vertex   -5.254289e+01 2.042893e+00 3.500000e+01
      vertex   -4.254289e+01 2.042893e+00 3.500000e+01
    endloop
  endfacet
  facet normal -1.000000e+00 0.000000e+00 0.000000e+00
    outer loop
      vertex   -5.254289e+01 2.042893e+00 3.000000e+01
      vertex   -5.254289e+01 2.000000e+00 3.000000e+01
      vertex   -5.254289e+01 2.042893e+00 3.258579e+01
    endloop
  endfacet
  facet normal -1.000000e+00 -0.000000e+00 0.000000e+00
    outer loop
      vertex   -5.254289e+01 2.042893e+00 3.258579e+01
      vertex   -5.254289e+01 2.000000e+00 3.000000e+01
      vertex   -5.254289e+01 4.289322e-02 3.000000e+01
    endloop
  endfacet
  facet normal -1.000000e+00 0.000000e+00 -0.000000e+00
    outer loop
      vertex   -5.254289e+01 4.289322e-02 3.500000e+01
      vertex   -5.254289e+01 2.042893e+00 3.258579e+01
      vertex   -5.254289e+01 4.289322e-02 3.000000e+01
    endloop
  endfacet
  facet normal -1.000000e+00 0.000000e+00 0.000000e+00
    outer loop
      vertex   -5.254289e+01 4.289322e-02 3.500000e+01
      vertex   -5.254289e+01 2.042893e+00 3.441421e+01
      vertex   -5.254289e+01 2.042893e+00 3.258579e+01
    endloop
  endfacet
  facet normal -1.000000e+00 0.000000e+00 0.000000e+00
    outer loop
      vertex   -5.254289e+01 4.289322e-02 3.500000e+01
      vertex   -5.254289e+01 2.042893e+00 3.500000e+01
      vertex   -5.254289e+01 2.042893e+00 3.441421e+01
    endloop
  endfacet
  facet normal -1.000000e+00 0.000000e+00 -0.000000e+00
    outer loop
      vertex   -5.254289e+01 2.042893e+00 3.441421e+01
      vertex   -5.254289e+01 2.957107e+00 3.350000e+01
      vertex   -5.254289e+01 2.042893e+00 3.258579e+01
    endloop
  endfacet
  facet normal -0.000000e+00 0.000000e+00 1.000000e+00
    outer loop
      vertex   -5.254289e+01 2.042893e+00 3.500000e+01
      vertex   -5.254289e+01 4.289322e-02 3.500000e+01
      vertex   -4.254289e+01 2.042893e+00 3.500000e+01
    endloop
  endfacet
  facet normal 0.000000e+00 0.000000e+00 1.000000e+00
    outer loop
      vertex   -4.254289e+01 2.042893e+00 3.500000e+01
      vertex   -5.254289e+01 4.289322e-02 3.500000e+01
      vertex   -4.254289e+01 4.289322e-02 3.500000e+01
    endloop
  endfacet
  facet normal 1.000000e+00 0.000000e+00 0.000000e+00
    outer loop
      vertex   -4.254289e+01 2.042893e+00 3.500000e+01
      vertex   -4.254289e+01 4.289322e-02 3.500000e+01
      vertex   -4.254289e+01 2.042893e+00 3.441421e+01
    endloop
  endfacet
  facet normal 1.000000e+00 0.000000e+00 0.000000e+00
    outer loop
      vertex   -4.254289e+01 2.042893e+00 3.441421e+01
      vertex   -4.254289e+01 4.289322e-02 3.500000e+01
      vertex   -4.254289e+01 2.042893e+00 3.258579e+01
    endloop
  endfacet
  facet normal 1.000000e+00 0.000000e+00 0.000000e+00
    outer loop
      vertex   -4.254289e+01 2.957107e+00 3.350000e+01
      vertex   -4.254289e+01 2.042893e+00 3.441421e+01
      vertex   -4.254289e+01 2.042893e+00 3.258579e+01
    endloop
  endfacet
  facet normal 1.000000e+00 -0.000000e+00 0.000000e+00
    outer loop
      vertex   -4.254289e+01 4.289322e-02 3.500000e+01
      vertex   -4.254289e+01 4.289322e-02 3.000000e+01
      vertex   -4.254289e+01 2.042893e+00 3.258579e+01
    endloop
  endfacet
  facet normal 1.000000e+00 -0.000000e+00 0.000000e+00
    outer loop
      vertex   -4.254289e+01 2.042893e+00 3.258579e+01
      vertex   -4.254289e+01 4.289322e-02 3.000000e+01
      vertex   -4.254289e+01 2.000000e+00 3.000000e+01
    endloop
  endfacet
  facet normal 1.000000e+00 0.000000e+00 -0.000000e+00
    outer loop
      vertex   -4.254289e+01 2.042893e+00 3.000000e+01
      vertex   -4.254289e+01 2.042893e+00 3.258579e+01
      vertex   -4.254289e+01 2.000000e+00 3.000000e+01
    endloop
  endfacet
  facet normal -1.776357e-15 -1.000000e+00 -0.000000e+00
    outer loop
      vertex   -5.254289e+01 4.289322e-02 3.500000e+01
      vertex   -5.254289e+01 4.289322e-02 3.000000e+01
      vertex   -4.254289e+01 4.289322e-02 3.500000e+01
    endloop
  endfacet
  facet normal -1.776357e-15 -1.000000e+00 0.000000e+00
    outer loop
      vertex   -4.254289e+01 4.289322e-02 3.500000e+01
      vertex   -5.254289e+01 4.289322e-02 3.000000e+01
      vertex   -4.254289e+01 4.289322e-02 3.000000e+01
    endloop
  endfacet
  facet normal 0.000000e+00 -0.000000e+00 -1.000000e+00
    outer loop
      vertex   -5.500000e+01 2.000000e+00 1.800000e+01
      vertex   -3.700000e+01 2.000000e+00 1.800000e+01
      vertex   -5.500000e+01 0.000000e+00 1.800000e+01
    endloop
  endfacet
  facet normal 0.000000e+00 0.000000e+00 -1.000000e+00
    outer loop
      vertex   -5.500000e+01 0.000000e+00 1.800000e+01
      vertex   -3.700000e+01 2.000000e+00 1.800000e+01
      vertex   -3.700000e+01 0.000000e+00 1.800000e+01
    endloop
  endfacet
  facet normal -1.000000e+00 -0.000000e+00 -0.000000e+00
    outer loop
      vertex   -3.700000e+01 2.000000e+00 1.800000e+01
      vertex   -3.700000e+01 2.000000e+00 6.000002e+00
      vertex   -3.700000e+01 0.000000e+00 1.800000e+01
    endloop
  endfacet
  facet normal -1.000000e+00 -0.000000e+00 -0.000000e+00
    outer loop
      vertex   -3.700000e+01 0.000000e+00 1.800000e+01
      vertex   -3.700000e+01 2.000000e+00 6.000002e+00
      vertex   -3.700000e+01 0.000000e+00 6.000002e+00
    endloop
  endfacet
  facet normal 1.000000e+00 0.000000e+00 2.384186e-06
    outer loop
      vertex   -1.707791e+01 4.600000e+01 1.510000e+01
      vertex   -1.707791e+01 3.214796e+01 1.510000e+01
      vertex   -1.707791e+01 4.600000e+01 1.500000e+01
    endloop
  endfacet
  facet normal 1.000000e+00 0.000000e+00 2.384186e-06
    outer loop
      vertex   -1.707791e+01 4.600000e+01 1.500000e+01
      vertex   -1.707791e+01 3.214796e+01 1.510000e+01
      vertex   -1.707791e+01 3.214796e+01 1.500000e+01
    endloop
  endfacet
  facet normal 0.000000e+00 0.000000e+00 1.000000e+00
    outer loop
      vertex   -2.077909e+00 4.600000e+01 1.500000e+01
      vertex   -1.707791e+01 4.600000e+01 1.500000e+01
      vertex   -2.077909e+00 3.214796e+01 1.500000e+01
    endloop
  endfacet
  facet normal 0.000000e+00 0.000000e+00 1.000000e+00
    outer loop
      vertex   -2.077909e+00 3.214796e+01 1.500000e+01
      vertex   -1.707791e+01 4.600000e+01 1.500000e+01
      vertex   -1.707791e+01 3.214796e+01 1.500000e+01
    endloop
  endfacet
  facet normal 0.000000e+00 -1.000000e+00 0.000000e+00
    outer loop
      vertex   -1.707791e+01 3.214796e+01 5.000002e+00
      vertex   -2.077909e+00 3.214796e+01 5.000002e+00
      vertex   -1.707791e+01 3.214796e+01 1.010000e+01
    endloop
  endfacet
  facet normal 0.000000e+00 -1.000000e+00 0.000000e+00
    outer loop
      vertex   -1.707791e+01 3.214796e+01 1.010000e+01
      vertex   -2.077909e+00 3.214796e+01 5.000002e+00
      vertex   -2.077909e+00 3.214796e+01 1.500000e+01
    endloop
  endfacet
  facet normal 0.000000e+00 -1.000000e+00 -0.000000e+00
    outer loop
      vertex   -1.707791e+01 3.214796e+01 1.500000e+01
      vertex   -1.707791e+01 3.214796e+01 1.010000e+01
      vertex   -2.077909e+00 3.214796e+01 1.500000e+01
    endloop
  endfacet
  facet normal 0.000000e+00 -1.000000e+00 -0.000000e+00
    outer loop
      vertex   -1.707791e+01 3.214796e+01 1.500000e+01
      vertex   -2.057791e+01 3.214796e+01 1.010000e+01
      vertex   -1.707791e+01 3.214796e+01 1.010000e+01
    endloop
  endfacet
  facet normal -0.000000e+00 -1.000000e+00 -0.000000e+00
    outer loop
      vertex   -1.707791e+01 3.214796e+01 1.500000e+01
      vertex   -2.057791e+01 3.214796e+01 1.510000e+01
      vertex   -2.057791e+01 3.214796e+01 1.010000e+01
    endloop
  endfacet
  facet normal 0.000000e+00 -1.000000e+00 0.000000e+00
    outer loop
      vertex   -1.707791e+01 3.214796e+01 1.500000e+01
      vertex   -1.707791e+01 3.214796e+01 1.510000e+01
      vertex   -2.057791e+01 3.214796e+01 1.510000e+01
    endloop
  endfacet
  facet normal 1.000000e+00 0.000000e+00 -0.000000e+00
    outer loop
      vertex   -2.077909e+00 4.600000e+01 5.000002e+00
      vertex   -2.077909e+00 4.600000e+01 1.500000e+01
      vertex   -2.077909e+00 3.214796e+01 5.000002e+00
    endloop
  endfacet
  facet normal 1.000000e+00 0.000000e+00 -0.000000e+00
    outer loop
      vertex   -2.077909e+00 3.214796e+01 5.000002e+00
      vertex   -2.077909e+00 4.600000e+01 1.500000e+01
      vertex   -2.077909e+00 3.214796e+01 1.500000e+01
    endloop
  endfacet
  facet normal -1.000000e+00 0.000000e+00 0.000000e+00
    outer loop
      vertex   -2.000000e+00 4.600000e+01 5.000002e+00
      vertex   -2.000000e+00 2.000000e+00 5.000002e+00
      vertex   -2.000000e+00 4.600000e+01 3.000000e+01
    endloop
  endfacet
  facet normal -1.000000e+00 -0.000000e+00 0.000000e+00
    outer loop
      vertex   -2.000000e+00 4.600000e+01 3.000000e+01
      vertex   -2.000000e+00 2.000000e+00 5.000002e+00
      vertex   -2.000000e+00 2.000000e+00 3.000000e+01
    endloop
  endfacet
  facet normal 0.000000e+00 -1.000000e+00 0.000000e+00
    outer loop
      vertex   -5.500000e+01 0.000000e+00 1.800000e+01
      vertex   -3.700000e+01 0.000000e+00 1.800000e+01
      vertex   -5.500000e+01 0.000000e+00 3.000000e+01
    endloop
  endfacet
  facet normal 0.000000e+00 -1.000000e+00 0.000000e+00
    outer loop
      vertex   -5.500000e+01 0.000000e+00 3.000000e+01
      vertex   -3.700000e+01 0.000000e+00 1.800000e+01
      vertex   0.000000e+00 0.000000e+00 3.000000e+01
    endloop
  endfacet
  facet normal 0.000000e+00 -1.000000e+00 -0.000000e+00
    outer loop
      vertex   0.000000e+00 0.000000e+00 3.000000e+01
      vertex   -3.700000e+01 0.000000e+00 1.800000e+01
      vertex   0.000000e+00 0.000000e+00 0.000000e+00
    endloop
  endfacet
  facet normal -0.000000e+00 -1.000000e+00 -0.000000e+00
    outer loop
      vertex   0.000000e+00 0.000000e+00 0.000000e+00
      vertex   -3.700000e+01 0.000000e+00 1.800000e+01
      vertex   -3.700000e+01 0.000000e+00 6.000002e+00
    endloop
  endfacet
  facet normal 0.000000e+00 -1.000000e+00 0.000000e+00
    outer loop
      vertex   -5.500000e+01 0.000000e+00 0.000000e+00
      vertex   -3.700000e+01 0.000000e+00 6.000002e+00
      vertex   -5.500000e+01 0.000000e+00 6.000002e+00
    endloop
  endfacet
  facet normal 0.000000e+00 -1.000000e+00 0.000000e+00
    outer loop
      vertex   -5.500000e+01 0.000000e+00 0.000000e+00
      vertex   0.000000e+00 0.000000e+00 0.000000e+00
      vertex   -3.700000e+01 0.000000e+00 6.000002e+00
    endloop
  endfacet
  facet normal 1.000000e+00 0.000000e+00 -0.000000e+00
    outer loop
      vertex   0.000000e+00 4.600000e+01 0.000000e+00
      vertex   0.000000e+00 4.600000e+01 3.000000e+01
      vertex   0.000000e+00 0.000000e+00 0.000000e+00
    endloop
  endfacet
  facet normal 1.000000e+00 0.000000e+00 -0.000000e+00
    outer loop
      vertex   0.000000e+00 0.000000e+00 0.000000e+00
      vertex   0.000000e+00 4.600000e+01 3.000000e+01
      vertex   0.000000e+00 0.000000e+00 3.000000e+01
    endloop
  endfacet
endsolid
