solid ascii
  facet normal 0.000000e+000 0.000000e+000 1.000000e+000
    outer loop
      vertex   -8.000000e+001 5.500000e+001 7.000000e+000
      vertex   -9.000000e+001 5.500000e+001 7.000000e+000
      vertex   -8.000000e+001 4.500000e+001 7.000000e+000
    endloop
  endfacet
  facet normal 0.000000e+000 0.000000e+000 1.000000e+000
    outer loop
      vertex   -8.000000e+001 4.500000e+001 7.000000e+000
      vertex   -9.000000e+001 5.500000e+001 7.000000e+000
      vertex   -9.000000e+001 4.500000e+001 7.000000e+000
    endloop
  endfacet
  facet normal -0.000000e+000 1.000000e+000 0.000000e+000
    outer loop
      vertex   -9.000000e+001 4.500000e+001 7.000000e+000
      vertex   -9.000000e+001 4.500000e+001 1.400000e+001
      vertex   -8.000000e+001 4.500000e+001 7.000000e+000
    endloop
  endfacet
  facet normal 0.000000e+000 1.000000e+000 -0.000000e+000
    outer loop
      vertex   -8.000000e+001 4.500000e+001 7.000000e+000
      vertex   -9.000000e+001 4.500000e+001 1.400000e+001
      vertex   -8.000000e+001 4.500000e+001 1.400000e+001
    endloop
  endfacet
  facet normal -0.000000e+000 -1.000000e+000 0.000000e+000
    outer loop
      vertex   -8.000000e+001 5.500000e+001 7.000000e+000
      vertex   -8.000000e+001 5.500000e+001 1.400000e+001
      vertex   -9.000000e+001 5.500000e+001 7.000000e+000
    endloop
  endfacet
  facet normal 0.000000e+000 -1.000000e+000 0.000000e+000
    outer loop
      vertex   -9.000000e+001 5.500000e+001 7.000000e+000
      vertex   -8.000000e+001 5.500000e+001 1.400000e+001
      vertex   -9.000000e+001 5.500000e+001 1.400000e+001
    endloop
  endfacet
  facet normal -1.000000e+000 -3.157968e-016 -0.000000e+000
    outer loop
      vertex   -9.000000e+001 4.500000e+001 1.400000e+001
      vertex   -9.000000e+001 4.500000e+001 7.000000e+000
      vertex   -9.000000e+001 -8.881784e-015 1.400000e+001
    endloop
  endfacet
  facet normal -1.000000e+000 -3.157968e-016 0.000000e+000
    outer loop
      vertex   -9.000000e+001 -8.881784e-015 1.400000e+001
      vertex   -9.000000e+001 4.500000e+001 7.000000e+000
      vertex   -9.000000e+001 -8.881784e-015 0.000000e+000
    endloop
  endfacet
  facet normal -1.000000e+000 0.000000e+000 -2.030122e-015
    outer loop
      vertex   -9.000000e+001 -8.881784e-015 0.000000e+000
      vertex   -9.000000e+001 4.500000e+001 7.000000e+000
      vertex   -9.000000e+001 4.250000e+001 0.000000e+000
    endloop
  endfacet
  facet normal -1.000000e+000 0.000000e+000 -2.030122e-015
    outer loop
      vertex   -9.000000e+001 4.250000e+001 0.000000e+000
      vertex   -9.000000e+001 4.500000e+001 7.000000e+000
      vertex   -9.000000e+001 5.500000e+001 7.000000e+000
    endloop
  endfacet
  facet normal -1.000000e+000 0.000000e+000 0.000000e+000
    outer loop
      vertex   -9.000000e+001 8.500000e+001 0.000000e+000
      vertex   -9.000000e+001 5.500000e+001 7.000000e+000
      vertex   -9.000000e+001 8.500000e+001 1.400000e+001
    endloop
  endfacet
  facet normal -1.000000e+000 0.000000e+000 0.000000e+000
    outer loop
      vertex   -9.000000e+001 1.150000e+002 7.000000e+000
      vertex   -9.000000e+001 8.500000e+001 1.400000e+001
      vertex   -9.000000e+001 1.150000e+002 1.400000e+001
    endloop
  endfacet
  facet normal -1.000000e+000 -0.000000e+000 0.000000e+000
    outer loop
      vertex   -9.000000e+001 1.150000e+002 7.000000e+000
      vertex   -9.000000e+001 8.500000e+001 0.000000e+000
      vertex   -9.000000e+001 8.500000e+001 1.400000e+001
    endloop
  endfacet
  facet normal -1.000000e+000 -3.343731e-016 1.433027e-015
    outer loop
      vertex   -9.000000e+001 1.150000e+002 7.000000e+000
      vertex   -9.000000e+001 1.275000e+002 0.000000e+000
      vertex   -9.000000e+001 8.500000e+001 0.000000e+000
    endloop
  endfacet
  facet normal -1.000000e+000 0.000000e+000 2.030122e-015
    outer loop
      vertex   -9.000000e+001 1.150000e+002 7.000000e+000
      vertex   -9.000000e+001 1.250000e+002 7.000000e+000
      vertex   -9.000000e+001 1.275000e+002 0.000000e+000
    endloop
  endfacet
  facet normal -1.000000e+000 0.000000e+000 2.030122e-015
    outer loop
      vertex   -9.000000e+001 1.275000e+002 0.000000e+000
      vertex   -9.000000e+001 1.250000e+002 7.000000e+000
      vertex   -9.000000e+001 1.700000e+002 0.000000e+000
    endloop
  endfacet
  facet normal -1.000000e+000 -3.157968e-016 0.000000e+000
    outer loop
      vertex   -9.000000e+001 1.700000e+002 0.000000e+000
      vertex   -9.000000e+001 1.250000e+002 7.000000e+000
      vertex   -9.000000e+001 1.700000e+002 1.400000e+001
    endloop
  endfacet
  facet normal -1.000000e+000 -3.157968e-016 0.000000e+000
    outer loop
      vertex   -9.000000e+001 1.700000e+002 1.400000e+001
      vertex   -9.000000e+001 1.250000e+002 7.000000e+000
      vertex   -9.000000e+001 1.250000e+002 1.400000e+001
    endloop
  endfacet
  facet normal -1.000000e+000 0.000000e+000 0.000000e+000
    outer loop
      vertex   -9.000000e+001 5.500000e+001 7.000000e+000
      vertex   -9.000000e+001 5.500000e+001 1.400000e+001
      vertex   -9.000000e+001 8.500000e+001 1.400000e+001
    endloop
  endfacet
  facet normal -1.000000e+000 -3.343731e-016 -1.433027e-015
    outer loop
      vertex   -9.000000e+001 8.500000e+001 0.000000e+000
      vertex   -9.000000e+001 4.250000e+001 0.000000e+000
      vertex   -9.000000e+001 5.500000e+001 7.000000e+000
    endloop
  endfacet
  facet normal 0.000000e+000 -0.000000e+000 1.000000e+000
    outer loop
      vertex   -8.000000e+001 5.500000e+001 1.400000e+001
      vertex   -8.000000e+001 8.500000e+001 1.400000e+001
      vertex   -9.000000e+001 5.500000e+001 1.400000e+001
    endloop
  endfacet
  facet normal 0.000000e+000 -0.000000e+000 1.000000e+000
    outer loop
      vertex   -9.000000e+001 5.500000e+001 1.400000e+001
      vertex   -8.000000e+001 8.500000e+001 1.400000e+001
      vertex   -9.000000e+001 8.500000e+001 1.400000e+001
    endloop
  endfacet
  facet normal 0.000000e+000 0.000000e+000 1.000000e+000
    outer loop
      vertex   -9.000000e+001 8.500000e+001 1.400000e+001
      vertex   -8.000000e+001 8.500000e+001 1.400000e+001
      vertex   -8.000000e+001 1.150000e+002 1.400000e+001
    endloop
  endfacet
  facet normal -0.000000e+000 0.000000e+000 1.000000e+000
    outer loop
      vertex   -9.000000e+001 1.150000e+002 1.400000e+001
      vertex   -9.000000e+001 8.500000e+001 1.400000e+001
      vertex   -8.000000e+001 1.150000e+002 1.400000e+001
    endloop
  endfacet
  facet normal 0.000000e+000 0.000000e+000 1.000000e+000
    outer loop
      vertex   -8.000000e+001 1.250000e+002 7.000000e+000
      vertex   -9.000000e+001 1.250000e+002 7.000000e+000
      vertex   -8.000000e+001 1.150000e+002 7.000000e+000
    endloop
  endfacet
  facet normal 0.000000e+000 0.000000e+000 1.000000e+000
    outer loop
      vertex   -8.000000e+001 1.150000e+002 7.000000e+000
      vertex   -9.000000e+001 1.250000e+002 7.000000e+000
      vertex   -9.000000e+001 1.150000e+002 7.000000e+000
    endloop
  endfacet
  facet normal -0.000000e+000 1.000000e+000 0.000000e+000
    outer loop
      vertex   -9.000000e+001 1.150000e+002 7.000000e+000
      vertex   -9.000000e+001 1.150000e+002 1.400000e+001
      vertex   -8.000000e+001 1.150000e+002 7.000000e+000
    endloop
  endfacet
  facet normal 0.000000e+000 1.000000e+000 -0.000000e+000
    outer loop
      vertex   -8.000000e+001 1.150000e+002 7.000000e+000
      vertex   -9.000000e+001 1.150000e+002 1.400000e+001
      vertex   -8.000000e+001 1.150000e+002 1.400000e+001
    endloop
  endfacet
  facet normal -0.000000e+000 -1.000000e+000 0.000000e+000
    outer loop
      vertex   -8.000000e+001 1.250000e+002 7.000000e+000
      vertex   -8.000000e+001 1.250000e+002 1.400000e+001
      vertex   -9.000000e+001 1.250000e+002 7.000000e+000
    endloop
  endfacet
  facet normal 0.000000e+000 -1.000000e+000 0.000000e+000
    outer loop
      vertex   -9.000000e+001 1.250000e+002 7.000000e+000
      vertex   -8.000000e+001 1.250000e+002 1.400000e+001
      vertex   -9.000000e+001 1.250000e+002 1.400000e+001
    endloop
  endfacet
  facet normal 0.000000e+000 0.000000e+000 1.000000e+000
    outer loop
      vertex   -8.000000e+001 1.250000e+002 1.400000e+001
      vertex   -8.000000e+001 1.700000e+002 1.400000e+001
      vertex   -9.000000e+001 1.250000e+002 1.400000e+001
    endloop
  endfacet
  facet normal 0.000000e+000 -0.000000e+000 1.000000e+000
    outer loop
      vertex   -9.000000e+001 1.250000e+002 1.400000e+001
      vertex   -8.000000e+001 1.700000e+002 1.400000e+001
      vertex   -9.000000e+001 1.700000e+002 1.400000e+001
    endloop
  endfacet
  facet normal -0.000000e+000 0.000000e+000 1.000000e+000
    outer loop
      vertex   -9.000000e+001 4.500000e+001 1.400000e+001
      vertex   -9.000000e+001 -8.881784e-015 1.400000e+001
      vertex   -8.000000e+001 4.500000e+001 1.400000e+001
    endloop
  endfacet
  facet normal -0.000000e+000 0.000000e+000 1.000000e+000
    outer loop
      vertex   -8.000000e+001 4.500000e+001 1.400000e+001
      vertex   -9.000000e+001 -8.881784e-015 1.400000e+001
      vertex   -8.000000e+001 -4.440892e-015 1.400000e+001
    endloop
  endfacet
  facet normal 0.000000e+000 0.000000e+000 -1.000000e+000
    outer loop
      vertex   -9.000000e+001 -8.881784e-015 0.000000e+000
      vertex   -9.000000e+001 4.250000e+001 0.000000e+000
      vertex   -8.000000e+001 -4.440892e-015 0.000000e+000
    endloop
  endfacet
  facet normal 0.000000e+000 0.000000e+000 -1.000000e+000
    outer loop
      vertex   -8.000000e+001 -4.440892e-015 0.000000e+000
      vertex   -9.000000e+001 4.250000e+001 0.000000e+000
      vertex   -8.000000e+001 4.250000e+001 0.000000e+000
    endloop
  endfacet
  facet normal 0.000000e+000 0.000000e+000 -1.000000e+000
    outer loop
      vertex   -8.000000e+001 4.250000e+001 0.000000e+000
      vertex   -9.000000e+001 4.250000e+001 0.000000e+000
      vertex   -9.000000e+001 8.500000e+001 0.000000e+000
    endloop
  endfacet
  facet normal 0.000000e+000 0.000000e+000 -1.000000e+000
    outer loop
      vertex   -8.000000e+001 8.500000e+001 0.000000e+000
      vertex   -9.000000e+001 8.500000e+001 0.000000e+000
      vertex   -9.000000e+001 1.275000e+002 0.000000e+000
    endloop
  endfacet
  facet normal 0.000000e+000 0.000000e+000 -1.000000e+000
    outer loop
      vertex   -8.000000e+001 1.275000e+002 0.000000e+000
      vertex   -9.000000e+001 1.275000e+002 0.000000e+000
      vertex   -9.000000e+001 1.700000e+002 0.000000e+000
    endloop
  endfacet
  facet normal -0.000000e+000 -0.000000e+000 -1.000000e+000
    outer loop
      vertex   -8.000000e+001 1.700000e+002 0.000000e+000
      vertex   -8.000000e+001 1.275000e+002 0.000000e+000
      vertex   -9.000000e+001 1.700000e+002 0.000000e+000
    endloop
  endfacet
  facet normal 0.000000e+000 0.000000e+000 -1.000000e+000
    outer loop
      vertex   -8.000000e+001 4.250000e+001 0.000000e+000
      vertex   -9.000000e+001 8.500000e+001 0.000000e+000
      vertex   -8.000000e+001 8.500000e+001 0.000000e+000
    endloop
  endfacet
  facet normal 0.000000e+000 0.000000e+000 -1.000000e+000
    outer loop
      vertex   -8.000000e+001 8.500000e+001 0.000000e+000
      vertex   -9.000000e+001 1.275000e+002 0.000000e+000
      vertex   -8.000000e+001 1.275000e+002 0.000000e+000
    endloop
  endfacet
  facet normal 0.000000e+000 1.000000e+000 0.000000e+000
    outer loop
      vertex   -8.000000e+001 1.700000e+002 1.400000e+001
      vertex   -8.000000e+001 1.700000e+002 0.000000e+000
      vertex   -9.000000e+001 1.700000e+002 1.400000e+001
    endloop
  endfacet
  facet normal 0.000000e+000 1.000000e+000 0.000000e+000
    outer loop
      vertex   -9.000000e+001 1.700000e+002 1.400000e+001
      vertex   -8.000000e+001 1.700000e+002 0.000000e+000
      vertex   -9.000000e+001 1.700000e+002 0.000000e+000
    endloop
  endfacet
  facet normal 1.000000e+000 3.157968e-016 0.000000e+000
    outer loop
      vertex   -8.000000e+001 4.500000e+001 1.400000e+001
      vertex   -8.000000e+001 -4.440892e-015 1.400000e+001
      vertex   -8.000000e+001 4.500000e+001 7.000000e+000
    endloop
  endfacet
  facet normal 1.000000e+000 3.157968e-016 0.000000e+000
    outer loop
      vertex   -8.000000e+001 4.500000e+001 7.000000e+000
      vertex   -8.000000e+001 -4.440892e-015 1.400000e+001
      vertex   -8.000000e+001 -4.440892e-015 0.000000e+000
    endloop
  endfacet
  facet normal 1.000000e+000 0.000000e+000 2.030122e-015
    outer loop
      vertex   -8.000000e+001 4.250000e+001 0.000000e+000
      vertex   -8.000000e+001 4.500000e+001 7.000000e+000
      vertex   -8.000000e+001 -4.440892e-015 0.000000e+000
    endloop
  endfacet
  facet normal 1.000000e+000 0.000000e+000 2.030122e-015
    outer loop
      vertex   -8.000000e+001 4.250000e+001 0.000000e+000
      vertex   -8.000000e+001 5.500000e+001 7.000000e+000
      vertex   -8.000000e+001 4.500000e+001 7.000000e+000
    endloop
  endfacet
  facet normal 1.000000e+000 3.343731e-016 1.433027e-015
    outer loop
      vertex   -8.000000e+001 4.250000e+001 0.000000e+000
      vertex   -8.000000e+001 8.500000e+001 0.000000e+000
      vertex   -8.000000e+001 5.500000e+001 7.000000e+000
    endloop
  endfacet
  facet normal 1.000000e+000 -0.000000e+000 0.000000e+000
    outer loop
      vertex   -8.000000e+001 5.500000e+001 7.000000e+000
      vertex   -8.000000e+001 8.500000e+001 0.000000e+000
      vertex   -8.000000e+001 8.500000e+001 1.400000e+001
    endloop
  endfacet
  facet normal 1.000000e+000 -0.000000e+000 0.000000e+000
    outer loop
      vertex   -8.000000e+001 5.500000e+001 1.400000e+001
      vertex   -8.000000e+001 5.500000e+001 7.000000e+000
      vertex   -8.000000e+001 8.500000e+001 1.400000e+001
    endloop
  endfacet
  facet normal 1.000000e+000 -0.000000e+000 0.000000e+000
    outer loop
      vertex   -8.000000e+001 8.500000e+001 1.400000e+001
      vertex   -8.000000e+001 8.500000e+001 0.000000e+000
      vertex   -8.000000e+001 1.150000e+002 7.000000e+000
    endloop
  endfacet
  facet normal 1.000000e+000 0.000000e+000 0.000000e+000
    outer loop
      vertex   -8.000000e+001 1.150000e+002 1.400000e+001
      vertex   -8.000000e+001 8.500000e+001 1.400000e+001
      vertex   -8.000000e+001 1.150000e+002 7.000000e+000
    endloop
  endfacet
  facet normal 1.000000e+000 0.000000e+000 -2.030122e-015
    outer loop
      vertex   -8.000000e+001 1.700000e+002 0.000000e+000
      vertex   -8.000000e+001 1.250000e+002 7.000000e+000
      vertex   -8.000000e+001 1.275000e+002 0.000000e+000
    endloop
  endfacet
  facet normal 1.000000e+000 3.157968e-016 -0.000000e+000
    outer loop
      vertex   -8.000000e+001 1.700000e+002 0.000000e+000
      vertex   -8.000000e+001 1.700000e+002 1.400000e+001
      vertex   -8.000000e+001 1.250000e+002 7.000000e+000
    endloop
  endfacet
  facet normal 1.000000e+000 3.157968e-016 0.000000e+000
    outer loop
      vertex   -8.000000e+001 1.250000e+002 7.000000e+000
      vertex   -8.000000e+001 1.700000e+002 1.400000e+001
      vertex   -8.000000e+001 1.250000e+002 1.400000e+001
    endloop
  endfacet
  facet normal 1.000000e+000 0.000000e+000 -2.030122e-015
    outer loop
      vertex   -8.000000e+001 1.250000e+002 7.000000e+000
      vertex   -8.000000e+001 1.150000e+002 7.000000e+000
      vertex   -8.000000e+001 1.275000e+002 0.000000e+000
    endloop
  endfacet
  facet normal 1.000000e+000 3.343731e-016 -1.433027e-015
    outer loop
      vertex   -8.000000e+001 1.275000e+002 0.000000e+000
      vertex   -8.000000e+001 1.150000e+002 7.000000e+000
      vertex   -8.000000e+001 8.500000e+001 0.000000e+000
    endloop
  endfacet
  facet normal 4.440892e-016 -1.000000e+000 0.000000e+000
    outer loop
      vertex   -9.000000e+001 -8.881784e-015 1.400000e+001
      vertex   -9.000000e+001 -8.881784e-015 0.000000e+000
      vertex   -8.000000e+001 -4.440892e-015 1.400000e+001
    endloop
  endfacet
  facet normal 4.440892e-016 -1.000000e+000 0.000000e+000
    outer loop
      vertex   -8.000000e+001 -4.440892e-015 1.400000e+001
      vertex   -9.000000e+001 -8.881784e-015 0.000000e+000
      vertex   -8.000000e+001 -4.440892e-015 0.000000e+000
    endloop
  endfacet
endsolid
solid ascii
  facet normal -8.881784e-017 2.524355e-031 1.000000e+000
    outer loop
      vertex   -6.000000e+001 8.000000e+001 7.000000e+000
      vertex   -6.000000e+001 9.000000e+001 7.000000e+000
      vertex   -7.000000e+001 8.000000e+001 7.000000e+000
    endloop
  endfacet
  facet normal -8.881784e-017 2.524355e-031 1.000000e+000
    outer loop
      vertex   -7.000000e+001 8.000000e+001 7.000000e+000
      vertex   -6.000000e+001 9.000000e+001 7.000000e+000
      vertex   -7.000000e+001 9.000000e+001 7.000000e+000
    endloop
  endfacet
  facet normal 1.421085e-015 -1.000000e+000 0.000000e+000
    outer loop
      vertex   -7.000000e+001 9.000000e+001 1.400000e+001
      vertex   -7.000000e+001 9.000000e+001 7.000000e+000
      vertex   -6.000000e+001 9.000000e+001 1.400000e+001
    endloop
  endfacet
  facet normal 1.421085e-015 -1.000000e+000 0.000000e+000
    outer loop
      vertex   -6.000000e+001 9.000000e+001 1.400000e+001
      vertex   -7.000000e+001 9.000000e+001 7.000000e+000
      vertex   -6.000000e+001 9.000000e+001 7.000000e+000
    endloop
  endfacet
  facet normal -1.421085e-015 1.000000e+000 0.000000e+000
    outer loop
      vertex   -6.000000e+001 8.000000e+001 1.400000e+001
      vertex   -6.000000e+001 8.000000e+001 7.000000e+000
      vertex   -7.000000e+001 8.000000e+001 1.400000e+001
    endloop
  endfacet
  facet normal -1.421085e-015 1.000000e+000 0.000000e+000
    outer loop
      vertex   -7.000000e+001 8.000000e+001 1.400000e+001
      vertex   -6.000000e+001 8.000000e+001 7.000000e+000
      vertex   -7.000000e+001 8.000000e+001 7.000000e+000
    endloop
  endfacet
  facet normal 1.000000e+000 1.776357e-016 0.000000e+000
    outer loop
      vertex   -6.000000e+001 9.000000e+001 1.400000e+001
      vertex   -6.000000e+001 9.000000e+001 7.000000e+000
      vertex   -6.000000e+001 1.300000e+002 1.400000e+001
    endloop
  endfacet
  facet normal 1.000000e+000 1.833659e-016 -3.274390e-017
    outer loop
      vertex   -6.000000e+001 1.300000e+002 1.400000e+001
      vertex   -6.000000e+001 9.000000e+001 7.000000e+000
      vertex   -6.000000e+001 1.275000e+002 0.000000e+000
    endloop
  endfacet
  facet normal 1.000000e+000 5.015596e-016 -8.956421e-017
    outer loop
      vertex   -6.000000e+001 1.700000e+002 0.000000e+000
      vertex   -6.000000e+001 1.300000e+002 1.400000e+001
      vertex   -6.000000e+001 1.275000e+002 0.000000e+000
    endloop
  endfacet
  facet normal 1.000000e+000 5.329071e-016 -0.000000e+000
    outer loop
      vertex   -6.000000e+001 1.700000e+002 0.000000e+000
      vertex   -6.000000e+001 1.700000e+002 1.400000e+001
      vertex   -6.000000e+001 1.300000e+002 1.400000e+001
    endloop
  endfacet
  facet normal 1.000000e+000 1.671865e-016 -1.194189e-016
    outer loop
      vertex   -6.000000e+001 1.275000e+002 0.000000e+000
      vertex   -6.000000e+001 9.000000e+001 7.000000e+000
      vertex   -6.000000e+001 8.500000e+001 0.000000e+000
    endloop
  endfacet
  facet normal 1.000000e+000 -2.842171e-015 2.030122e-015
    outer loop
      vertex   -6.000000e+001 8.500000e+001 0.000000e+000
      vertex   -6.000000e+001 9.000000e+001 7.000000e+000
      vertex   -6.000000e+001 8.000000e+001 7.000000e+000
    endloop
  endfacet
  facet normal 1.000000e+000 9.168293e-016 1.637195e-016
    outer loop
      vertex   -6.000000e+001 4.250000e+001 0.000000e+000
      vertex   -6.000000e+001 8.000000e+001 7.000000e+000
      vertex   -6.000000e+001 4.000000e+001 1.400000e+001
    endloop
  endfacet
  facet normal 1.000000e+000 -1.776357e-016 0.000000e+000
    outer loop
      vertex   -6.000000e+001 -4.440892e-015 0.000000e+000
      vertex   -6.000000e+001 4.000000e+001 1.400000e+001
      vertex   -6.000000e+001 -4.440892e-015 1.400000e+001
    endloop
  endfacet
  facet normal 1.000000e+000 -1.671865e-016 -2.985474e-017
    outer loop
      vertex   -6.000000e+001 -4.440892e-015 0.000000e+000
      vertex   -6.000000e+001 4.250000e+001 0.000000e+000
      vertex   -6.000000e+001 4.000000e+001 1.400000e+001
    endloop
  endfacet
  facet normal 1.000000e+000 8.881784e-016 -0.000000e+000
    outer loop
      vertex   -6.000000e+001 8.000000e+001 7.000000e+000
      vertex   -6.000000e+001 8.000000e+001 1.400000e+001
      vertex   -6.000000e+001 4.000000e+001 1.400000e+001
    endloop
  endfacet
  facet normal 1.000000e+000 1.671865e-016 4.179663e-015
    outer loop
      vertex   -6.000000e+001 4.250000e+001 0.000000e+000
      vertex   -6.000000e+001 8.500000e+001 0.000000e+000
      vertex   -6.000000e+001 8.000000e+001 7.000000e+000
    endloop
  endfacet
  facet normal -3.552714e-016 -3.786532e-031 1.000000e+000
    outer loop
      vertex   -7.000000e+001 8.000000e+001 1.400000e+001
      vertex   -7.000000e+001 4.000000e+001 1.400000e+001
      vertex   -6.000000e+001 8.000000e+001 1.400000e+001
    endloop
  endfacet
  facet normal -3.552714e-016 -3.155444e-031 1.000000e+000
    outer loop
      vertex   -6.000000e+001 8.000000e+001 1.400000e+001
      vertex   -7.000000e+001 4.000000e+001 1.400000e+001
      vertex   -6.000000e+001 4.000000e+001 1.400000e+001
    endloop
  endfacet
  facet normal -3.552714e-016 1.262177e-031 1.000000e+000
    outer loop
      vertex   -6.000000e+001 4.000000e+001 1.400000e+001
      vertex   -7.000000e+001 4.000000e+001 1.400000e+001
      vertex   -7.000000e+001 -8.881784e-015 1.400000e+001
    endloop
  endfacet
  facet normal -3.552714e-016 6.310887e-032 1.000000e+000
    outer loop
      vertex   -6.000000e+001 -4.440892e-015 1.400000e+001
      vertex   -6.000000e+001 4.000000e+001 1.400000e+001
      vertex   -7.000000e+001 -8.881784e-015 1.400000e+001
    endloop
  endfacet
  facet normal -1.000000e+000 -1.065814e-015 -0.000000e+000
    outer loop
      vertex   -7.000000e+001 8.000000e+001 1.400000e+001
      vertex   -7.000000e+001 8.000000e+001 7.000000e+000
      vertex   -7.000000e+001 4.000000e+001 1.400000e+001
    endloop
  endfacet
  facet normal -1.000000e+000 -1.100195e-015 -1.964634e-016
    outer loop
      vertex   -7.000000e+001 4.000000e+001 1.400000e+001
      vertex   -7.000000e+001 8.000000e+001 7.000000e+000
      vertex   -7.000000e+001 4.250000e+001 -2.220446e-015
    endloop
  endfacet
  facet normal -1.000000e+000 3.343731e-016 5.970947e-017
    outer loop
      vertex   -7.000000e+001 -8.881784e-015 -2.220446e-015
      vertex   -7.000000e+001 4.000000e+001 1.400000e+001
      vertex   -7.000000e+001 4.250000e+001 -2.220446e-015
    endloop
  endfacet
  facet normal -1.000000e+000 3.552714e-016 0.000000e+000
    outer loop
      vertex   -7.000000e+001 -8.881784e-015 -2.220446e-015
      vertex   -7.000000e+001 -8.881784e-015 1.400000e+001
      vertex   -7.000000e+001 4.000000e+001 1.400000e+001
    endloop
  endfacet
  facet normal -1.000000e+000 -3.343731e-016 -4.299082e-015
    outer loop
      vertex   -7.000000e+001 4.250000e+001 -2.220446e-015
      vertex   -7.000000e+001 8.000000e+001 7.000000e+000
      vertex   -7.000000e+001 8.500000e+001 -2.220446e-015
    endloop
  endfacet
  facet normal -1.000000e+000 2.842171e-015 -2.030122e-015
    outer loop
      vertex   -7.000000e+001 8.500000e+001 -2.220446e-015
      vertex   -7.000000e+001 8.000000e+001 7.000000e+000
      vertex   -7.000000e+001 9.000000e+001 7.000000e+000
    endloop
  endfacet
  facet normal -1.000000e+000 -3.667317e-016 6.548781e-017
    outer loop
      vertex   -7.000000e+001 1.275000e+002 -2.220446e-015
      vertex   -7.000000e+001 9.000000e+001 7.000000e+000
      vertex   -7.000000e+001 1.300000e+002 1.400000e+001
    endloop
  endfacet
  facet normal -1.000000e+000 -3.552714e-016 0.000000e+000
    outer loop
      vertex   -7.000000e+001 1.700000e+002 -2.220446e-015
      vertex   -7.000000e+001 1.300000e+002 1.400000e+001
      vertex   -7.000000e+001 1.700000e+002 1.400000e+001
    endloop
  endfacet
  facet normal -1.000000e+000 -3.343731e-016 5.970947e-017
    outer loop
      vertex   -7.000000e+001 1.700000e+002 -2.220446e-015
      vertex   -7.000000e+001 1.275000e+002 -2.220446e-015
      vertex   -7.000000e+001 1.300000e+002 1.400000e+001
    endloop
  endfacet
  facet normal -1.000000e+000 -3.552714e-016 0.000000e+000
    outer loop
      vertex   -7.000000e+001 9.000000e+001 7.000000e+000
      vertex   -7.000000e+001 9.000000e+001 1.400000e+001
      vertex   -7.000000e+001 1.300000e+002 1.400000e+001
    endloop
  endfacet
  facet normal -1.000000e+000 -3.343731e-016 2.388379e-016
    outer loop
      vertex   -7.000000e+001 1.275000e+002 -2.220446e-015
      vertex   -7.000000e+001 8.500000e+001 -2.220446e-015
      vertex   -7.000000e+001 9.000000e+001 7.000000e+000
    endloop
  endfacet
  facet normal 2.220446e-016 -7.424573e-032 -1.000000e+000
    outer loop
      vertex   -7.000000e+001 -8.881784e-015 -2.220446e-015
      vertex   -7.000000e+001 4.250000e+001 -2.220446e-015
      vertex   -6.000000e+001 -4.440892e-015 0.000000e+000
    endloop
  endfacet
  facet normal 2.220446e-016 -3.712287e-032 -1.000000e+000
    outer loop
      vertex   -6.000000e+001 -4.440892e-015 0.000000e+000
      vertex   -7.000000e+001 4.250000e+001 -2.220446e-015
      vertex   -6.000000e+001 4.250000e+001 0.000000e+000
    endloop
  endfacet
  facet normal 2.220446e-016 7.424573e-032 -1.000000e+000
    outer loop
      vertex   -6.000000e+001 4.250000e+001 0.000000e+000
      vertex   -7.000000e+001 4.250000e+001 -2.220446e-015
      vertex   -7.000000e+001 8.500000e+001 -2.220446e-015
    endloop
  endfacet
  facet normal 2.220446e-016 7.424573e-032 -1.000000e+000
    outer loop
      vertex   -6.000000e+001 8.500000e+001 0.000000e+000
      vertex   -7.000000e+001 8.500000e+001 -2.220446e-015
      vertex   -7.000000e+001 1.275000e+002 -2.220446e-015
    endloop
  endfacet
  facet normal 2.220446e-016 7.424573e-032 -1.000000e+000
    outer loop
      vertex   -6.000000e+001 1.275000e+002 0.000000e+000
      vertex   -7.000000e+001 1.275000e+002 -2.220446e-015
      vertex   -7.000000e+001 1.700000e+002 -2.220446e-015
    endloop
  endfacet
  facet normal 2.220446e-016 1.113686e-031 -1.000000e+000
    outer loop
      vertex   -6.000000e+001 1.700000e+002 0.000000e+000
      vertex   -6.000000e+001 1.275000e+002 0.000000e+000
      vertex   -7.000000e+001 1.700000e+002 -2.220446e-015
    endloop
  endfacet
  facet normal 2.220446e-016 3.712287e-032 -1.000000e+000
    outer loop
      vertex   -6.000000e+001 4.250000e+001 0.000000e+000
      vertex   -7.000000e+001 8.500000e+001 -2.220446e-015
      vertex   -6.000000e+001 8.500000e+001 0.000000e+000
    endloop
  endfacet
  facet normal 2.220446e-016 3.712287e-032 -1.000000e+000
    outer loop
      vertex   -6.000000e+001 8.500000e+001 0.000000e+000
      vertex   -7.000000e+001 1.275000e+002 -2.220446e-015
      vertex   -6.000000e+001 1.275000e+002 0.000000e+000
    endloop
  endfacet
  facet normal -3.552714e-016 -6.310887e-032 1.000000e+000
    outer loop
      vertex   -6.000000e+001 9.000000e+001 1.400000e+001
      vertex   -6.000000e+001 1.300000e+002 1.400000e+001
      vertex   -7.000000e+001 9.000000e+001 1.400000e+001
    endloop
  endfacet
  facet normal -3.552714e-016 -1.262177e-031 1.000000e+000
    outer loop
      vertex   -7.000000e+001 9.000000e+001 1.400000e+001
      vertex   -6.000000e+001 1.300000e+002 1.400000e+001
      vertex   -7.000000e+001 1.300000e+002 1.400000e+001
    endloop
  endfacet
  facet normal -3.552714e-016 -1.893266e-031 1.000000e+000
    outer loop
      vertex   -7.000000e+001 1.300000e+002 1.400000e+001
      vertex   -6.000000e+001 1.300000e+002 1.400000e+001
      vertex   -6.000000e+001 1.700000e+002 1.400000e+001
    endloop
  endfacet
  facet normal -3.552714e-016 -1.262177e-031 1.000000e+000
    outer loop
      vertex   -7.000000e+001 1.700000e+002 1.400000e+001
      vertex   -7.000000e+001 1.300000e+002 1.400000e+001
      vertex   -6.000000e+001 1.700000e+002 1.400000e+001
    endloop
  endfacet
  facet normal -0.000000e+000 1.000000e+000 0.000000e+000
    outer loop
      vertex   -7.000000e+001 1.700000e+002 -2.220446e-015
      vertex   -7.000000e+001 1.700000e+002 1.400000e+001
      vertex   -6.000000e+001 1.700000e+002 0.000000e+000
    endloop
  endfacet
  facet normal 0.000000e+000 1.000000e+000 -0.000000e+000
    outer loop
      vertex   -6.000000e+001 1.700000e+002 0.000000e+000
      vertex   -7.000000e+001 1.700000e+002 1.400000e+001
      vertex   -6.000000e+001 1.700000e+002 1.400000e+001
    endloop
  endfacet
  facet normal 4.440892e-016 -1.000000e+000 0.000000e+000
    outer loop
      vertex   -6.000000e+001 -4.440892e-015 0.000000e+000
      vertex   -6.000000e+001 -4.440892e-015 1.400000e+001
      vertex   -7.000000e+001 -8.881784e-015 -2.220446e-015
    endloop
  endfacet
  facet normal 4.440892e-016 -1.000000e+000 0.000000e+000
    outer loop
      vertex   -7.000000e+001 -8.881784e-015 -2.220446e-015
      vertex   -6.000000e+001 -4.440892e-015 1.400000e+001
      vertex   -7.000000e+001 -8.881784e-015 1.400000e+001
    endloop
  endfacet
endsolid
solid ascii
  facet normal -8.881784e-017 2.524355e-031 1.000000e+000
    outer loop
      vertex   -4.000000e+001 8.000000e+001 7.000000e+000
      vertex   -4.000000e+001 9.000000e+001 7.000000e+000
      vertex   -5.000000e+001 8.000000e+001 7.000000e+000
    endloop
  endfacet
  facet normal -8.881784e-017 2.524355e-031 1.000000e+000
    outer loop
      vertex   -5.000000e+001 8.000000e+001 7.000000e+000
      vertex   -4.000000e+001 9.000000e+001 7.000000e+000
      vertex   -5.000000e+001 9.000000e+001 7.000000e+000
    endloop
  endfacet
  facet normal 1.421085e-015 -1.000000e+000 0.000000e+000
    outer loop
      vertex   -5.000000e+001 9.000000e+001 1.400000e+001
      vertex   -5.000000e+001 9.000000e+001 7.000000e+000
      vertex   -4.000000e+001 9.000000e+001 1.400000e+001
    endloop
  endfacet
  facet normal 1.421085e-015 -1.000000e+000 0.000000e+000
    outer loop
      vertex   -4.000000e+001 9.000000e+001 1.400000e+001
      vertex   -5.000000e+001 9.000000e+001 7.000000e+000
      vertex   -4.000000e+001 9.000000e+001 7.000000e+000
    endloop
  endfacet
  facet normal -1.421085e-015 1.000000e+000 0.000000e+000
    outer loop
      vertex   -4.000000e+001 8.000000e+001 1.400000e+001
      vertex   -4.000000e+001 8.000000e+001 7.000000e+000
      vertex   -5.000000e+001 8.000000e+001 1.400000e+001
    endloop
  endfacet
  facet normal -1.421085e-015 1.000000e+000 0.000000e+000
    outer loop
      vertex   -5.000000e+001 8.000000e+001 1.400000e+001
      vertex   -4.000000e+001 8.000000e+001 7.000000e+000
      vertex   -5.000000e+001 8.000000e+001 7.000000e+000
    endloop
  endfacet
  facet normal 1.000000e+000 1.776357e-016 0.000000e+000
    outer loop
      vertex   -4.000000e+001 9.000000e+001 1.400000e+001
      vertex   -4.000000e+001 9.000000e+001 7.000000e+000
      vertex   -4.000000e+001 1.300000e+002 1.400000e+001
    endloop
  endfacet
  facet normal 1.000000e+000 1.833659e-016 -3.274390e-017
    outer loop
      vertex   -4.000000e+001 1.300000e+002 1.400000e+001
      vertex   -4.000000e+001 9.000000e+001 7.000000e+000
      vertex   -4.000000e+001 1.275000e+002 0.000000e+000
    endloop
  endfacet
  facet normal 1.000000e+000 5.015596e-016 -8.956421e-017
    outer loop
      vertex   -4.000000e+001 1.700000e+002 0.000000e+000
      vertex   -4.000000e+001 1.300000e+002 1.400000e+001
      vertex   -4.000000e+001 1.275000e+002 0.000000e+000
    endloop
  endfacet
  facet normal 1.000000e+000 5.329071e-016 -0.000000e+000
    outer loop
      vertex   -4.000000e+001 1.700000e+002 0.000000e+000
      vertex   -4.000000e+001 1.700000e+002 1.400000e+001
      vertex   -4.000000e+001 1.300000e+002 1.400000e+001
    endloop
  endfacet
  facet normal 1.000000e+000 1.671865e-016 -1.194189e-016
    outer loop
      vertex   -4.000000e+001 1.275000e+002 0.000000e+000
      vertex   -4.000000e+001 9.000000e+001 7.000000e+000
      vertex   -4.000000e+001 8.500000e+001 0.000000e+000
    endloop
  endfacet
  facet normal 1.000000e+000 -2.842171e-015 2.030122e-015
    outer loop
      vertex   -4.000000e+001 8.500000e+001 0.000000e+000
      vertex   -4.000000e+001 9.000000e+001 7.000000e+000
      vertex   -4.000000e+001 8.000000e+001 7.000000e+000
    endloop
  endfacet
  facet normal 1.000000e+000 9.168293e-016 1.637195e-016
    outer loop
      vertex   -4.000000e+001 4.250000e+001 0.000000e+000
      vertex   -4.000000e+001 8.000000e+001 7.000000e+000
      vertex   -4.000000e+001 4.000000e+001 1.400000e+001
    endloop
  endfacet
  facet normal 1.000000e+000 -1.776357e-016 0.000000e+000
    outer loop
      vertex   -4.000000e+001 -4.440892e-015 0.000000e+000
      vertex   -4.000000e+001 4.000000e+001 1.400000e+001
      vertex   -4.000000e+001 -4.440892e-015 1.400000e+001
    endloop
  endfacet
  facet normal 1.000000e+000 -1.671865e-016 -2.985474e-017
    outer loop
      vertex   -4.000000e+001 -4.440892e-015 0.000000e+000
      vertex   -4.000000e+001 4.250000e+001 0.000000e+000
      vertex   -4.000000e+001 4.000000e+001 1.400000e+001
    endloop
  endfacet
  facet normal 1.000000e+000 8.881784e-016 -0.000000e+000
    outer loop
      vertex   -4.000000e+001 8.000000e+001 7.000000e+000
      vertex   -4.000000e+001 8.000000e+001 1.400000e+001
      vertex   -4.000000e+001 4.000000e+001 1.400000e+001
    endloop
  endfacet
  facet normal 1.000000e+000 1.671865e-016 4.179663e-015
    outer loop
      vertex   -4.000000e+001 4.250000e+001 0.000000e+000
      vertex   -4.000000e+001 8.500000e+001 0.000000e+000
      vertex   -4.000000e+001 8.000000e+001 7.000000e+000
    endloop
  endfacet
  facet normal -3.552714e-016 -3.155444e-031 1.000000e+000
    outer loop
      vertex   -5.000000e+001 8.000000e+001 1.400000e+001
      vertex   -5.000000e+001 4.000000e+001 1.400000e+001
      vertex   -4.000000e+001 8.000000e+001 1.400000e+001
    endloop
  endfacet
  facet normal -3.552714e-016 -3.155444e-031 1.000000e+000
    outer loop
      vertex   -4.000000e+001 8.000000e+001 1.400000e+001
      vertex   -5.000000e+001 4.000000e+001 1.400000e+001
      vertex   -4.000000e+001 4.000000e+001 1.400000e+001
    endloop
  endfacet
  facet normal -3.552714e-016 6.310887e-032 1.000000e+000
    outer loop
      vertex   -4.000000e+001 4.000000e+001 1.400000e+001
      vertex   -5.000000e+001 4.000000e+001 1.400000e+001
      vertex   -5.000000e+001 -8.881784e-015 1.400000e+001
    endloop
  endfacet
  facet normal -3.552714e-016 6.310887e-032 1.000000e+000
    outer loop
      vertex   -4.000000e+001 -4.440892e-015 1.400000e+001
      vertex   -4.000000e+001 4.000000e+001 1.400000e+001
      vertex   -5.000000e+001 -8.881784e-015 1.400000e+001
    endloop
  endfacet
  facet normal -1.000000e+000 -8.881784e-016 -0.000000e+000
    outer loop
      vertex   -5.000000e+001 8.000000e+001 1.400000e+001
      vertex   -5.000000e+001 8.000000e+001 7.000000e+000
      vertex   -5.000000e+001 4.000000e+001 1.400000e+001
    endloop
  endfacet
  facet normal -1.000000e+000 -9.168293e-016 -1.637195e-016
    outer loop
      vertex   -5.000000e+001 4.000000e+001 1.400000e+001
      vertex   -5.000000e+001 8.000000e+001 7.000000e+000
      vertex   -5.000000e+001 4.250000e+001 -2.220446e-015
    endloop
  endfacet
  facet normal -1.000000e+000 1.671865e-016 2.985474e-017
    outer loop
      vertex   -5.000000e+001 -8.881784e-015 -2.220446e-015
      vertex   -5.000000e+001 4.000000e+001 1.400000e+001
      vertex   -5.000000e+001 4.250000e+001 -2.220446e-015
    endloop
  endfacet
  facet normal -1.000000e+000 1.776357e-016 0.000000e+000
    outer loop
      vertex   -5.000000e+001 -8.881784e-015 -2.220446e-015
      vertex   -5.000000e+001 -8.881784e-015 1.400000e+001
      vertex   -5.000000e+001 4.000000e+001 1.400000e+001
    endloop
  endfacet
  facet normal -1.000000e+000 -1.671865e-016 -4.179663e-015
    outer loop
      vertex   -5.000000e+001 4.250000e+001 -2.220446e-015
      vertex   -5.000000e+001 8.000000e+001 7.000000e+000
      vertex   -5.000000e+001 8.500000e+001 -2.220446e-015
    endloop
  endfacet
  facet normal -1.000000e+000 2.842171e-015 -2.030122e-015
    outer loop
      vertex   -5.000000e+001 8.500000e+001 -2.220446e-015
      vertex   -5.000000e+001 8.000000e+001 7.000000e+000
      vertex   -5.000000e+001 9.000000e+001 7.000000e+000
    endloop
  endfacet
  facet normal -1.000000e+000 -1.833659e-016 3.274390e-017
    outer loop
      vertex   -5.000000e+001 1.275000e+002 -2.220446e-015
      vertex   -5.000000e+001 9.000000e+001 7.000000e+000
      vertex   -5.000000e+001 1.300000e+002 1.400000e+001
    endloop
  endfacet
  facet normal -1.000000e+000 -5.329071e-016 0.000000e+000
    outer loop
      vertex   -5.000000e+001 1.700000e+002 -2.220446e-015
      vertex   -5.000000e+001 1.300000e+002 1.400000e+001
      vertex   -5.000000e+001 1.700000e+002 1.400000e+001
    endloop
  endfacet
  facet normal -1.000000e+000 -5.015596e-016 8.956421e-017
    outer loop
      vertex   -5.000000e+001 1.700000e+002 -2.220446e-015
      vertex   -5.000000e+001 1.275000e+002 -2.220446e-015
      vertex   -5.000000e+001 1.300000e+002 1.400000e+001
    endloop
  endfacet
  facet normal -1.000000e+000 -1.776357e-016 0.000000e+000
    outer loop
      vertex   -5.000000e+001 9.000000e+001 7.000000e+000
      vertex   -5.000000e+001 9.000000e+001 1.400000e+001
      vertex   -5.000000e+001 1.300000e+002 1.400000e+001
    endloop
  endfacet
  facet normal -1.000000e+000 -1.671865e-016 1.194189e-016
    outer loop
      vertex   -5.000000e+001 1.275000e+002 -2.220446e-015
      vertex   -5.000000e+001 8.500000e+001 -2.220446e-015
      vertex   -5.000000e+001 9.000000e+001 7.000000e+000
    endloop
  endfacet
  facet normal 2.220446e-016 -3.712287e-032 -1.000000e+000
    outer loop
      vertex   -5.000000e+001 -8.881784e-015 -2.220446e-015
      vertex   -5.000000e+001 4.250000e+001 -2.220446e-015
      vertex   -4.000000e+001 -4.440892e-015 0.000000e+000
    endloop
  endfacet
  facet normal 2.220446e-016 -3.712287e-032 -1.000000e+000
    outer loop
      vertex   -4.000000e+001 -4.440892e-015 0.000000e+000
      vertex   -5.000000e+001 4.250000e+001 -2.220446e-015
      vertex   -4.000000e+001 4.250000e+001 0.000000e+000
    endloop
  endfacet
  facet normal 2.220446e-016 3.712287e-032 -1.000000e+000
    outer loop
      vertex   -4.000000e+001 4.250000e+001 0.000000e+000
      vertex   -5.000000e+001 4.250000e+001 -2.220446e-015
      vertex   -5.000000e+001 8.500000e+001 -2.220446e-015
    endloop
  endfacet
  facet normal 2.220446e-016 3.712287e-032 -1.000000e+000
    outer loop
      vertex   -4.000000e+001 8.500000e+001 0.000000e+000
      vertex   -5.000000e+001 8.500000e+001 -2.220446e-015
      vertex   -5.000000e+001 1.275000e+002 -2.220446e-015
    endloop
  endfacet
  facet normal 2.220446e-016 1.113686e-031 -1.000000e+000
    outer loop
      vertex   -4.000000e+001 1.275000e+002 0.000000e+000
      vertex   -5.000000e+001 1.275000e+002 -2.220446e-015
      vertex   -5.000000e+001 1.700000e+002 -2.220446e-015
    endloop
  endfacet
  facet normal 2.220446e-016 1.113686e-031 -1.000000e+000
    outer loop
      vertex   -4.000000e+001 1.700000e+002 0.000000e+000
      vertex   -4.000000e+001 1.275000e+002 0.000000e+000
      vertex   -5.000000e+001 1.700000e+002 -2.220446e-015
    endloop
  endfacet
  facet normal 2.220446e-016 3.712287e-032 -1.000000e+000
    outer loop
      vertex   -4.000000e+001 4.250000e+001 0.000000e+000
      vertex   -5.000000e+001 8.500000e+001 -2.220446e-015
      vertex   -4.000000e+001 8.500000e+001 0.000000e+000
    endloop
  endfacet
  facet normal 2.220446e-016 3.712287e-032 -1.000000e+000
    outer loop
      vertex   -4.000000e+001 8.500000e+001 0.000000e+000
      vertex   -5.000000e+001 1.275000e+002 -2.220446e-015
      vertex   -4.000000e+001 1.275000e+002 0.000000e+000
    endloop
  endfacet
  facet normal -3.552714e-016 -6.310887e-032 1.000000e+000
    outer loop
      vertex   -4.000000e+001 9.000000e+001 1.400000e+001
      vertex   -4.000000e+001 1.300000e+002 1.400000e+001
      vertex   -5.000000e+001 9.000000e+001 1.400000e+001
    endloop
  endfacet
  facet normal -3.552714e-016 -6.310887e-032 1.000000e+000
    outer loop
      vertex   -5.000000e+001 9.000000e+001 1.400000e+001
      vertex   -4.000000e+001 1.300000e+002 1.400000e+001
      vertex   -5.000000e+001 1.300000e+002 1.400000e+001
    endloop
  endfacet
  facet normal -3.552714e-016 -1.893266e-031 1.000000e+000
    outer loop
      vertex   -5.000000e+001 1.300000e+002 1.400000e+001
      vertex   -4.000000e+001 1.300000e+002 1.400000e+001
      vertex   -4.000000e+001 1.700000e+002 1.400000e+001
    endloop
  endfacet
  facet normal -3.552714e-016 -1.893266e-031 1.000000e+000
    outer loop
      vertex   -5.000000e+001 1.700000e+002 1.400000e+001
      vertex   -5.000000e+001 1.300000e+002 1.400000e+001
      vertex   -4.000000e+001 1.700000e+002 1.400000e+001
    endloop
  endfacet
  facet normal -0.000000e+000 1.000000e+000 0.000000e+000
    outer loop
      vertex   -5.000000e+001 1.700000e+002 -2.220446e-015
      vertex   -5.000000e+001 1.700000e+002 1.400000e+001
      vertex   -4.000000e+001 1.700000e+002 0.000000e+000
    endloop
  endfacet
  facet normal 0.000000e+000 1.000000e+000 -0.000000e+000
    outer loop
      vertex   -4.000000e+001 1.700000e+002 0.000000e+000
      vertex   -5.000000e+001 1.700000e+002 1.400000e+001
      vertex   -4.000000e+001 1.700000e+002 1.400000e+001
    endloop
  endfacet
  facet normal 4.440892e-016 -1.000000e+000 0.000000e+000
    outer loop
      vertex   -4.000000e+001 -4.440892e-015 0.000000e+000
      vertex   -4.000000e+001 -4.440892e-015 1.400000e+001
      vertex   -5.000000e+001 -8.881784e-015 -2.220446e-015
    endloop
  endfacet
  facet normal 4.440892e-016 -1.000000e+000 0.000000e+000
    outer loop
      vertex   -5.000000e+001 -8.881784e-015 -2.220446e-015
      vertex   -4.000000e+001 -4.440892e-015 1.400000e+001
      vertex   -5.000000e+001 -8.881784e-015 1.400000e+001
    endloop
  endfacet
endsolid
