solid ascii
  facet normal 0.000000e+00 0.000000e+00 -1.000000e+00
    outer loop
      vertex   0.000000e+00 0.000000e+00 1.000000e+01
      vertex   -1.000000e+01 0.000000e+00 1.000000e+01
      vertex   0.000000e+00 5.000000e+00 1.000000e+01
    endloop
  endfacet
  facet normal -0.000000e+00 0.000000e+00 -1.000000e+00
    outer loop
      vertex   0.000000e+00 5.000000e+00 1.000000e+01
      vertex   -1.000000e+01 0.000000e+00 1.000000e+01
      vertex   -1.000000e+01 5.000000e+00 1.000000e+01
    endloop
  endfacet
  facet normal -0.000000e+00 -1.000000e+00 0.000000e+00
    outer loop
      vertex   0.000000e+00 5.000000e+00 0.000000e+00
      vertex   0.000000e+00 5.000000e+00 1.000000e+01
      vertex   -1.000000e+01 5.000000e+00 0.000000e+00
    endloop
  endfacet
  facet normal 0.000000e+00 -1.000000e+00 0.000000e+00
    outer loop
      vertex   -1.000000e+01 5.000000e+00 0.000000e+00
      vertex   0.000000e+00 5.000000e+00 1.000000e+01
      vertex   -1.000000e+01 5.000000e+00 1.000000e+01
    endloop
  endfacet
  facet normal 1.000000e+00 0.000000e+00 -0.000000e+00
    outer loop
      vertex   0.000000e+00 0.000000e+00 1.000000e+01
      vertex   0.000000e+00 5.000000e+00 1.000000e+01
      vertex   0.000000e+00 0.000000e+00 1.985007e+01
    endloop
  endfacet
  facet normal 1.000000e+00 0.000000e+00 0.000000e+00
    outer loop
      vertex   0.000000e+00 0.000000e+00 1.985007e+01
      vertex   0.000000e+00 5.000000e+00 1.000000e+01
      vertex   0.000000e+00 4.000000e+01 1.197760e+00
    endloop
  endfacet
  facet normal 1.000000e+00 0.000000e+00 0.000000e+00
    outer loop
      vertex   0.000000e+00 4.000000e+01 1.197760e+00
      vertex   0.000000e+00 5.000000e+00 1.000000e+01
      vertex   0.000000e+00 5.000000e+00 0.000000e+00
    endloop
  endfacet
  facet normal 1.000000e+00 0.000000e+00 -0.000000e+00
    outer loop
      vertex   0.000000e+00 4.000000e+01 0.000000e+00
      vertex   0.000000e+00 4.000000e+01 1.197760e+00
      vertex   0.000000e+00 5.000000e+00 0.000000e+00
    endloop
  endfacet
  facet normal 0.000000e+00 0.000000e+00 -1.000000e+00
    outer loop
      vertex   0.000000e+00 5.000000e+00 0.000000e+00
      vertex   -1.000000e+01 5.000000e+00 0.000000e+00
      vertex   0.000000e+00 4.000000e+01 0.000000e+00
    endloop
  endfacet
  facet normal -0.000000e+00 0.000000e+00 -1.000000e+00
    outer loop
      vertex   0.000000e+00 4.000000e+01 0.000000e+00
      vertex   -1.000000e+01 5.000000e+00 0.000000e+00
      vertex   -1.000000e+01 4.000000e+01 0.000000e+00
    endloop
  endfacet
  facet normal 6.439704e-16 4.226183e-01 9.063078e-01
    outer loop
      vertex   -1.000000e+01 0.000000e+00 1.985007e+01
      vertex   0.000000e+00 0.000000e+00 1.985007e+01
      vertex   -1.000000e+01 4.000000e+01 1.197760e+00
    endloop
  endfacet
  facet normal 0.000000e+00 4.226183e-01 9.063078e-01
    outer loop
      vertex   -1.000000e+01 4.000000e+01 1.197760e+00
      vertex   0.000000e+00 0.000000e+00 1.985007e+01
      vertex   0.000000e+00 4.000000e+01 1.197760e+00
    endloop
  endfacet
  facet normal -1.000000e+00 0.000000e+00 0.000000e+00
    outer loop
      vertex   -1.000000e+01 0.000000e+00 1.000000e+01
      vertex   -1.000000e+01 0.000000e+00 1.985007e+01
      vertex   -1.000000e+01 5.000000e+00 1.000000e+01
    endloop
  endfacet
  facet normal -1.000000e+00 0.000000e+00 0.000000e+00
    outer loop
      vertex   -1.000000e+01 5.000000e+00 1.000000e+01
      vertex   -1.000000e+01 0.000000e+00 1.985007e+01
      vertex   -1.000000e+01 4.000000e+01 1.197760e+00
    endloop
  endfacet
  facet normal -1.000000e+00 0.000000e+00 0.000000e+00
    outer loop
      vertex   -1.000000e+01 5.000000e+00 0.000000e+00
      vertex   -1.000000e+01 4.000000e+01 1.197760e+00
      vertex   -1.000000e+01 4.000000e+01 0.000000e+00
    endloop
  endfacet
  facet normal -1.000000e+00 0.000000e+00 0.000000e+00
    outer loop
      vertex   -1.000000e+01 5.000000e+00 0.000000e+00
      vertex   -1.000000e+01 5.000000e+00 1.000000e+01
      vertex   -1.000000e+01 4.000000e+01 1.197760e+00
    endloop
  endfacet
  facet normal 0.000000e+00 1.000000e+00 0.000000e+00
    outer loop
      vertex   0.000000e+00 4.000000e+01 1.197760e+00
      vertex   0.000000e+00 4.000000e+01 0.000000e+00
      vertex   -1.000000e+01 4.000000e+01 1.197760e+00
    endloop
  endfacet
  facet normal 0.000000e+00 1.000000e+00 0.000000e+00
    outer loop
      vertex   -1.000000e+01 4.000000e+01 1.197760e+00
      vertex   0.000000e+00 4.000000e+01 0.000000e+00
      vertex   -1.000000e+01 4.000000e+01 0.000000e+00
    endloop
  endfacet
  facet normal -0.000000e+00 -1.000000e+00 0.000000e+00
    outer loop
      vertex   0.000000e+00 0.000000e+00 1.000000e+01
      vertex   0.000000e+00 0.000000e+00 1.985007e+01
      vertex   -1.000000e+01 0.000000e+00 1.000000e+01
    endloop
  endfacet
  facet normal 0.000000e+00 -1.000000e+00 0.000000e+00
    outer loop
      vertex   -1.000000e+01 0.000000e+00 1.000000e+01
      vertex   0.000000e+00 0.000000e+00 1.985007e+01
      vertex   -1.000000e+01 0.000000e+00 1.985007e+01
    endloop
  endfacet
endsolid
