solid ascii
  facet normal 1.000000e+00 0.000000e+00 -0.000000e+00
    outer loop
      vertex   -3.000000e+01 1.500000e+01 5.000000e+00
      vertex   -3.000000e+01 1.500000e+01 1.500000e+01
      vertex   -3.000000e+01 1.000000e+01 5.000000e+00
    endloop
  endfacet
  facet normal 1.000000e+00 0.000000e+00 -0.000000e+00
    outer loop
      vertex   -3.000000e+01 1.000000e+01 5.000000e+00
      vertex   -3.000000e+01 1.500000e+01 1.500000e+01
      vertex   -3.000000e+01 1.000000e+01 1.500000e+01
    endloop
  endfacet
  facet normal 0.000000e+00 -0.000000e+00 -1.000000e+00
    outer loop
      vertex   -3.000000e+01 1.500000e+01 1.500000e+01
      vertex   -1.500000e+01 1.500000e+01 1.500000e+01
      vertex   -3.000000e+01 1.000000e+01 1.500000e+01
    endloop
  endfacet
  facet normal 0.000000e+00 0.000000e+00 -1.000000e+00
    outer loop
      vertex   -3.000000e+01 1.000000e+01 1.500000e+01
      vertex   -1.500000e+01 1.500000e+01 1.500000e+01
      vertex   -1.000000e+01 1.000000e+01 1.500000e+01
    endloop
  endfacet
  facet normal 0.000000e+00 0.000000e+00 -1.000000e+00
    outer loop
      vertex   -1.000000e+01 1.000000e+01 1.500000e+01
      vertex   -1.500000e+01 1.500000e+01 1.500000e+01
      vertex   -1.000000e+01 3.000000e+01 1.500000e+01
    endloop
  endfacet
  facet normal -0.000000e+00 0.000000e+00 -1.000000e+00
    outer loop
      vertex   -1.000000e+01 3.000000e+01 1.500000e+01
      vertex   -1.500000e+01 1.500000e+01 1.500000e+01
      vertex   -1.500000e+01 3.000000e+01 1.500000e+01
    endloop
  endfacet
  facet normal 0.000000e+00 1.000000e+00 0.000000e+00
    outer loop
      vertex   -1.000000e+01 1.000000e+01 1.500000e+01
      vertex   -1.000000e+01 1.000000e+01 5.000000e+00
      vertex   -3.000000e+01 1.000000e+01 1.500000e+01
    endloop
  endfacet
  facet normal 0.000000e+00 1.000000e+00 0.000000e+00
    outer loop
      vertex   -3.000000e+01 1.000000e+01 1.500000e+01
      vertex   -1.000000e+01 1.000000e+01 5.000000e+00
      vertex   -3.000000e+01 1.000000e+01 5.000000e+00
    endloop
  endfacet
  facet normal 0.000000e+00 -1.000000e+00 0.000000e+00
    outer loop
      vertex   -1.500000e+01 3.000000e+01 1.500000e+01
      vertex   -1.500000e+01 3.000000e+01 5.000000e+00
      vertex   -1.000000e+01 3.000000e+01 1.500000e+01
    endloop
  endfacet
  facet normal 0.000000e+00 -1.000000e+00 -0.000000e+00
    outer loop
      vertex   -1.000000e+01 3.000000e+01 1.500000e+01
      vertex   -1.500000e+01 3.000000e+01 5.000000e+00
      vertex   -1.000000e+01 3.000000e+01 5.000000e+00
    endloop
  endfacet
  facet normal -1.000000e+00 -0.000000e+00 -0.000000e+00
    outer loop
      vertex   -1.000000e+01 3.000000e+01 1.500000e+01
      vertex   -1.000000e+01 3.000000e+01 5.000000e+00
      vertex   -1.000000e+01 1.000000e+01 1.500000e+01
    endloop
  endfacet
  facet normal -1.000000e+00 -0.000000e+00 -0.000000e+00
    outer loop
      vertex   -1.000000e+01 1.000000e+01 1.500000e+01
      vertex   -1.000000e+01 3.000000e+01 5.000000e+00
      vertex   -1.000000e+01 1.000000e+01 5.000000e+00
    endloop
  endfacet
  facet normal 0.000000e+00 1.000000e+00 -0.000000e+00
    outer loop
      vertex   -1.500000e+01 1.500000e+01 1.500000e+01
      vertex   -3.000000e+01 1.500000e+01 1.500000e+01
      vertex   -1.500000e+01 1.500000e+01 2.000000e+01
    endloop
  endfacet
  facet normal 0.000000e+00 1.000000e+00 0.000000e+00
    outer loop
      vertex   -1.500000e+01 1.500000e+01 2.000000e+01
      vertex   -3.000000e+01 1.500000e+01 1.500000e+01
      vertex   -5.007107e+01 1.500000e+01 2.000000e+01
    endloop
  endfacet
  facet normal 0.000000e+00 1.000000e+00 0.000000e+00
    outer loop
      vertex   -5.007107e+01 1.500000e+01 2.000000e+01
      vertex   -3.000000e+01 1.500000e+01 1.500000e+01
      vertex   -5.007107e+01 1.500000e+01 5.000000e+00
    endloop
  endfacet
  facet normal -0.000000e+00 1.000000e+00 0.000000e+00
    outer loop
      vertex   -5.007107e+01 1.500000e+01 5.000000e+00
      vertex   -3.000000e+01 1.500000e+01 1.500000e+01
      vertex   -3.000000e+01 1.500000e+01 5.000000e+00
    endloop
  endfacet
  facet normal -0.000000e+00 0.000000e+00 1.000000e+00
    outer loop
      vertex   -5.000000e+01 1.950000e+01 5.000000e+00
      vertex   -3.000000e+01 1.500000e+01 5.000000e+00
      vertex   -1.950000e+01 1.950000e+01 5.000000e+00
    endloop
  endfacet
  facet normal 0.000000e+00 0.000000e+00 1.000000e+00
    outer loop
      vertex   -5.000000e+01 1.950000e+01 5.000000e+00
      vertex   -5.000000e+01 1.507107e+01 5.000000e+00
      vertex   -3.000000e+01 1.500000e+01 5.000000e+00
    endloop
  endfacet
  facet normal 0.000000e+00 0.000000e+00 1.000000e+00
    outer loop
      vertex   -3.000000e+01 1.500000e+01 5.000000e+00
      vertex   -5.000000e+01 1.507107e+01 5.000000e+00
      vertex   -5.007107e+01 1.500000e+01 5.000000e+00
    endloop
  endfacet
  facet normal -0.000000e+00 0.000000e+00 1.000000e+00
    outer loop
      vertex   -3.000000e+01 1.500000e+01 5.000000e+00
      vertex   -3.000000e+01 1.000000e+01 5.000000e+00
      vertex   -1.950000e+01 1.950000e+01 5.000000e+00
    endloop
  endfacet
  facet normal -0.000000e+00 0.000000e+00 1.000000e+00
    outer loop
      vertex   -1.950000e+01 1.950000e+01 5.000000e+00
      vertex   -3.000000e+01 1.000000e+01 5.000000e+00
      vertex   -1.000000e+01 1.000000e+01 5.000000e+00
    endloop
  endfacet
  facet normal 0.000000e+00 0.000000e+00 1.000000e+00
    outer loop
      vertex   -1.000000e+01 3.000000e+01 5.000000e+00
      vertex   -1.950000e+01 1.950000e+01 5.000000e+00
      vertex   -1.000000e+01 1.000000e+01 5.000000e+00
    endloop
  endfacet
  facet normal 0.000000e+00 0.000000e+00 1.000000e+00
    outer loop
      vertex   -1.000000e+01 3.000000e+01 5.000000e+00
      vertex   -1.500000e+01 3.000000e+01 5.000000e+00
      vertex   -1.950000e+01 1.950000e+01 5.000000e+00
    endloop
  endfacet
  facet normal 0.000000e+00 -0.000000e+00 1.000000e+00
    outer loop
      vertex   -1.950000e+01 1.950000e+01 5.000000e+00
      vertex   -1.500000e+01 3.000000e+01 5.000000e+00
      vertex   -1.950000e+01 5.000000e+01 5.000000e+00
    endloop
  endfacet
  facet normal -0.000000e+00 0.000000e+00 1.000000e+00
    outer loop
      vertex   -1.950000e+01 5.000000e+01 5.000000e+00
      vertex   -1.500000e+01 3.000000e+01 5.000000e+00
      vertex   -1.500000e+01 4.992893e+01 5.000000e+00
    endloop
  endfacet
  facet normal 0.000000e+00 0.000000e+00 1.000000e+00
    outer loop
      vertex   -1.507107e+01 5.000000e+01 5.000000e+00
      vertex   -1.950000e+01 5.000000e+01 5.000000e+00
      vertex   -1.500000e+01 4.992893e+01 5.000000e+00
    endloop
  endfacet
  facet normal 7.071068e-01 7.071068e-01 0.000000e+00
    outer loop
      vertex   -1.500000e+01 4.992893e+01 2.000000e+01
      vertex   -8.000000e+00 4.292893e+01 2.000000e+01
      vertex   -1.500000e+01 4.992893e+01 5.000000e+00
    endloop
  endfacet
  facet normal 7.071068e-01 7.071068e-01 0.000000e+00
    outer loop
      vertex   -1.500000e+01 4.992893e+01 5.000000e+00
      vertex   -8.000000e+00 4.292893e+01 2.000000e+01
      vertex   -8.000000e+00 4.292893e+01 0.000000e+00
    endloop
  endfacet
  facet normal 7.071068e-01 7.071068e-01 2.553513e-16
    outer loop
      vertex   -1.507107e+01 5.000000e+01 0.000000e+00
      vertex   -1.500000e+01 4.992893e+01 5.000000e+00
      vertex   -8.000000e+00 4.292893e+01 0.000000e+00
    endloop
  endfacet
  facet normal 7.071068e-01 7.071068e-01 -0.000000e+00
    outer loop
      vertex   -1.507107e+01 5.000000e+01 0.000000e+00
      vertex   -1.507107e+01 5.000000e+01 5.000000e+00
      vertex   -1.500000e+01 4.992893e+01 5.000000e+00
    endloop
  endfacet
  facet normal -7.071068e-01 7.071068e-01 0.000000e+00
    outer loop
      vertex   -8.000000e+00 4.292893e+01 0.000000e+00
      vertex   -8.000000e+00 4.292893e+01 2.000000e+01
      vertex   -9.289322e-01 5.000000e+01 0.000000e+00
    endloop
  endfacet
  facet normal -7.071068e-01 7.071068e-01 0.000000e+00
    outer loop
      vertex   -9.289322e-01 5.000000e+01 0.000000e+00
      vertex   -8.000000e+00 4.292893e+01 2.000000e+01
      vertex   -9.289322e-01 5.000000e+01 2.000000e+01
    endloop
  endfacet
  facet normal -0.000000e+00 1.000000e+00 0.000000e+00
    outer loop
      vertex   -9.289322e-01 5.000000e+01 0.000000e+00
      vertex   -9.289322e-01 5.000000e+01 2.000000e+01
      vertex   0.000000e+00 5.000000e+01 0.000000e+00
    endloop
  endfacet
  facet normal 0.000000e+00 1.000000e+00 -0.000000e+00
    outer loop
      vertex   0.000000e+00 5.000000e+01 0.000000e+00
      vertex   -9.289322e-01 5.000000e+01 2.000000e+01
      vertex   0.000000e+00 5.000000e+01 2.000000e+01
    endloop
  endfacet
  facet normal 0.000000e+00 1.000000e+00 0.000000e+00
    outer loop
      vertex   -1.507107e+01 5.000000e+01 5.000000e+00
      vertex   -1.507107e+01 5.000000e+01 0.000000e+00
      vertex   -1.950000e+01 5.000000e+01 5.000000e+00
    endloop
  endfacet
  facet normal 0.000000e+00 1.000000e+00 0.000000e+00
    outer loop
      vertex   -1.950000e+01 5.000000e+01 5.000000e+00
      vertex   -1.507107e+01 5.000000e+01 0.000000e+00
      vertex   -1.950000e+01 5.000000e+01 0.000000e+00
    endloop
  endfacet
  facet normal -1.000000e+00 0.000000e+00 0.000000e+00
    outer loop
      vertex   -1.500000e+01 1.500000e+01 1.500000e+01
      vertex   -1.500000e+01 1.500000e+01 2.000000e+01
      vertex   -1.500000e+01 3.000000e+01 1.500000e+01
    endloop
  endfacet
  facet normal -1.000000e+00 0.000000e+00 0.000000e+00
    outer loop
      vertex   -1.500000e+01 3.000000e+01 1.500000e+01
      vertex   -1.500000e+01 1.500000e+01 2.000000e+01
      vertex   -1.500000e+01 4.992893e+01 2.000000e+01
    endloop
  endfacet
  facet normal -1.000000e+00 0.000000e+00 0.000000e+00
    outer loop
      vertex   -1.500000e+01 4.992893e+01 5.000000e+00
      vertex   -1.500000e+01 3.000000e+01 1.500000e+01
      vertex   -1.500000e+01 4.992893e+01 2.000000e+01
    endloop
  endfacet
  facet normal -1.000000e+00 0.000000e+00 0.000000e+00
    outer loop
      vertex   -1.500000e+01 4.992893e+01 5.000000e+00
      vertex   -1.500000e+01 3.000000e+01 5.000000e+00
      vertex   -1.500000e+01 3.000000e+01 1.500000e+01
    endloop
  endfacet
  facet normal -1.000000e+00 -0.000000e+00 -0.000000e+00
    outer loop
      vertex   -1.950000e+01 5.000000e+01 5.000000e+00
      vertex   -1.950000e+01 5.000000e+01 0.000000e+00
      vertex   -1.950000e+01 1.950000e+01 5.000000e+00
    endloop
  endfacet
  facet normal -1.000000e+00 -0.000000e+00 -0.000000e+00
    outer loop
      vertex   -1.950000e+01 1.950000e+01 5.000000e+00
      vertex   -1.950000e+01 5.000000e+01 0.000000e+00
      vertex   -1.950000e+01 1.950000e+01 0.000000e+00
    endloop
  endfacet
  facet normal -7.071068e-01 7.071068e-01 0.000000e+00
    outer loop
      vertex   -5.007107e+01 1.500000e+01 2.000000e+01
      vertex   -5.007107e+01 1.500000e+01 5.000000e+00
      vertex   -5.707107e+01 8.000000e+00 2.000000e+01
    endloop
  endfacet
  facet normal -7.071068e-01 7.071068e-01 0.000000e+00
    outer loop
      vertex   -5.707107e+01 8.000000e+00 2.000000e+01
      vertex   -5.007107e+01 1.500000e+01 5.000000e+00
      vertex   -5.707107e+01 8.000000e+00 0.000000e+00
    endloop
  endfacet
  facet normal -7.071068e-01 7.071068e-01 2.506884e-15
    outer loop
      vertex   -5.707107e+01 8.000000e+00 0.000000e+00
      vertex   -5.007107e+01 1.500000e+01 5.000000e+00
      vertex   -5.000000e+01 1.507107e+01 0.000000e+00
    endloop
  endfacet
  facet normal -7.071068e-01 7.071068e-01 0.000000e+00
    outer loop
      vertex   -5.000000e+01 1.507107e+01 0.000000e+00
      vertex   -5.007107e+01 1.500000e+01 5.000000e+00
      vertex   -5.000000e+01 1.507107e+01 5.000000e+00
    endloop
  endfacet
  facet normal -7.071068e-01 -7.071068e-01 -0.000000e+00
    outer loop
      vertex   -5.707107e+01 8.000000e+00 2.000000e+01
      vertex   -5.707107e+01 8.000000e+00 0.000000e+00
      vertex   -5.000000e+01 9.289322e-01 2.000000e+01
    endloop
  endfacet
  facet normal -7.071068e-01 -7.071068e-01 0.000000e+00
    outer loop
      vertex   -5.000000e+01 9.289322e-01 2.000000e+01
      vertex   -5.707107e+01 8.000000e+00 0.000000e+00
      vertex   -5.000000e+01 9.289322e-01 0.000000e+00
    endloop
  endfacet
  facet normal -1.000000e+00 0.000000e+00 0.000000e+00
    outer loop
      vertex   -5.000000e+01 1.507107e+01 0.000000e+00
      vertex   -5.000000e+01 1.507107e+01 5.000000e+00
      vertex   -5.000000e+01 1.950000e+01 0.000000e+00
    endloop
  endfacet
  facet normal -1.000000e+00 0.000000e+00 0.000000e+00
    outer loop
      vertex   -5.000000e+01 1.950000e+01 0.000000e+00
      vertex   -5.000000e+01 1.507107e+01 5.000000e+00
      vertex   -5.000000e+01 1.950000e+01 5.000000e+00
    endloop
  endfacet
  facet normal -1.000000e+00 -0.000000e+00 -0.000000e+00
    outer loop
      vertex   -5.000000e+01 9.289322e-01 2.000000e+01
      vertex   -5.000000e+01 9.289322e-01 0.000000e+00
      vertex   -5.000000e+01 0.000000e+00 2.000000e+01
    endloop
  endfacet
  facet normal -1.000000e+00 -0.000000e+00 -0.000000e+00
    outer loop
      vertex   -5.000000e+01 0.000000e+00 2.000000e+01
      vertex   -5.000000e+01 9.289322e-01 0.000000e+00
      vertex   -5.000000e+01 0.000000e+00 0.000000e+00
    endloop
  endfacet
  facet normal -0.000000e+00 1.000000e+00 0.000000e+00
    outer loop
      vertex   -5.000000e+01 1.950000e+01 0.000000e+00
      vertex   -5.000000e+01 1.950000e+01 5.000000e+00
      vertex   -1.950000e+01 1.950000e+01 0.000000e+00
    endloop
  endfacet
  facet normal 0.000000e+00 1.000000e+00 -0.000000e+00
    outer loop
      vertex   -1.950000e+01 1.950000e+01 0.000000e+00
      vertex   -5.000000e+01 1.950000e+01 5.000000e+00
      vertex   -1.950000e+01 1.950000e+01 5.000000e+00
    endloop
  endfacet
  facet normal -0.000000e+00 0.000000e+00 1.000000e+00
    outer loop
      vertex   -1.500000e+01 4.992893e+01 2.000000e+01
      vertex   -1.500000e+01 1.500000e+01 2.000000e+01
      vertex   -8.000000e+00 4.292893e+01 2.000000e+01
    endloop
  endfacet
  facet normal 0.000000e+00 0.000000e+00 1.000000e+00
    outer loop
      vertex   -8.000000e+00 4.292893e+01 2.000000e+01
      vertex   -1.500000e+01 1.500000e+01 2.000000e+01
      vertex   0.000000e+00 0.000000e+00 2.000000e+01
    endloop
  endfacet
  facet normal 0.000000e+00 0.000000e+00 1.000000e+00
    outer loop
      vertex   0.000000e+00 5.000000e+01 2.000000e+01
      vertex   -8.000000e+00 4.292893e+01 2.000000e+01
      vertex   0.000000e+00 0.000000e+00 2.000000e+01
    endloop
  endfacet
  facet normal 0.000000e+00 0.000000e+00 1.000000e+00
    outer loop
      vertex   0.000000e+00 5.000000e+01 2.000000e+01
      vertex   -9.289322e-01 5.000000e+01 2.000000e+01
      vertex   -8.000000e+00 4.292893e+01 2.000000e+01
    endloop
  endfacet
  facet normal -0.000000e+00 0.000000e+00 1.000000e+00
    outer loop
      vertex   -5.007107e+01 1.500000e+01 2.000000e+01
      vertex   -5.000000e+01 9.289322e-01 2.000000e+01
      vertex   -1.500000e+01 1.500000e+01 2.000000e+01
    endloop
  endfacet
  facet normal 0.000000e+00 0.000000e+00 1.000000e+00
    outer loop
      vertex   -5.007107e+01 1.500000e+01 2.000000e+01
      vertex   -5.707107e+01 8.000000e+00 2.000000e+01
      vertex   -5.000000e+01 9.289322e-01 2.000000e+01
    endloop
  endfacet
  facet normal -0.000000e+00 0.000000e+00 1.000000e+00
    outer loop
      vertex   -5.000000e+01 9.289322e-01 2.000000e+01
      vertex   -5.000000e+01 0.000000e+00 2.000000e+01
      vertex   -1.500000e+01 1.500000e+01 2.000000e+01
    endloop
  endfacet
  facet normal -0.000000e+00 0.000000e+00 1.000000e+00
    outer loop
      vertex   -1.500000e+01 1.500000e+01 2.000000e+01
      vertex   -5.000000e+01 0.000000e+00 2.000000e+01
      vertex   0.000000e+00 0.000000e+00 2.000000e+01
    endloop
  endfacet
  facet normal 0.000000e+00 -1.000000e+00 0.000000e+00
    outer loop
      vertex   -5.000000e+01 0.000000e+00 2.000000e+01
      vertex   -5.000000e+01 0.000000e+00 0.000000e+00
      vertex   0.000000e+00 0.000000e+00 2.000000e+01
    endloop
  endfacet
  facet normal 0.000000e+00 -1.000000e+00 -0.000000e+00
    outer loop
      vertex   0.000000e+00 0.000000e+00 2.000000e+01
      vertex   -5.000000e+01 0.000000e+00 0.000000e+00
      vertex   0.000000e+00 0.000000e+00 0.000000e+00
    endloop
  endfacet
  facet normal 0.000000e+00 -0.000000e+00 -1.000000e+00
    outer loop
      vertex   -9.289322e-01 5.000000e+01 0.000000e+00
      vertex   0.000000e+00 5.000000e+01 0.000000e+00
      vertex   -8.000000e+00 4.292893e+01 0.000000e+00
    endloop
  endfacet
  facet normal 0.000000e+00 0.000000e+00 -1.000000e+00
    outer loop
      vertex   -8.000000e+00 4.292893e+01 0.000000e+00
      vertex   0.000000e+00 5.000000e+01 0.000000e+00
      vertex   0.000000e+00 0.000000e+00 0.000000e+00
    endloop
  endfacet
  facet normal -0.000000e+00 -0.000000e+00 -1.000000e+00
    outer loop
      vertex   -1.950000e+01 1.950000e+01 0.000000e+00
      vertex   0.000000e+00 0.000000e+00 0.000000e+00
      vertex   -5.000000e+01 0.000000e+00 0.000000e+00
    endloop
  endfacet
  facet normal 0.000000e+00 -0.000000e+00 -1.000000e+00
    outer loop
      vertex   -5.000000e+01 9.289322e-01 0.000000e+00
      vertex   -1.950000e+01 1.950000e+01 0.000000e+00
      vertex   -5.000000e+01 0.000000e+00 0.000000e+00
    endloop
  endfacet
  facet normal 0.000000e+00 0.000000e+00 -1.000000e+00
    outer loop
      vertex   -5.000000e+01 9.289322e-01 0.000000e+00
      vertex   -5.000000e+01 1.507107e+01 0.000000e+00
      vertex   -1.950000e+01 1.950000e+01 0.000000e+00
    endloop
  endfacet
  facet normal 0.000000e+00 0.000000e+00 -1.000000e+00
    outer loop
      vertex   -5.000000e+01 9.289322e-01 0.000000e+00
      vertex   -5.707107e+01 8.000000e+00 0.000000e+00
      vertex   -5.000000e+01 1.507107e+01 0.000000e+00
    endloop
  endfacet
  facet normal -0.000000e+00 -0.000000e+00 -1.000000e+00
    outer loop
      vertex   -8.000000e+00 4.292893e+01 0.000000e+00
      vertex   0.000000e+00 0.000000e+00 0.000000e+00
      vertex   -1.950000e+01 1.950000e+01 0.000000e+00
    endloop
  endfacet
  facet normal 0.000000e+00 -0.000000e+00 -1.000000e+00
    outer loop
      vertex   -1.950000e+01 5.000000e+01 0.000000e+00
      vertex   -8.000000e+00 4.292893e+01 0.000000e+00
      vertex   -1.950000e+01 1.950000e+01 0.000000e+00
    endloop
  endfacet
  facet normal 0.000000e+00 0.000000e+00 -1.000000e+00
    outer loop
      vertex   -1.950000e+01 5.000000e+01 0.000000e+00
      vertex   -1.507107e+01 5.000000e+01 0.000000e+00
      vertex   -8.000000e+00 4.292893e+01 0.000000e+00
    endloop
  endfacet
  facet normal 0.000000e+00 0.000000e+00 -1.000000e+00
    outer loop
      vertex   -5.000000e+01 1.507107e+01 0.000000e+00
      vertex   -5.000000e+01 1.950000e+01 0.000000e+00
      vertex   -1.950000e+01 1.950000e+01 0.000000e+00
    endloop
  endfacet
  facet normal 1.000000e+00 0.000000e+00 -0.000000e+00
    outer loop
      vertex   0.000000e+00 5.000000e+01 0.000000e+00
      vertex   0.000000e+00 5.000000e+01 2.000000e+01
      vertex   0.000000e+00 0.000000e+00 0.000000e+00
    endloop
  endfacet
  facet normal 1.000000e+00 0.000000e+00 -0.000000e+00
    outer loop
      vertex   0.000000e+00 0.000000e+00 0.000000e+00
      vertex   0.000000e+00 5.000000e+01 2.000000e+01
      vertex   0.000000e+00 0.000000e+00 2.000000e+01
    endloop
  endfacet
endsolid
